{"glyphs":{"0":{"ha":814,"x_min":26,"x_max":789,"o":"m 553 516 q 557 509 555 514 q 558 500 558 504 q 557 490 558 496 q 553 484 555 486 q 547 479 550 480 q 538 478 544 478 q 530 479 533 478 q 524 484 528 480 q 520 490 521 487 q 519 500 519 496 q 520 509 519 504 q 524 516 521 513 q 530 520 528 519 q 538 522 536 522 q 547 520 541 522 q 553 516 550 519 m 359 520 q 365 516 361 519 q 369 509 368 513 q 370 500 370 504 q 369 490 370 496 q 365 484 368 487 q 359 479 361 480 q 351 478 356 478 q 342 479 345 478 q 336 484 339 480 q 332 490 332 487 q 330 500 330 496 q 332 509 330 504 q 336 516 332 513 q 342 520 339 519 q 351 522 347 522 q 359 520 353 522 m 108 520 q 114 516 111 519 q 118 509 117 513 q 119 500 119 504 q 118 490 119 496 q 114 484 117 487 q 108 479 111 480 q 100 478 105 478 l 88 478 l 88 522 l 100 522 q 108 520 102 522 m 780 562 l 780 439 l 35 439 l 35 562 l 780 562 m 129 487 q 131 500 131 493 q 129 513 131 507 q 122 522 127 517 q 113 529 117 528 q 100 531 106 531 l 70 531 l 70 526 q 73 524 70 524 l 73 523 l 74 523 l 75 522 q 77 522 76 522 l 77 477 q 75 477 76 477 l 74 477 l 73 477 l 73 476 q 70 474 70 476 l 70 469 l 100 469 q 113 471 106 469 q 122 477 117 472 q 129 487 127 483 m 197 515 l 197 531 l 151 531 l 151 526 q 153 524 151 524 l 154 523 l 155 523 l 156 522 q 158 522 157 522 l 158 477 q 156 477 157 477 l 155 477 l 154 477 l 153 476 q 151 474 151 476 l 151 469 l 197 469 l 197 485 l 192 485 q 190 484 190 485 l 190 481 q 189 478 189 479 l 170 478 l 170 496 l 191 496 l 191 505 l 170 505 l 170 522 l 189 522 q 190 518 189 520 l 190 516 q 192 515 190 515 l 197 515 m 298 526 l 298 531 l 283 531 l 282 531 l 281 531 l 280 530 q 279 529 279 530 l 261 494 q 260 493 260 494 q 260 492 260 492 l 258 489 l 257 492 q 256 493 256 492 q 256 494 256 494 l 237 529 l 237 530 q 235 531 236 531 l 235 531 l 233 531 l 218 531 l 218 526 q 220 524 218 524 l 220 523 l 222 523 l 222 522 q 224 522 224 522 l 224 477 q 222 477 224 477 l 222 477 l 220 477 l 220 476 q 218 473 218 476 l 218 469 l 243 469 l 243 473 q 240 476 243 476 q 235 477 238 477 l 235 509 l 235 511 l 235 514 l 254 479 l 254 478 q 255 477 255 477 q 258 476 256 476 l 259 476 q 262 477 261 476 q 262 477 262 477 l 263 479 l 282 514 l 282 511 l 282 509 l 282 477 l 276 476 q 274 473 274 476 l 274 469 l 298 469 l 298 473 q 296 476 298 476 l 296 477 l 294 477 l 294 477 q 292 477 293 477 l 292 522 q 294 522 293 522 l 294 523 l 296 523 l 296 523 q 298 526 298 523 m 380 487 q 382 500 382 493 q 380 513 382 507 q 373 523 378 517 q 363 529 369 528 q 351 532 355 532 q 338 529 346 532 q 328 523 332 527 q 321 513 323 517 q 319 500 319 507 q 321 487 319 493 q 328 477 323 481 q 338 471 332 473 q 351 468 346 468 q 363 471 355 468 q 373 477 369 472 q 380 487 378 481 m 482 515 l 487 515 l 487 531 l 439 531 l 439 526 q 441 524 439 524 l 442 523 l 444 523 l 444 522 q 446 522 445 522 l 446 477 q 444 477 445 477 l 444 477 l 442 477 l 441 476 q 439 474 439 476 l 439 469 l 464 469 l 464 474 q 462 476 464 476 l 461 477 l 460 477 l 458 477 q 457 477 458 477 l 457 494 l 479 494 l 479 503 l 457 503 l 457 522 l 479 522 q 480 518 479 520 l 480 516 q 482 515 480 515 m 568 487 q 570 500 570 495 q 568 513 570 505 q 562 523 566 519 q 551 529 557 527 q 538 532 543 532 q 526 529 534 532 q 516 523 521 528 q 509 513 511 517 q 507 500 507 507 q 509 487 507 493 q 516 477 511 481 q 526 471 521 472 q 538 468 534 468 q 551 471 543 468 q 562 477 557 473 q 568 487 566 481 m 656 526 l 656 531 l 631 531 l 631 526 q 633 523 631 523 q 640 522 636 523 l 640 493 l 640 490 l 640 488 l 607 529 l 606 530 l 606 530 q 604 531 605 531 l 603 531 l 591 531 l 591 526 q 593 524 591 524 l 593 523 l 595 523 l 595 522 q 597 522 596 522 l 597 477 q 595 477 596 477 l 595 477 l 593 477 l 593 476 q 591 474 591 476 l 591 469 l 615 469 l 615 474 q 613 476 615 476 q 607 477 610 477 l 607 507 l 607 509 l 607 512 l 640 471 q 640 470 640 471 l 642 469 l 642 469 q 644 469 643 469 l 650 469 l 650 522 q 651 522 650 522 l 652 523 l 653 523 l 654 523 q 656 526 656 523 m 723 516 l 728 516 l 728 531 l 676 531 l 676 516 l 681 516 q 683 518 683 516 l 684 519 q 684 522 684 520 l 696 522 l 696 477 q 694 477 695 477 l 694 477 l 692 477 l 692 476 q 690 474 690 476 l 690 469 l 714 469 l 714 474 q 712 476 714 476 l 711 477 l 710 477 l 709 477 q 707 477 708 477 l 707 522 l 720 522 q 720 519 720 520 l 721 518 q 723 516 721 516 m 618 288 q 626 309 618 302 q 648 319 633 315 q 654 318 651 319 q 655 312 656 317 q 652 304 654 306 q 638 295 648 300 q 625 286 629 290 q 621 283 623 283 q 618 288 618 285 m 786 217 q 785 212 788 217 q 779 197 779 202 q 774 187 777 190 q 766 178 770 182 q 754 167 759 170 q 694 142 725 144 q 682 146 690 142 q 669 153 673 149 q 658 163 661 160 q 653 174 653 168 q 652 187 652 179 q 646 180 651 185 q 628 162 638 171 q 609 145 621 156 q 595 135 601 138 q 588 134 593 134 q 577 136 581 134 q 566 140 570 138 q 559 147 560 144 q 557 159 557 152 q 561 174 558 163 q 566 193 564 189 q 571 202 568 196 q 574 210 574 209 l 564 203 l 564 202 l 560 197 q 537 166 549 180 q 514 139 521 146 q 495 125 502 127 q 487 125 492 123 q 477 127 481 126 q 467 133 471 130 q 461 140 463 136 q 460 149 460 144 q 463 159 462 155 q 465 172 464 168 q 468 187 467 178 l 468 193 q 460 183 465 190 q 452 174 455 177 q 448 168 451 172 q 444 162 446 164 q 431 151 440 157 q 418 142 425 145 q 404 142 412 140 q 392 146 396 144 q 383 159 387 149 q 380 176 380 165 q 380 184 380 180 q 380 193 380 188 q 380 201 380 199 q 361 176 378 198 q 343 153 357 170 q 328 136 335 143 q 316 127 323 131 q 309 126 313 125 l 298 130 q 290 135 293 132 q 286 140 286 138 q 285 165 283 152 q 276 157 279 160 q 242 133 261 145 q 207 113 228 123 q 174 98 191 104 q 152 92 172 98 q 130 89 144 90 q 108 90 120 88 q 87 100 98 92 q 64 133 66 114 q 71 174 62 154 l 64 169 q 31 167 42 161 l 28 169 l 28 169 q 34 179 26 172 q 52 191 43 186 l 62 197 q 96 217 73 205 q 101 225 98 220 q 108 234 105 230 q 114 241 111 238 q 122 251 116 243 q 131 262 127 259 q 119 267 123 265 q 111 275 113 271 q 107 286 107 279 q 111 299 107 291 q 127 317 115 308 q 153 336 137 326 q 183 353 165 343 q 212 367 203 363 q 236 375 229 373 q 269 382 255 380 q 307 387 287 385 q 340 385 326 388 q 363 373 355 381 q 369 350 371 365 q 362 335 367 338 q 354 334 357 332 q 347 336 350 336 l 339 336 q 337 336 338 336 q 338 340 336 338 q 340 341 339 340 q 341 343 340 342 q 342 346 342 345 q 344 353 344 349 q 343 361 344 359 q 338 366 342 364 q 330 370 334 370 l 320 370 q 294 368 307 370 q 267 362 285 366 q 257 359 264 361 q 248 355 251 357 q 228 347 239 353 q 213 340 223 345 q 199 333 203 336 q 172 317 184 326 q 149 301 155 307 q 136 286 139 292 q 133 280 133 283 q 134 277 133 278 q 139 276 137 276 l 146 276 q 152 274 148 276 q 155 272 153 273 q 159 270 157 271 q 164 264 162 268 q 163 259 165 262 l 151 242 l 153 243 q 174 252 163 247 q 197 260 183 256 q 220 267 214 267 q 243 268 231 269 q 254 265 250 267 q 258 260 256 264 q 260 256 258 259 q 269 251 263 254 q 271 248 272 249 q 267 248 271 248 q 249 248 258 250 q 231 245 238 247 q 222 243 228 245 q 214 241 216 241 q 201 237 207 239 q 174 228 180 230 q 161 222 170 227 q 149 217 153 218 q 142 214 146 216 q 134 210 137 212 q 128 207 132 209 q 121 203 123 204 l 115 195 q 112 191 113 194 q 109 187 110 189 q 99 168 103 178 q 91 147 92 149 l 89 133 q 94 116 89 122 q 107 109 99 111 q 130 108 119 106 q 153 114 140 110 q 177 124 158 115 q 187 129 180 125 q 197 134 194 132 q 221 148 207 138 q 237 160 227 152 q 253 171 248 168 q 287 195 276 187 q 298 204 291 199 q 308 211 306 209 l 309 212 q 338 238 322 229 q 372 250 356 248 q 380 247 376 250 l 382 250 l 387 255 q 407 313 395 288 q 439 366 421 340 q 445 371 441 369 q 451 374 449 374 q 457 374 454 376 q 462 370 460 374 q 461 352 465 366 q 451 324 458 341 q 433 288 445 310 q 410 249 429 281 l 410 248 q 405 220 406 228 q 404 192 404 211 q 404 177 404 182 q 407 161 406 168 q 420 172 415 167 q 428 179 422 174 q 435 186 433 184 q 450 201 440 191 q 465 216 460 211 q 465 218 465 217 q 465 221 465 220 q 464 237 464 227 q 467 254 464 247 q 479 267 472 264 q 494 264 487 270 q 500 254 498 261 q 498 241 500 249 q 492 227 496 235 q 484 215 488 220 q 489 203 487 207 q 492 189 491 198 q 492 167 494 180 q 488 147 488 150 q 503 160 495 152 q 518 176 509 165 q 532 192 528 187 q 542 203 540 201 l 549 210 q 551 214 549 212 q 553 217 553 216 q 562 228 556 221 q 568 236 568 235 q 576 245 571 239 q 582 252 581 251 q 591 262 589 260 q 598 264 595 264 q 615 260 610 266 q 618 250 621 255 q 615 242 618 250 q 610 229 612 235 q 604 215 608 224 q 598 201 600 205 q 589 174 596 196 q 587 156 585 161 q 605 168 593 159 q 625 183 615 175 q 635 192 628 186 q 646 201 642 198 q 650 205 647 203 q 655 210 653 208 l 656 211 q 669 243 659 227 q 690 267 675 255 q 717 281 701 276 q 728 281 721 283 q 740 275 736 278 q 749 267 742 274 q 753 258 753 262 q 751 248 753 254 q 734 221 745 237 q 717 209 722 205 q 718 226 715 210 q 724 247 721 241 q 725 249 724 248 q 726 252 725 250 q 727 254 726 253 l 729 262 q 708 248 718 258 q 690 222 696 235 q 680 193 683 208 q 680 162 677 176 q 709 168 694 162 q 735 180 722 172 q 760 197 749 189 q 781 215 768 203 q 786 217 784 217 m 336 189 q 363 222 354 210 q 347 210 352 215 q 330 195 335 201 q 317 178 321 184 q 310 159 312 168 q 336 189 325 174 m 330 81 q 331 81 330 81 q 332 81 331 81 q 332 79 332 80 q 333 78 332 78 q 334 75 334 77 q 333 71 334 73 q 331 68 332 70 q 328 66 330 68 q 323 66 326 66 l 323 66 q 314 67 317 66 l 314 75 l 317 75 q 317 74 317 75 l 317 73 q 318 71 318 72 q 323 70 319 70 q 327 71 326 70 q 328 75 328 73 q 328 76 328 75 l 326 77 q 324 78 326 78 l 323 79 l 321 79 q 319 80 319 79 l 318 81 q 317 81 317 81 q 316 83 316 81 q 315 84 316 84 q 315 87 315 85 q 315 90 315 90 q 317 93 316 91 q 320 95 319 94 q 324 96 321 96 q 333 94 330 96 l 333 87 l 330 87 q 330 87 330 87 l 330 88 q 329 91 329 90 q 324 92 328 92 l 323 91 q 322 91 323 91 q 321 91 321 91 q 321 90 321 90 q 320 89 320 90 l 320 87 l 320 86 q 322 85 321 85 q 324 84 323 85 l 326 83 l 327 83 q 329 82 328 83 q 330 81 330 81 m 378 96 l 404 96 l 404 89 l 401 89 q 400 90 400 89 l 400 91 l 394 91 l 394 70 l 395 70 l 395 70 l 396 69 q 397 68 397 69 l 397 66 l 385 66 l 385 68 q 386 69 385 69 l 387 70 l 387 70 l 388 70 l 388 91 l 382 91 l 382 90 q 381 89 382 89 l 378 89 l 378 96 m 471 96 l 479 96 l 479 93 q 478 92 479 92 l 477 92 l 476 92 l 476 78 q 475 73 476 74 q 473 69 475 71 q 469 66 471 67 q 464 66 468 66 q 458 66 460 66 q 455 69 457 67 q 452 73 453 71 q 452 78 452 74 l 452 92 l 450 92 l 450 92 q 448 93 448 92 l 448 96 l 460 96 l 460 93 q 459 92 460 92 l 458 92 l 457 92 l 457 78 q 457 76 457 77 l 458 75 q 459 73 458 74 l 461 71 l 464 71 l 467 71 l 469 73 q 470 75 470 74 l 471 76 q 471 78 471 77 l 471 92 l 469 92 l 469 92 q 467 93 467 92 l 467 96 l 471 96 m 549 92 q 553 87 552 89 q 554 81 554 83 q 553 75 554 79 q 549 70 552 73 q 545 67 548 68 q 538 66 541 66 l 525 66 l 525 68 q 526 69 525 69 l 526 70 l 528 70 l 528 92 l 526 92 l 526 92 q 525 93 525 92 l 525 96 l 538 96 q 545 94 541 96 q 549 92 548 94 m 545 73 q 546 74 545 73 q 547 76 547 75 q 548 81 548 77 q 547 85 548 83 q 545 88 546 87 q 543 90 544 90 q 538 91 541 91 l 533 91 l 533 71 l 538 71 q 543 71 541 71 q 545 73 544 72 m 599 96 l 611 96 l 611 93 q 610 92 611 92 l 609 92 l 608 92 l 608 70 l 609 70 l 610 70 l 610 69 q 611 68 611 69 l 611 66 l 599 66 l 599 68 q 600 69 599 69 l 600 70 l 601 70 l 602 70 l 602 92 l 601 92 l 600 92 q 599 93 599 92 l 599 96 m 682 92 q 685 87 684 90 q 686 81 686 83 q 685 75 686 79 q 682 70 684 72 q 677 66 680 67 q 671 66 675 66 q 665 66 667 66 q 661 70 663 67 q 657 75 658 73 q 656 81 656 79 q 657 87 656 83 q 661 92 658 89 q 665 95 663 94 q 671 96 667 96 q 677 95 675 96 q 682 92 680 94 m 680 76 l 680 81 l 680 85 q 678 88 679 87 q 675 90 677 89 q 671 91 673 91 q 667 90 669 91 q 664 88 665 89 q 663 87 663 87 q 663 86 663 86 q 663 85 663 85 q 662 81 662 83 q 663 76 662 77 l 664 73 q 667 71 665 73 q 671 70 670 70 q 675 71 672 70 q 678 73 677 73 q 680 76 680 75 z "},"1":{"ha":814,"x_min":26,"x_max":789,"o":"m 553 516 q 557 509 555 514 q 558 500 558 504 q 557 490 558 496 q 553 484 555 486 q 547 479 550 480 q 538 478 544 478 q 530 479 533 478 q 524 484 528 480 q 520 490 521 487 q 519 500 519 496 q 520 509 519 504 q 524 516 521 513 q 530 520 528 519 q 538 522 536 522 q 547 520 541 522 q 553 516 550 519 m 108 520 q 114 516 111 519 q 118 509 117 513 q 119 500 119 504 q 118 490 119 496 q 114 484 117 487 q 108 479 111 480 q 100 478 105 478 l 88 478 l 88 522 l 100 522 q 108 520 102 522 m 780 562 l 780 439 l 35 439 l 35 562 l 780 562 m 129 487 q 131 500 131 493 q 129 513 131 507 q 122 522 127 517 q 113 529 117 528 q 100 531 106 531 l 70 531 l 70 526 q 73 524 70 524 l 73 523 l 74 523 l 75 522 q 77 522 76 522 l 77 477 q 75 477 76 477 l 74 477 l 73 477 l 73 476 q 70 474 70 476 l 70 469 l 100 469 q 113 471 106 469 q 122 477 117 472 q 129 487 127 483 m 197 515 l 197 531 l 151 531 l 151 526 q 153 524 151 524 l 154 523 l 155 523 l 156 522 q 158 522 157 522 l 158 477 q 156 477 157 477 l 155 477 l 154 477 l 153 476 q 151 474 151 476 l 151 469 l 197 469 l 197 485 l 192 485 q 190 484 190 485 l 190 481 q 189 478 189 479 l 170 478 l 170 496 l 191 496 l 191 505 l 170 505 l 170 522 l 189 522 q 190 518 189 520 l 190 516 q 192 515 190 515 l 197 515 m 298 526 l 298 531 l 283 531 l 282 531 l 281 531 l 280 530 q 279 529 279 530 l 261 494 q 260 493 260 494 q 260 492 260 492 l 258 489 l 257 492 q 256 493 256 492 q 256 494 256 494 l 237 529 l 237 530 q 235 531 236 531 l 235 531 l 233 531 l 218 531 l 218 526 q 220 524 218 524 l 220 523 l 222 523 l 222 522 q 224 522 224 522 l 224 477 q 222 477 224 477 l 222 477 l 220 477 l 220 476 q 218 473 218 476 l 218 469 l 243 469 l 243 473 q 240 476 243 476 q 235 477 238 477 l 235 509 l 235 511 l 235 514 l 254 479 l 254 478 q 255 477 255 477 q 258 476 256 476 l 259 476 q 262 477 261 476 q 262 477 262 477 l 263 479 l 282 514 l 282 511 l 282 509 l 282 477 l 276 476 q 274 473 274 476 l 274 469 l 298 469 l 298 473 q 296 476 298 476 l 296 477 l 294 477 l 294 477 q 292 477 293 477 l 292 522 q 294 522 293 522 l 294 523 l 296 523 l 296 523 q 298 526 298 523 m 380 487 q 382 500 382 493 q 380 513 382 507 q 373 523 378 517 q 363 529 369 528 q 351 532 355 532 q 338 529 346 532 q 328 523 332 527 q 321 513 323 517 q 319 500 319 507 q 321 487 319 493 q 328 477 323 481 q 338 471 332 473 q 351 468 346 468 q 363 471 355 468 q 373 477 369 472 q 380 487 378 481 m 482 515 l 487 515 l 487 531 l 439 531 l 439 526 q 441 524 439 524 l 442 523 l 444 523 l 444 522 q 446 522 445 522 l 446 477 q 444 477 445 477 l 444 477 l 442 477 l 441 476 q 439 474 439 476 l 439 469 l 464 469 l 464 474 q 462 476 464 476 l 461 477 l 460 477 l 458 477 q 457 477 458 477 l 457 494 l 479 494 l 479 503 l 457 503 l 457 522 l 479 522 q 480 518 479 520 l 480 516 q 482 515 480 515 m 568 487 q 570 500 570 495 q 568 513 570 505 q 562 523 566 519 q 551 529 557 527 q 538 532 543 532 q 526 529 534 532 q 516 523 521 528 q 509 513 511 517 q 507 500 507 507 q 509 487 507 493 q 516 477 511 481 q 526 471 521 472 q 538 468 534 468 q 551 471 543 468 q 562 477 557 473 q 568 487 566 481 m 656 526 l 656 531 l 631 531 l 631 526 q 633 523 631 523 q 640 522 636 523 l 640 493 l 640 490 l 640 488 l 607 529 l 606 530 l 606 530 q 604 531 605 531 l 603 531 l 591 531 l 591 526 q 593 524 591 524 l 593 523 l 595 523 l 595 522 q 597 522 596 522 l 597 477 q 595 477 596 477 l 595 477 l 593 477 l 593 476 q 591 474 591 476 l 591 469 l 615 469 l 615 474 q 613 476 615 476 q 607 477 610 477 l 607 507 l 607 509 l 607 512 l 640 471 q 640 470 640 471 l 642 469 l 642 469 q 644 469 643 469 l 650 469 l 650 522 q 651 522 650 522 l 652 523 l 653 523 l 654 523 q 656 526 656 523 m 723 516 l 728 516 l 728 531 l 676 531 l 676 516 l 681 516 q 683 518 683 516 l 684 519 q 684 522 684 520 l 696 522 l 696 477 q 694 477 695 477 l 694 477 l 692 477 l 692 476 q 690 474 690 476 l 690 469 l 714 469 l 714 474 q 712 476 714 476 l 711 477 l 710 477 l 709 477 q 707 477 708 477 l 707 522 l 720 522 q 720 519 720 520 l 721 518 q 723 516 721 516 m 359 520 q 365 516 361 519 q 369 509 368 513 q 370 500 370 504 q 369 490 370 496 q 365 484 368 487 q 359 479 361 480 q 351 478 356 478 q 342 479 345 478 q 336 484 339 480 q 332 490 332 487 q 330 500 330 496 q 332 509 330 504 q 336 516 332 513 q 342 520 339 519 q 351 522 347 522 q 359 520 353 522 m 618 288 q 626 309 618 302 q 648 319 633 315 q 654 318 651 319 q 655 312 656 317 q 652 304 654 306 q 638 295 648 300 q 625 286 629 290 q 621 283 623 283 q 618 288 618 285 m 786 217 q 785 212 788 217 q 779 197 779 202 q 774 187 777 190 q 766 178 770 182 q 754 167 759 170 q 694 142 725 144 q 682 146 690 142 q 669 153 673 149 q 658 163 661 160 q 653 174 653 168 q 652 187 652 179 q 646 180 651 185 q 628 162 638 171 q 609 145 621 156 q 595 135 601 138 q 588 134 593 134 q 577 136 581 134 q 566 140 570 138 q 559 147 560 144 q 557 159 557 152 q 561 174 558 163 q 566 193 564 189 q 571 202 568 196 q 574 210 574 209 l 564 203 l 564 202 l 560 197 q 537 166 549 180 q 514 139 521 146 q 495 125 502 127 q 487 125 492 123 q 477 127 481 126 q 467 133 471 130 q 461 140 463 136 q 460 149 460 144 q 463 159 462 155 q 465 172 464 168 q 468 187 467 178 l 468 193 q 460 183 465 190 q 452 174 455 177 q 448 168 451 172 q 444 162 446 164 q 431 151 440 157 q 418 142 425 145 q 404 142 412 140 q 392 146 396 144 q 383 159 387 149 q 380 176 380 165 q 380 184 380 180 q 380 193 380 188 q 380 201 380 199 q 361 176 378 198 q 343 153 357 170 q 328 136 335 143 q 316 127 323 131 q 309 126 313 125 l 298 130 q 290 135 293 132 q 286 140 286 138 q 285 165 283 152 q 276 157 279 160 q 242 133 261 145 q 207 113 228 123 q 174 98 191 104 q 152 92 172 98 q 130 89 144 90 q 108 90 120 88 q 87 100 98 92 q 64 133 66 114 q 71 174 62 154 l 64 169 q 31 167 42 161 l 28 169 l 28 169 q 34 179 26 172 q 52 191 43 186 l 62 197 q 96 217 73 205 q 101 225 98 220 q 108 234 105 230 q 114 241 111 238 q 122 251 116 243 q 131 262 127 259 q 119 267 123 265 q 111 275 113 271 q 107 286 107 279 q 111 299 107 291 q 127 317 115 308 q 153 336 137 326 q 183 353 165 343 q 212 367 203 363 q 236 375 229 373 q 269 382 255 380 q 307 387 287 385 q 340 385 326 388 q 363 373 355 381 q 369 350 371 365 q 362 335 367 338 q 354 334 357 332 q 347 336 350 336 l 339 336 q 337 336 338 336 q 338 340 336 338 q 340 341 339 340 q 341 343 340 342 q 342 346 342 345 q 344 353 344 349 q 343 361 344 359 q 338 366 342 364 q 330 370 334 370 l 320 370 q 294 368 307 370 q 267 362 285 366 q 257 359 264 361 q 248 355 251 357 q 228 347 239 353 q 213 340 223 345 q 199 333 203 336 q 172 317 184 326 q 149 301 155 307 q 136 286 139 292 q 133 280 133 283 q 134 277 133 278 q 139 276 137 276 l 146 276 q 152 274 148 276 q 155 272 153 273 q 159 270 157 271 q 164 264 162 268 q 163 259 165 262 l 151 242 l 153 243 q 174 252 163 247 q 197 260 183 256 q 220 267 214 267 q 243 268 231 269 q 254 265 250 267 q 258 260 256 264 q 260 256 258 259 q 269 251 263 254 q 271 248 272 249 q 267 248 271 248 q 249 248 258 250 q 231 245 238 247 q 222 243 228 245 q 214 241 216 241 q 201 237 207 239 q 174 228 180 230 q 161 222 170 227 q 149 217 153 218 q 142 214 146 216 q 134 210 137 212 q 128 207 132 209 q 121 203 123 204 l 115 195 q 112 191 113 194 q 109 187 110 189 q 99 168 103 178 q 91 147 92 149 l 89 133 q 94 116 89 122 q 107 109 99 111 q 130 108 119 106 q 153 114 140 110 q 177 124 158 115 q 187 129 180 125 q 197 134 194 132 q 221 148 207 138 q 237 160 227 152 q 253 171 248 168 q 287 195 276 187 q 298 204 291 199 q 308 211 306 209 l 309 212 q 338 238 322 229 q 372 250 356 248 q 380 247 376 250 l 382 250 l 387 255 q 407 313 395 288 q 439 366 421 340 q 445 371 441 369 q 451 374 449 374 q 457 374 454 376 q 462 370 460 374 q 461 352 465 366 q 451 324 458 341 q 433 288 445 310 q 410 249 429 281 l 410 248 q 405 220 406 228 q 404 192 404 211 q 404 177 404 182 q 407 161 406 168 q 420 172 415 167 q 428 179 422 174 q 435 186 433 184 q 450 201 440 191 q 465 216 460 211 q 465 218 465 217 q 465 221 465 220 q 464 237 464 227 q 467 254 464 247 q 479 267 472 264 q 494 264 487 270 q 500 254 498 261 q 498 241 500 249 q 492 227 496 235 q 484 215 488 220 q 489 203 487 207 q 492 189 491 198 q 492 167 494 180 q 488 147 488 150 q 503 160 495 152 q 518 176 509 165 q 532 192 528 187 q 542 203 540 201 l 549 210 q 551 214 549 212 q 553 217 553 216 q 562 228 556 221 q 568 236 568 235 q 576 245 571 239 q 582 252 581 251 q 591 262 589 260 q 598 264 595 264 q 615 260 610 266 q 618 250 621 255 q 615 242 618 250 q 610 229 612 235 q 604 215 608 224 q 598 201 600 205 q 589 174 596 196 q 587 156 585 161 q 605 168 593 159 q 625 183 615 175 q 635 192 628 186 q 646 201 642 198 q 650 205 647 203 q 655 210 653 208 l 656 211 q 669 243 659 227 q 690 267 675 255 q 717 281 701 276 q 728 281 721 283 q 740 275 736 278 q 749 267 742 274 q 753 258 753 262 q 751 248 753 254 q 734 221 745 237 q 717 209 722 205 q 718 226 715 210 q 724 247 721 241 q 725 249 724 248 q 726 252 725 250 q 727 254 726 253 l 729 262 q 708 248 718 258 q 690 222 696 235 q 680 193 683 208 q 680 162 677 176 q 709 168 694 162 q 735 180 722 172 q 760 197 749 189 q 781 215 768 203 q 786 217 784 217 m 336 189 q 363 222 354 210 q 347 210 352 215 q 330 195 335 201 q 317 178 321 184 q 310 159 312 168 q 336 189 325 174 m 330 81 q 331 81 330 81 q 332 81 331 81 q 332 79 332 80 q 333 78 332 78 q 334 75 334 77 q 333 71 334 73 q 331 68 332 70 q 328 66 330 68 q 323 66 326 66 l 323 66 q 314 67 317 66 l 314 75 l 317 75 q 317 74 317 75 l 317 73 q 318 71 318 72 q 323 70 319 70 q 327 71 326 70 q 328 75 328 73 q 328 76 328 75 l 326 77 q 324 78 326 78 l 323 79 l 321 79 q 319 80 319 79 l 318 81 q 317 81 317 81 q 316 83 316 81 q 315 84 316 84 q 315 87 315 85 q 315 90 315 90 q 317 93 316 91 q 320 95 319 94 q 324 96 321 96 q 333 94 330 96 l 333 87 l 330 87 q 330 87 330 87 l 330 88 q 329 91 329 90 q 324 92 328 92 l 323 91 q 322 91 323 91 q 321 91 321 91 q 321 90 321 90 q 320 89 320 90 l 320 87 l 320 86 q 322 85 321 85 q 324 84 323 85 l 326 83 l 327 83 q 329 82 328 83 q 330 81 330 81 m 378 96 l 404 96 l 404 89 l 401 89 q 400 90 400 89 l 400 91 l 394 91 l 394 70 l 395 70 l 395 70 l 396 69 q 397 68 397 69 l 397 66 l 385 66 l 385 68 q 386 69 385 69 l 387 70 l 387 70 l 388 70 l 388 91 l 382 91 l 382 90 q 381 89 382 89 l 378 89 l 378 96 m 471 96 l 479 96 l 479 93 q 478 92 479 92 l 477 92 l 476 92 l 476 78 q 475 73 476 74 q 473 69 475 71 q 469 66 471 67 q 464 66 468 66 q 458 66 460 66 q 455 69 457 67 q 452 73 453 71 q 452 78 452 74 l 452 92 l 450 92 l 450 92 q 448 93 448 92 l 448 96 l 460 96 l 460 93 q 459 92 460 92 l 458 92 l 457 92 l 457 78 q 457 76 457 77 l 458 75 q 459 73 458 74 l 461 71 l 464 71 l 467 71 l 469 73 q 470 75 470 74 l 471 76 q 471 78 471 77 l 471 92 l 469 92 l 469 92 q 467 93 467 92 l 467 96 l 471 96 m 549 92 q 553 87 552 89 q 554 81 554 83 q 553 75 554 79 q 549 70 552 73 q 545 67 548 68 q 538 66 541 66 l 525 66 l 525 68 q 526 69 525 69 l 526 70 l 528 70 l 528 92 l 526 92 l 526 92 q 525 93 525 92 l 525 96 l 538 96 q 545 94 541 96 q 549 92 548 94 m 545 73 q 546 74 545 73 q 547 76 547 75 q 548 81 548 77 q 547 85 548 83 q 545 88 546 87 q 543 90 544 90 q 538 91 541 91 l 533 91 l 533 71 l 538 71 q 543 71 541 71 q 545 73 544 72 m 599 96 l 611 96 l 611 93 q 610 92 611 92 l 609 92 l 608 92 l 608 70 l 609 70 l 610 70 l 610 69 q 611 68 611 69 l 611 66 l 599 66 l 599 68 q 600 69 599 69 l 600 70 l 601 70 l 602 70 l 602 92 l 601 92 l 600 92 q 599 93 599 92 l 599 96 m 682 92 q 685 87 684 90 q 686 81 686 83 q 685 75 686 79 q 682 70 684 72 q 677 66 680 67 q 671 66 675 66 q 665 66 667 66 q 661 70 663 67 q 657 75 658 73 q 656 81 656 79 q 657 87 656 83 q 661 92 658 89 q 665 95 663 94 q 671 96 667 96 q 677 95 675 96 q 682 92 680 94 m 680 76 l 680 81 l 680 85 q 678 88 679 87 q 675 90 677 89 q 671 91 673 91 q 667 90 669 91 q 664 88 665 89 q 663 87 663 87 q 663 86 663 86 q 663 85 663 85 q 662 81 662 83 q 663 76 662 77 l 664 73 q 667 71 665 73 q 671 70 670 70 q 675 71 672 70 q 678 73 677 73 q 680 76 680 75 z "},"2":{"ha":814,"x_min":26,"x_max":789,"o":"m 108 520 q 114 516 111 519 q 118 509 117 513 q 119 500 119 504 q 118 490 119 496 q 114 484 117 487 q 108 479 111 480 q 100 478 105 478 l 88 478 l 88 522 l 100 522 q 108 520 102 522 m 359 520 q 365 516 361 519 q 369 509 368 513 q 370 500 370 504 q 369 490 370 496 q 365 484 368 487 q 359 479 361 480 q 351 478 356 478 q 342 479 345 478 q 336 484 339 480 q 332 490 332 487 q 330 500 330 496 q 332 509 330 504 q 336 516 332 513 q 342 520 339 519 q 351 522 347 522 q 359 520 353 522 m 553 516 q 557 509 555 514 q 558 500 558 504 q 557 490 558 496 q 553 484 555 486 q 547 479 550 480 q 538 478 544 478 q 530 479 533 478 q 524 484 528 480 q 520 490 521 487 q 519 500 519 496 q 520 509 519 504 q 524 516 521 513 q 530 520 528 519 q 538 522 536 522 q 547 520 541 522 q 553 516 550 519 m 780 562 l 780 439 l 35 439 l 35 562 l 780 562 m 129 487 q 131 500 131 493 q 129 513 131 507 q 122 522 127 517 q 113 529 117 528 q 100 531 106 531 l 70 531 l 70 526 q 73 524 70 524 l 73 523 l 74 523 l 75 522 q 77 522 76 522 l 77 477 q 75 477 76 477 l 74 477 l 73 477 l 73 476 q 70 474 70 476 l 70 469 l 100 469 q 113 471 106 469 q 122 477 117 472 q 129 487 127 483 m 197 515 l 197 531 l 151 531 l 151 526 q 153 524 151 524 l 154 523 l 155 523 l 156 522 q 158 522 157 522 l 158 477 q 156 477 157 477 l 155 477 l 154 477 l 153 476 q 151 474 151 476 l 151 469 l 197 469 l 197 485 l 192 485 q 190 484 190 485 l 190 481 q 189 478 189 479 l 170 478 l 170 496 l 191 496 l 191 505 l 170 505 l 170 522 l 189 522 q 190 518 189 520 l 190 516 q 192 515 190 515 l 197 515 m 298 526 l 298 531 l 283 531 l 282 531 l 281 531 l 280 530 q 279 529 279 530 l 261 494 q 260 493 260 494 q 260 492 260 492 l 258 489 l 257 492 q 256 493 256 492 q 256 494 256 494 l 237 529 l 237 530 q 235 531 236 531 l 235 531 l 233 531 l 218 531 l 218 526 q 220 524 218 524 l 220 523 l 222 523 l 222 522 q 224 522 224 522 l 224 477 q 222 477 224 477 l 222 477 l 220 477 l 220 476 q 218 473 218 476 l 218 469 l 243 469 l 243 473 q 240 476 243 476 q 235 477 238 477 l 235 509 l 235 511 l 235 514 l 254 479 l 254 478 q 255 477 255 477 q 258 476 256 476 l 259 476 q 262 477 261 476 q 262 477 262 477 l 263 479 l 282 514 l 282 511 l 282 509 l 282 477 l 276 476 q 274 473 274 476 l 274 469 l 298 469 l 298 473 q 296 476 298 476 l 296 477 l 294 477 l 294 477 q 292 477 293 477 l 292 522 q 294 522 293 522 l 294 523 l 296 523 l 296 523 q 298 526 298 523 m 380 487 q 382 500 382 493 q 380 513 382 507 q 373 523 378 517 q 363 529 369 528 q 351 532 355 532 q 338 529 346 532 q 328 523 332 527 q 321 513 323 517 q 319 500 319 507 q 321 487 319 493 q 328 477 323 481 q 338 471 332 473 q 351 468 346 468 q 363 471 355 468 q 373 477 369 472 q 380 487 378 481 m 482 515 l 487 515 l 487 531 l 439 531 l 439 526 q 441 524 439 524 l 442 523 l 444 523 l 444 522 q 446 522 445 522 l 446 477 q 444 477 445 477 l 444 477 l 442 477 l 441 476 q 439 474 439 476 l 439 469 l 464 469 l 464 474 q 462 476 464 476 l 461 477 l 460 477 l 458 477 q 457 477 458 477 l 457 494 l 479 494 l 479 503 l 457 503 l 457 522 l 479 522 q 480 518 479 520 l 480 516 q 482 515 480 515 m 568 487 q 570 500 570 495 q 568 513 570 505 q 562 523 566 519 q 551 529 557 527 q 538 532 543 532 q 526 529 534 532 q 516 523 521 528 q 509 513 511 517 q 507 500 507 507 q 509 487 507 493 q 516 477 511 481 q 526 471 521 472 q 538 468 534 468 q 551 471 543 468 q 562 477 557 473 q 568 487 566 481 m 656 526 l 656 531 l 631 531 l 631 526 q 633 523 631 523 q 640 522 636 523 l 640 493 l 640 490 l 640 488 l 607 529 l 606 530 l 606 530 q 604 531 605 531 l 603 531 l 591 531 l 591 526 q 593 524 591 524 l 593 523 l 595 523 l 595 522 q 597 522 596 522 l 597 477 q 595 477 596 477 l 595 477 l 593 477 l 593 476 q 591 474 591 476 l 591 469 l 615 469 l 615 474 q 613 476 615 476 q 607 477 610 477 l 607 507 l 607 509 l 607 512 l 640 471 q 640 470 640 471 l 642 469 l 642 469 q 644 469 643 469 l 650 469 l 650 522 q 651 522 650 522 l 652 523 l 653 523 l 654 523 q 656 526 656 523 m 723 516 l 728 516 l 728 531 l 676 531 l 676 516 l 681 516 q 683 518 683 516 l 684 519 q 684 522 684 520 l 696 522 l 696 477 q 694 477 695 477 l 694 477 l 692 477 l 692 476 q 690 474 690 476 l 690 469 l 714 469 l 714 474 q 712 476 714 476 l 711 477 l 710 477 l 709 477 q 707 477 708 477 l 707 522 l 720 522 q 720 519 720 520 l 721 518 q 723 516 721 516 m 786 217 q 785 212 788 217 q 779 197 779 202 q 774 187 777 190 q 766 178 770 182 q 754 167 759 170 q 694 142 725 144 q 682 146 690 142 q 669 153 673 149 q 658 163 661 160 q 653 174 653 168 q 652 187 652 179 q 646 180 651 185 q 628 162 638 171 q 609 145 621 156 q 595 135 601 138 q 588 134 593 134 q 577 136 581 134 q 566 140 570 138 q 559 147 560 144 q 557 159 557 152 q 561 174 558 163 q 566 193 564 189 q 571 202 568 196 q 574 210 574 209 l 564 203 l 564 202 l 560 197 q 537 166 549 180 q 514 139 521 146 q 495 125 502 127 q 487 125 492 123 q 477 127 481 126 q 467 133 471 130 q 461 140 463 136 q 460 149 460 144 q 463 159 462 155 q 465 172 464 168 q 468 187 467 178 l 468 193 q 460 183 465 190 q 452 174 455 177 q 448 168 451 172 q 444 162 446 164 q 431 151 440 157 q 418 142 425 145 q 404 142 412 140 q 392 146 396 144 q 383 159 387 149 q 380 176 380 165 q 380 184 380 180 q 380 193 380 188 q 380 201 380 199 q 361 176 378 198 q 343 153 357 170 q 328 136 335 143 q 316 127 323 131 q 309 126 313 125 l 298 130 q 290 135 293 132 q 286 140 286 138 q 285 165 283 152 q 276 157 279 160 q 242 133 261 145 q 207 113 228 123 q 174 98 191 104 q 152 92 172 98 q 130 89 144 90 q 108 90 120 88 q 87 100 98 92 q 64 133 66 114 q 71 174 62 154 l 64 169 q 31 167 42 161 l 28 169 l 28 169 q 34 179 26 172 q 52 191 43 186 l 62 197 q 96 217 73 205 q 101 225 98 220 q 108 234 105 230 q 114 241 111 238 q 122 251 116 243 q 131 262 127 259 q 119 267 123 265 q 111 275 113 271 q 107 286 107 279 q 111 299 107 291 q 127 317 115 308 q 153 336 137 326 q 183 353 165 343 q 212 367 203 363 q 236 375 229 373 q 269 382 255 380 q 307 387 287 385 q 340 385 326 388 q 363 373 355 381 q 369 350 371 365 q 362 335 367 338 q 354 334 357 332 q 347 336 350 336 l 339 336 q 337 336 338 336 q 338 340 336 338 q 340 341 339 340 q 341 343 340 342 q 342 346 342 345 q 344 353 344 349 q 343 361 344 359 q 338 366 342 364 q 330 370 334 370 l 320 370 q 294 368 307 370 q 267 362 285 366 q 257 359 264 361 q 248 355 251 357 q 228 347 239 353 q 213 340 223 345 q 199 333 203 336 q 172 317 184 326 q 149 301 155 307 q 136 286 139 292 q 133 280 133 283 q 134 277 133 278 q 139 276 137 276 l 146 276 q 152 274 148 276 q 155 272 153 273 q 159 270 157 271 q 164 264 162 268 q 163 259 165 262 l 151 242 l 153 243 q 174 252 163 247 q 197 260 183 256 q 220 267 214 267 q 243 268 231 269 q 254 265 250 267 q 258 260 256 264 q 260 256 258 259 q 269 251 263 254 q 271 248 272 249 q 267 248 271 248 q 249 248 258 250 q 231 245 238 247 q 222 243 228 245 q 214 241 216 241 q 201 237 207 239 q 174 228 180 230 q 161 222 170 227 q 149 217 153 218 q 142 214 146 216 q 134 210 137 212 q 128 207 132 209 q 121 203 123 204 l 115 195 q 112 191 113 194 q 109 187 110 189 q 99 168 103 178 q 91 147 92 149 l 89 133 q 94 116 89 122 q 107 109 99 111 q 130 108 119 106 q 153 114 140 110 q 177 124 158 115 q 187 129 180 125 q 197 134 194 132 q 221 148 207 138 q 237 160 227 152 q 253 171 248 168 q 287 195 276 187 q 298 204 291 199 q 308 211 306 209 l 309 212 q 338 238 322 229 q 372 250 356 248 q 380 247 376 250 l 382 250 l 387 255 q 407 313 395 288 q 439 366 421 340 q 445 371 441 369 q 451 374 449 374 q 457 374 454 376 q 462 370 460 374 q 461 352 465 366 q 451 324 458 341 q 433 288 445 310 q 410 249 429 281 l 410 248 q 405 220 406 228 q 404 192 404 211 q 404 177 404 182 q 407 161 406 168 q 420 172 415 167 q 428 179 422 174 q 435 186 433 184 q 450 201 440 191 q 465 216 460 211 q 465 218 465 217 q 465 221 465 220 q 464 237 464 227 q 467 254 464 247 q 479 267 472 264 q 494 264 487 270 q 500 254 498 261 q 498 241 500 249 q 492 227 496 235 q 484 215 488 220 q 489 203 487 207 q 492 189 491 198 q 492 167 494 180 q 488 147 488 150 q 503 160 495 152 q 518 176 509 165 q 532 192 528 187 q 542 203 540 201 l 549 210 q 551 214 549 212 q 553 217 553 216 q 562 228 556 221 q 568 236 568 235 q 576 245 571 239 q 582 252 581 251 q 591 262 589 260 q 598 264 595 264 q 615 260 610 266 q 618 250 621 255 q 615 242 618 250 q 610 229 612 235 q 604 215 608 224 q 598 201 600 205 q 589 174 596 196 q 587 156 585 161 q 605 168 593 159 q 625 183 615 175 q 635 192 628 186 q 646 201 642 198 q 650 205 647 203 q 655 210 653 208 l 656 211 q 669 243 659 227 q 690 267 675 255 q 717 281 701 276 q 728 281 721 283 q 740 275 736 278 q 749 267 742 274 q 753 258 753 262 q 751 248 753 254 q 734 221 745 237 q 717 209 722 205 q 718 226 715 210 q 724 247 721 241 q 725 249 724 248 q 726 252 725 250 q 727 254 726 253 l 729 262 q 708 248 718 258 q 690 222 696 235 q 680 193 683 208 q 680 162 677 176 q 709 168 694 162 q 735 180 722 172 q 760 197 749 189 q 781 215 768 203 q 786 217 784 217 m 336 189 q 363 222 354 210 q 347 210 352 215 q 330 195 335 201 q 317 178 321 184 q 310 159 312 168 q 336 189 325 174 m 618 288 q 626 309 618 302 q 648 319 633 315 q 654 318 651 319 q 655 312 656 317 q 652 304 654 306 q 638 295 648 300 q 625 286 629 290 q 621 283 623 283 q 618 288 618 285 m 330 81 q 331 81 330 81 q 332 81 331 81 q 332 79 332 80 q 333 78 332 78 q 334 75 334 77 q 333 71 334 73 q 331 68 332 70 q 328 66 330 68 q 323 66 326 66 l 323 66 q 314 67 317 66 l 314 75 l 317 75 q 317 74 317 75 l 317 73 q 318 71 318 72 q 323 70 319 70 q 327 71 326 70 q 328 75 328 73 q 328 76 328 75 l 326 77 q 324 78 326 78 l 323 79 l 321 79 q 319 80 319 79 l 318 81 q 317 81 317 81 q 316 83 316 81 q 315 84 316 84 q 315 87 315 85 q 315 90 315 90 q 317 93 316 91 q 320 95 319 94 q 324 96 321 96 q 333 94 330 96 l 333 87 l 330 87 q 330 87 330 87 l 330 88 q 329 91 329 90 q 324 92 328 92 l 323 91 q 322 91 323 91 q 321 91 321 91 q 321 90 321 90 q 320 89 320 90 l 320 87 l 320 86 q 322 85 321 85 q 324 84 323 85 l 326 83 l 327 83 q 329 82 328 83 q 330 81 330 81 m 378 96 l 404 96 l 404 89 l 401 89 q 400 90 400 89 l 400 91 l 394 91 l 394 70 l 395 70 l 395 70 l 396 69 q 397 68 397 69 l 397 66 l 385 66 l 385 68 q 386 69 385 69 l 387 70 l 387 70 l 388 70 l 388 91 l 382 91 l 382 90 q 381 89 382 89 l 378 89 l 378 96 m 471 96 l 479 96 l 479 93 q 478 92 479 92 l 477 92 l 476 92 l 476 78 q 475 73 476 74 q 473 69 475 71 q 469 66 471 67 q 464 66 468 66 q 458 66 460 66 q 455 69 457 67 q 452 73 453 71 q 452 78 452 74 l 452 92 l 450 92 l 450 92 q 448 93 448 92 l 448 96 l 460 96 l 460 93 q 459 92 460 92 l 458 92 l 457 92 l 457 78 q 457 76 457 77 l 458 75 q 459 73 458 74 l 461 71 l 464 71 l 467 71 l 469 73 q 470 75 470 74 l 471 76 q 471 78 471 77 l 471 92 l 469 92 l 469 92 q 467 93 467 92 l 467 96 l 471 96 m 549 92 q 553 87 552 89 q 554 81 554 83 q 553 75 554 79 q 549 70 552 73 q 545 67 548 68 q 538 66 541 66 l 525 66 l 525 68 q 526 69 525 69 l 526 70 l 528 70 l 528 92 l 526 92 l 526 92 q 525 93 525 92 l 525 96 l 538 96 q 545 94 541 96 q 549 92 548 94 m 545 73 q 546 74 545 73 q 547 76 547 75 q 548 81 548 77 q 547 85 548 83 q 545 88 546 87 q 543 90 544 90 q 538 91 541 91 l 533 91 l 533 71 l 538 71 q 543 71 541 71 q 545 73 544 72 m 599 96 l 611 96 l 611 93 q 610 92 611 92 l 609 92 l 608 92 l 608 70 l 609 70 l 610 70 l 610 69 q 611 68 611 69 l 611 66 l 599 66 l 599 68 q 600 69 599 69 l 600 70 l 601 70 l 602 70 l 602 92 l 601 92 l 600 92 q 599 93 599 92 l 599 96 m 682 92 q 685 87 684 90 q 686 81 686 83 q 685 75 686 79 q 682 70 684 72 q 677 66 680 67 q 671 66 675 66 q 665 66 667 66 q 661 70 663 67 q 657 75 658 73 q 656 81 656 79 q 657 87 656 83 q 661 92 658 89 q 665 95 663 94 q 671 96 667 96 q 677 95 675 96 q 682 92 680 94 m 680 76 l 680 81 l 680 85 q 678 88 679 87 q 675 90 677 89 q 671 91 673 91 q 667 90 669 91 q 664 88 665 89 q 663 87 663 87 q 663 86 663 86 q 663 85 663 85 q 662 81 662 83 q 663 76 662 77 l 664 73 q 667 71 665 73 q 671 70 670 70 q 675 71 672 70 q 678 73 677 73 q 680 76 680 75 z "},"3":{"ha":814,"x_min":26,"x_max":789,"o":"m 553 516 q 557 509 555 514 q 558 500 558 504 q 557 490 558 496 q 553 484 555 486 q 547 479 550 480 q 538 478 544 478 q 530 479 533 478 q 524 484 528 480 q 520 490 521 487 q 519 500 519 496 q 520 509 519 504 q 524 516 521 513 q 530 520 528 519 q 538 522 536 522 q 547 520 541 522 q 553 516 550 519 m 359 520 q 365 516 361 519 q 369 509 368 513 q 370 500 370 504 q 369 490 370 496 q 365 484 368 487 q 359 479 361 480 q 351 478 356 478 q 342 479 345 478 q 336 484 339 480 q 332 490 332 487 q 330 500 330 496 q 332 509 330 504 q 336 516 332 513 q 342 520 339 519 q 351 522 347 522 q 359 520 353 522 m 108 520 q 114 516 111 519 q 118 509 117 513 q 119 500 119 504 q 118 490 119 496 q 114 484 117 487 q 108 479 111 480 q 100 478 105 478 l 88 478 l 88 522 l 100 522 q 108 520 102 522 m 780 562 l 780 439 l 35 439 l 35 562 l 780 562 m 129 487 q 131 500 131 493 q 129 513 131 507 q 122 522 127 517 q 113 529 117 528 q 100 531 106 531 l 70 531 l 70 526 q 73 524 70 524 l 73 523 l 74 523 l 75 522 q 77 522 76 522 l 77 477 q 75 477 76 477 l 74 477 l 73 477 l 73 476 q 70 474 70 476 l 70 469 l 100 469 q 113 471 106 469 q 122 477 117 472 q 129 487 127 483 m 197 515 l 197 531 l 151 531 l 151 526 q 153 524 151 524 l 154 523 l 155 523 l 156 522 q 158 522 157 522 l 158 477 q 156 477 157 477 l 155 477 l 154 477 l 153 476 q 151 474 151 476 l 151 469 l 197 469 l 197 485 l 192 485 q 190 484 190 485 l 190 481 q 189 478 189 479 l 170 478 l 170 496 l 191 496 l 191 505 l 170 505 l 170 522 l 189 522 q 190 518 189 520 l 190 516 q 192 515 190 515 l 197 515 m 298 526 l 298 531 l 283 531 l 282 531 l 281 531 l 280 530 q 279 529 279 530 l 261 494 q 260 493 260 494 q 260 492 260 492 l 258 489 l 257 492 q 256 493 256 492 q 256 494 256 494 l 237 529 l 237 530 q 235 531 236 531 l 235 531 l 233 531 l 218 531 l 218 526 q 220 524 218 524 l 220 523 l 222 523 l 222 522 q 224 522 224 522 l 224 477 q 222 477 224 477 l 222 477 l 220 477 l 220 476 q 218 473 218 476 l 218 469 l 243 469 l 243 473 q 240 476 243 476 q 235 477 238 477 l 235 509 l 235 511 l 235 514 l 254 479 l 254 478 q 255 477 255 477 q 258 476 256 476 l 259 476 q 262 477 261 476 q 262 477 262 477 l 263 479 l 282 514 l 282 511 l 282 509 l 282 477 l 276 476 q 274 473 274 476 l 274 469 l 298 469 l 298 473 q 296 476 298 476 l 296 477 l 294 477 l 294 477 q 292 477 293 477 l 292 522 q 294 522 293 522 l 294 523 l 296 523 l 296 523 q 298 526 298 523 m 380 487 q 382 500 382 493 q 380 513 382 507 q 373 523 378 517 q 363 529 369 528 q 351 532 355 532 q 338 529 346 532 q 328 523 332 527 q 321 513 323 517 q 319 500 319 507 q 321 487 319 493 q 328 477 323 481 q 338 471 332 473 q 351 468 346 468 q 363 471 355 468 q 373 477 369 472 q 380 487 378 481 m 482 515 l 487 515 l 487 531 l 439 531 l 439 526 q 441 524 439 524 l 442 523 l 444 523 l 444 522 q 446 522 445 522 l 446 477 q 444 477 445 477 l 444 477 l 442 477 l 441 476 q 439 474 439 476 l 439 469 l 464 469 l 464 474 q 462 476 464 476 l 461 477 l 460 477 l 458 477 q 457 477 458 477 l 457 494 l 479 494 l 479 503 l 457 503 l 457 522 l 479 522 q 480 518 479 520 l 480 516 q 482 515 480 515 m 568 487 q 570 500 570 495 q 568 513 570 505 q 562 523 566 519 q 551 529 557 527 q 538 532 543 532 q 526 529 534 532 q 516 523 521 528 q 509 513 511 517 q 507 500 507 507 q 509 487 507 493 q 516 477 511 481 q 526 471 521 472 q 538 468 534 468 q 551 471 543 468 q 562 477 557 473 q 568 487 566 481 m 656 526 l 656 531 l 631 531 l 631 526 q 633 523 631 523 q 640 522 636 523 l 640 493 l 640 490 l 640 488 l 607 529 l 606 530 l 606 530 q 604 531 605 531 l 603 531 l 591 531 l 591 526 q 593 524 591 524 l 593 523 l 595 523 l 595 522 q 597 522 596 522 l 597 477 q 595 477 596 477 l 595 477 l 593 477 l 593 476 q 591 474 591 476 l 591 469 l 615 469 l 615 474 q 613 476 615 476 q 607 477 610 477 l 607 507 l 607 509 l 607 512 l 640 471 q 640 470 640 471 l 642 469 l 642 469 q 644 469 643 469 l 650 469 l 650 522 q 651 522 650 522 l 652 523 l 653 523 l 654 523 q 656 526 656 523 m 723 516 l 728 516 l 728 531 l 676 531 l 676 516 l 681 516 q 683 518 683 516 l 684 519 q 684 522 684 520 l 696 522 l 696 477 q 694 477 695 477 l 694 477 l 692 477 l 692 476 q 690 474 690 476 l 690 469 l 714 469 l 714 474 q 712 476 714 476 l 711 477 l 710 477 l 709 477 q 707 477 708 477 l 707 522 l 720 522 q 720 519 720 520 l 721 518 q 723 516 721 516 m 618 288 q 626 309 618 302 q 648 319 633 315 q 654 318 651 319 q 655 312 656 317 q 652 304 654 306 q 638 295 648 300 q 625 286 629 290 q 621 283 623 283 q 618 288 618 285 m 786 217 q 785 212 788 217 q 779 197 779 202 q 774 187 777 190 q 766 178 770 182 q 754 167 759 170 q 694 142 725 144 q 682 146 690 142 q 669 153 673 149 q 658 163 661 160 q 653 174 653 168 q 652 187 652 179 q 646 180 651 185 q 628 162 638 171 q 609 145 621 156 q 595 135 601 138 q 588 134 593 134 q 577 136 581 134 q 566 140 570 138 q 559 147 560 144 q 557 159 557 152 q 561 174 558 163 q 566 193 564 189 q 571 202 568 196 q 574 210 574 209 l 564 203 l 564 202 l 560 197 q 537 166 549 180 q 514 139 521 146 q 495 125 502 127 q 487 125 492 123 q 477 127 481 126 q 467 133 471 130 q 461 140 463 136 q 460 149 460 144 q 463 159 462 155 q 465 172 464 168 q 468 187 467 178 l 468 193 q 460 183 465 190 q 452 174 455 177 q 448 168 451 172 q 444 162 446 164 q 431 151 440 157 q 418 142 425 145 q 404 142 412 140 q 392 146 396 144 q 383 159 387 149 q 380 176 380 165 q 380 184 380 180 q 380 193 380 188 q 380 201 380 199 q 361 176 378 198 q 343 153 357 170 q 328 136 335 143 q 316 127 323 131 q 309 126 313 125 l 298 130 q 290 135 293 132 q 286 140 286 138 q 285 165 283 152 q 276 157 279 160 q 242 133 261 145 q 207 113 228 123 q 174 98 191 104 q 152 92 172 98 q 130 89 144 90 q 108 90 120 88 q 87 100 98 92 q 64 133 66 114 q 71 174 62 154 l 64 169 q 31 167 42 161 l 28 169 l 28 169 q 34 179 26 172 q 52 191 43 186 l 62 197 q 96 217 73 205 q 101 225 98 220 q 108 234 105 230 q 114 241 111 238 q 122 251 116 243 q 131 262 127 259 q 119 267 123 265 q 111 275 113 271 q 107 286 107 279 q 111 299 107 291 q 127 317 115 308 q 153 336 137 326 q 183 353 165 343 q 212 367 203 363 q 236 375 229 373 q 269 382 255 380 q 307 387 287 385 q 340 385 326 388 q 363 373 355 381 q 369 350 371 365 q 362 335 367 338 q 354 334 357 332 q 347 336 350 336 l 339 336 q 337 336 338 336 q 338 340 336 338 q 340 341 339 340 q 341 343 340 342 q 342 346 342 345 q 344 353 344 349 q 343 361 344 359 q 338 366 342 364 q 330 370 334 370 l 320 370 q 294 368 307 370 q 267 362 285 366 q 257 359 264 361 q 248 355 251 357 q 228 347 239 353 q 213 340 223 345 q 199 333 203 336 q 172 317 184 326 q 149 301 155 307 q 136 286 139 292 q 133 280 133 283 q 134 277 133 278 q 139 276 137 276 l 146 276 q 152 274 148 276 q 155 272 153 273 q 159 270 157 271 q 164 264 162 268 q 163 259 165 262 l 151 242 l 153 243 q 174 252 163 247 q 197 260 183 256 q 220 267 214 267 q 243 268 231 269 q 254 265 250 267 q 258 260 256 264 q 260 256 258 259 q 269 251 263 254 q 271 248 272 249 q 267 248 271 248 q 249 248 258 250 q 231 245 238 247 q 222 243 228 245 q 214 241 216 241 q 201 237 207 239 q 174 228 180 230 q 161 222 170 227 q 149 217 153 218 q 142 214 146 216 q 134 210 137 212 q 128 207 132 209 q 121 203 123 204 l 115 195 q 112 191 113 194 q 109 187 110 189 q 99 168 103 178 q 91 147 92 149 l 89 133 q 94 116 89 122 q 107 109 99 111 q 130 108 119 106 q 153 114 140 110 q 177 124 158 115 q 187 129 180 125 q 197 134 194 132 q 221 148 207 138 q 237 160 227 152 q 253 171 248 168 q 287 195 276 187 q 298 204 291 199 q 308 211 306 209 l 309 212 q 338 238 322 229 q 372 250 356 248 q 380 247 376 250 l 382 250 l 387 255 q 407 313 395 288 q 439 366 421 340 q 445 371 441 369 q 451 374 449 374 q 457 374 454 376 q 462 370 460 374 q 461 352 465 366 q 451 324 458 341 q 433 288 445 310 q 410 249 429 281 l 410 248 q 405 220 406 228 q 404 192 404 211 q 404 177 404 182 q 407 161 406 168 q 420 172 415 167 q 428 179 422 174 q 435 186 433 184 q 450 201 440 191 q 465 216 460 211 q 465 218 465 217 q 465 221 465 220 q 464 237 464 227 q 467 254 464 247 q 479 267 472 264 q 494 264 487 270 q 500 254 498 261 q 498 241 500 249 q 492 227 496 235 q 484 215 488 220 q 489 203 487 207 q 492 189 491 198 q 492 167 494 180 q 488 147 488 150 q 503 160 495 152 q 518 176 509 165 q 532 192 528 187 q 542 203 540 201 l 549 210 q 551 214 549 212 q 553 217 553 216 q 562 228 556 221 q 568 236 568 235 q 576 245 571 239 q 582 252 581 251 q 591 262 589 260 q 598 264 595 264 q 615 260 610 266 q 618 250 621 255 q 615 242 618 250 q 610 229 612 235 q 604 215 608 224 q 598 201 600 205 q 589 174 596 196 q 587 156 585 161 q 605 168 593 159 q 625 183 615 175 q 635 192 628 186 q 646 201 642 198 q 650 205 647 203 q 655 210 653 208 l 656 211 q 669 243 659 227 q 690 267 675 255 q 717 281 701 276 q 728 281 721 283 q 740 275 736 278 q 749 267 742 274 q 753 258 753 262 q 751 248 753 254 q 734 221 745 237 q 717 209 722 205 q 718 226 715 210 q 724 247 721 241 q 725 249 724 248 q 726 252 725 250 q 727 254 726 253 l 729 262 q 708 248 718 258 q 690 222 696 235 q 680 193 683 208 q 680 162 677 176 q 709 168 694 162 q 735 180 722 172 q 760 197 749 189 q 781 215 768 203 q 786 217 784 217 m 336 189 q 363 222 354 210 q 347 210 352 215 q 330 195 335 201 q 317 178 321 184 q 310 159 312 168 q 336 189 325 174 m 330 81 q 331 81 330 81 q 332 81 331 81 q 332 79 332 80 q 333 78 332 78 q 334 75 334 77 q 333 71 334 73 q 331 68 332 70 q 328 66 330 68 q 323 66 326 66 l 323 66 q 314 67 317 66 l 314 75 l 317 75 q 317 74 317 75 l 317 73 q 318 71 318 72 q 323 70 319 70 q 327 71 326 70 q 328 75 328 73 q 328 76 328 75 l 326 77 q 324 78 326 78 l 323 79 l 321 79 q 319 80 319 79 l 318 81 q 317 81 317 81 q 316 83 316 81 q 315 84 316 84 q 315 87 315 85 q 315 90 315 90 q 317 93 316 91 q 320 95 319 94 q 324 96 321 96 q 333 94 330 96 l 333 87 l 330 87 q 330 87 330 87 l 330 88 q 329 91 329 90 q 324 92 328 92 l 323 91 q 322 91 323 91 q 321 91 321 91 q 321 90 321 90 q 320 89 320 90 l 320 87 l 320 86 q 322 85 321 85 q 324 84 323 85 l 326 83 l 327 83 q 329 82 328 83 q 330 81 330 81 m 378 96 l 404 96 l 404 89 l 401 89 q 400 90 400 89 l 400 91 l 394 91 l 394 70 l 395 70 l 395 70 l 396 69 q 397 68 397 69 l 397 66 l 385 66 l 385 68 q 386 69 385 69 l 387 70 l 387 70 l 388 70 l 388 91 l 382 91 l 382 90 q 381 89 382 89 l 378 89 l 378 96 m 471 96 l 479 96 l 479 93 q 478 92 479 92 l 477 92 l 476 92 l 476 78 q 475 73 476 74 q 473 69 475 71 q 469 66 471 67 q 464 66 468 66 q 458 66 460 66 q 455 69 457 67 q 452 73 453 71 q 452 78 452 74 l 452 92 l 450 92 l 450 92 q 448 93 448 92 l 448 96 l 460 96 l 460 93 q 459 92 460 92 l 458 92 l 457 92 l 457 78 q 457 76 457 77 l 458 75 q 459 73 458 74 l 461 71 l 464 71 l 467 71 l 469 73 q 470 75 470 74 l 471 76 q 471 78 471 77 l 471 92 l 469 92 l 469 92 q 467 93 467 92 l 467 96 l 471 96 m 549 92 q 553 87 552 89 q 554 81 554 83 q 553 75 554 79 q 549 70 552 73 q 545 67 548 68 q 538 66 541 66 l 525 66 l 525 68 q 526 69 525 69 l 526 70 l 528 70 l 528 92 l 526 92 l 526 92 q 525 93 525 92 l 525 96 l 538 96 q 545 94 541 96 q 549 92 548 94 m 545 73 q 546 74 545 73 q 547 76 547 75 q 548 81 548 77 q 547 85 548 83 q 545 88 546 87 q 543 90 544 90 q 538 91 541 91 l 533 91 l 533 71 l 538 71 q 543 71 541 71 q 545 73 544 72 m 599 96 l 611 96 l 611 93 q 610 92 611 92 l 609 92 l 608 92 l 608 70 l 609 70 l 610 70 l 610 69 q 611 68 611 69 l 611 66 l 599 66 l 599 68 q 600 69 599 69 l 600 70 l 601 70 l 602 70 l 602 92 l 601 92 l 600 92 q 599 93 599 92 l 599 96 m 682 92 q 685 87 684 90 q 686 81 686 83 q 685 75 686 79 q 682 70 684 72 q 677 66 680 67 q 671 66 675 66 q 665 66 667 66 q 661 70 663 67 q 657 75 658 73 q 656 81 656 79 q 657 87 656 83 q 661 92 658 89 q 665 95 663 94 q 671 96 667 96 q 677 95 675 96 q 682 92 680 94 m 680 76 l 680 81 l 680 85 q 678 88 679 87 q 675 90 677 89 q 671 91 673 91 q 667 90 669 91 q 664 88 665 89 q 663 87 663 87 q 663 86 663 86 q 663 85 663 85 q 662 81 662 83 q 663 76 662 77 l 664 73 q 667 71 665 73 q 671 70 670 70 q 675 71 672 70 q 678 73 677 73 q 680 76 680 75 z "},"4":{"ha":814,"x_min":26,"x_max":789,"o":"m 108 520 q 114 516 111 519 q 118 509 117 513 q 119 500 119 504 q 118 490 119 496 q 114 484 117 487 q 108 479 111 480 q 100 478 105 478 l 88 478 l 88 522 l 100 522 q 108 520 102 522 m 553 516 q 557 509 555 514 q 558 500 558 504 q 557 490 558 496 q 553 484 555 486 q 547 479 550 480 q 538 478 544 478 q 530 479 533 478 q 524 484 528 480 q 520 490 521 487 q 519 500 519 496 q 520 509 519 504 q 524 516 521 513 q 530 520 528 519 q 538 522 536 522 q 547 520 541 522 q 553 516 550 519 m 359 520 q 365 516 361 519 q 369 509 368 513 q 370 500 370 504 q 369 490 370 496 q 365 484 368 487 q 359 479 361 480 q 351 478 356 478 q 342 479 345 478 q 336 484 339 480 q 332 490 332 487 q 330 500 330 496 q 332 509 330 504 q 336 516 332 513 q 342 520 339 519 q 351 522 347 522 q 359 520 353 522 m 780 562 l 780 439 l 35 439 l 35 562 l 780 562 m 129 487 q 131 500 131 493 q 129 513 131 507 q 122 522 127 517 q 113 529 117 528 q 100 531 106 531 l 70 531 l 70 526 q 73 524 70 524 l 73 523 l 74 523 l 75 522 q 77 522 76 522 l 77 477 q 75 477 76 477 l 74 477 l 73 477 l 73 476 q 70 474 70 476 l 70 469 l 100 469 q 113 471 106 469 q 122 477 117 472 q 129 487 127 483 m 197 515 l 197 531 l 151 531 l 151 526 q 153 524 151 524 l 154 523 l 155 523 l 156 522 q 158 522 157 522 l 158 477 q 156 477 157 477 l 155 477 l 154 477 l 153 476 q 151 474 151 476 l 151 469 l 197 469 l 197 485 l 192 485 q 190 484 190 485 l 190 481 q 189 478 189 479 l 170 478 l 170 496 l 191 496 l 191 505 l 170 505 l 170 522 l 189 522 q 190 518 189 520 l 190 516 q 192 515 190 515 l 197 515 m 298 526 l 298 531 l 283 531 l 282 531 l 281 531 l 280 530 q 279 529 279 530 l 261 494 q 260 493 260 494 q 260 492 260 492 l 258 489 l 257 492 q 256 493 256 492 q 256 494 256 494 l 237 529 l 237 530 q 235 531 236 531 l 235 531 l 233 531 l 218 531 l 218 526 q 220 524 218 524 l 220 523 l 222 523 l 222 522 q 224 522 224 522 l 224 477 q 222 477 224 477 l 222 477 l 220 477 l 220 476 q 218 473 218 476 l 218 469 l 243 469 l 243 473 q 240 476 243 476 q 235 477 238 477 l 235 509 l 235 511 l 235 514 l 254 479 l 254 478 q 255 477 255 477 q 258 476 256 476 l 259 476 q 262 477 261 476 q 262 477 262 477 l 263 479 l 282 514 l 282 511 l 282 509 l 282 477 l 276 476 q 274 473 274 476 l 274 469 l 298 469 l 298 473 q 296 476 298 476 l 296 477 l 294 477 l 294 477 q 292 477 293 477 l 292 522 q 294 522 293 522 l 294 523 l 296 523 l 296 523 q 298 526 298 523 m 380 487 q 382 500 382 493 q 380 513 382 507 q 373 523 378 517 q 363 529 369 528 q 351 532 355 532 q 338 529 346 532 q 328 523 332 527 q 321 513 323 517 q 319 500 319 507 q 321 487 319 493 q 328 477 323 481 q 338 471 332 473 q 351 468 346 468 q 363 471 355 468 q 373 477 369 472 q 380 487 378 481 m 482 515 l 487 515 l 487 531 l 439 531 l 439 526 q 441 524 439 524 l 442 523 l 444 523 l 444 522 q 446 522 445 522 l 446 477 q 444 477 445 477 l 444 477 l 442 477 l 441 476 q 439 474 439 476 l 439 469 l 464 469 l 464 474 q 462 476 464 476 l 461 477 l 460 477 l 458 477 q 457 477 458 477 l 457 494 l 479 494 l 479 503 l 457 503 l 457 522 l 479 522 q 480 518 479 520 l 480 516 q 482 515 480 515 m 568 487 q 570 500 570 495 q 568 513 570 505 q 562 523 566 519 q 551 529 557 527 q 538 532 543 532 q 526 529 534 532 q 516 523 521 528 q 509 513 511 517 q 507 500 507 507 q 509 487 507 493 q 516 477 511 481 q 526 471 521 472 q 538 468 534 468 q 551 471 543 468 q 562 477 557 473 q 568 487 566 481 m 656 526 l 656 531 l 631 531 l 631 526 q 633 523 631 523 q 640 522 636 523 l 640 493 l 640 490 l 640 488 l 607 529 l 606 530 l 606 530 q 604 531 605 531 l 603 531 l 591 531 l 591 526 q 593 524 591 524 l 593 523 l 595 523 l 595 522 q 597 522 596 522 l 597 477 q 595 477 596 477 l 595 477 l 593 477 l 593 476 q 591 474 591 476 l 591 469 l 615 469 l 615 474 q 613 476 615 476 q 607 477 610 477 l 607 507 l 607 509 l 607 512 l 640 471 q 640 470 640 471 l 642 469 l 642 469 q 644 469 643 469 l 650 469 l 650 522 q 651 522 650 522 l 652 523 l 653 523 l 654 523 q 656 526 656 523 m 723 516 l 728 516 l 728 531 l 676 531 l 676 516 l 681 516 q 683 518 683 516 l 684 519 q 684 522 684 520 l 696 522 l 696 477 q 694 477 695 477 l 694 477 l 692 477 l 692 476 q 690 474 690 476 l 690 469 l 714 469 l 714 474 q 712 476 714 476 l 711 477 l 710 477 l 709 477 q 707 477 708 477 l 707 522 l 720 522 q 720 519 720 520 l 721 518 q 723 516 721 516 m 786 217 q 785 212 788 217 q 779 197 779 202 q 774 187 777 190 q 766 178 770 182 q 754 167 759 170 q 694 142 725 144 q 682 146 690 142 q 669 153 673 149 q 658 163 661 160 q 653 174 653 168 q 652 187 652 179 q 646 180 651 185 q 628 162 638 171 q 609 145 621 156 q 595 135 601 138 q 588 134 593 134 q 577 136 581 134 q 566 140 570 138 q 559 147 560 144 q 557 159 557 152 q 561 174 558 163 q 566 193 564 189 q 571 202 568 196 q 574 210 574 209 l 564 203 l 564 202 l 560 197 q 537 166 549 180 q 514 139 521 146 q 495 125 502 127 q 487 125 492 123 q 477 127 481 126 q 467 133 471 130 q 461 140 463 136 q 460 149 460 144 q 463 159 462 155 q 465 172 464 168 q 468 187 467 178 l 468 193 q 460 183 465 190 q 452 174 455 177 q 448 168 451 172 q 444 162 446 164 q 431 151 440 157 q 418 142 425 145 q 404 142 412 140 q 392 146 396 144 q 383 159 387 149 q 380 176 380 165 q 380 184 380 180 q 380 193 380 188 q 380 201 380 199 q 361 176 378 198 q 343 153 357 170 q 328 136 335 143 q 316 127 323 131 q 309 126 313 125 l 298 130 q 290 135 293 132 q 286 140 286 138 q 285 165 283 152 q 276 157 279 160 q 242 133 261 145 q 207 113 228 123 q 174 98 191 104 q 152 92 172 98 q 130 89 144 90 q 108 90 120 88 q 87 100 98 92 q 64 133 66 114 q 71 174 62 154 l 64 169 q 31 167 42 161 l 28 169 l 28 169 q 34 179 26 172 q 52 191 43 186 l 62 197 q 96 217 73 205 q 101 225 98 220 q 108 234 105 230 q 114 241 111 238 q 122 251 116 243 q 131 262 127 259 q 119 267 123 265 q 111 275 113 271 q 107 286 107 279 q 111 299 107 291 q 127 317 115 308 q 153 336 137 326 q 183 353 165 343 q 212 367 203 363 q 236 375 229 373 q 269 382 255 380 q 307 387 287 385 q 340 385 326 388 q 363 373 355 381 q 369 350 371 365 q 362 335 367 338 q 354 334 357 332 q 347 336 350 336 l 339 336 q 337 336 338 336 q 338 340 336 338 q 340 341 339 340 q 341 343 340 342 q 342 346 342 345 q 344 353 344 349 q 343 361 344 359 q 338 366 342 364 q 330 370 334 370 l 320 370 q 294 368 307 370 q 267 362 285 366 q 257 359 264 361 q 248 355 251 357 q 228 347 239 353 q 213 340 223 345 q 199 333 203 336 q 172 317 184 326 q 149 301 155 307 q 136 286 139 292 q 133 280 133 283 q 134 277 133 278 q 139 276 137 276 l 146 276 q 152 274 148 276 q 155 272 153 273 q 159 270 157 271 q 164 264 162 268 q 163 259 165 262 l 151 242 l 153 243 q 174 252 163 247 q 197 260 183 256 q 220 267 214 267 q 243 268 231 269 q 254 265 250 267 q 258 260 256 264 q 260 256 258 259 q 269 251 263 254 q 271 248 272 249 q 267 248 271 248 q 249 248 258 250 q 231 245 238 247 q 222 243 228 245 q 214 241 216 241 q 201 237 207 239 q 174 228 180 230 q 161 222 170 227 q 149 217 153 218 q 142 214 146 216 q 134 210 137 212 q 128 207 132 209 q 121 203 123 204 l 115 195 q 112 191 113 194 q 109 187 110 189 q 99 168 103 178 q 91 147 92 149 l 89 133 q 94 116 89 122 q 107 109 99 111 q 130 108 119 106 q 153 114 140 110 q 177 124 158 115 q 187 129 180 125 q 197 134 194 132 q 221 148 207 138 q 237 160 227 152 q 253 171 248 168 q 287 195 276 187 q 298 204 291 199 q 308 211 306 209 l 309 212 q 338 238 322 229 q 372 250 356 248 q 380 247 376 250 l 382 250 l 387 255 q 407 313 395 288 q 439 366 421 340 q 445 371 441 369 q 451 374 449 374 q 457 374 454 376 q 462 370 460 374 q 461 352 465 366 q 451 324 458 341 q 433 288 445 310 q 410 249 429 281 l 410 248 q 405 220 406 228 q 404 192 404 211 q 404 177 404 182 q 407 161 406 168 q 420 172 415 167 q 428 179 422 174 q 435 186 433 184 q 450 201 440 191 q 465 216 460 211 q 465 218 465 217 q 465 221 465 220 q 464 237 464 227 q 467 254 464 247 q 479 267 472 264 q 494 264 487 270 q 500 254 498 261 q 498 241 500 249 q 492 227 496 235 q 484 215 488 220 q 489 203 487 207 q 492 189 491 198 q 492 167 494 180 q 488 147 488 150 q 503 160 495 152 q 518 176 509 165 q 532 192 528 187 q 542 203 540 201 l 549 210 q 551 214 549 212 q 553 217 553 216 q 562 228 556 221 q 568 236 568 235 q 576 245 571 239 q 582 252 581 251 q 591 262 589 260 q 598 264 595 264 q 615 260 610 266 q 618 250 621 255 q 615 242 618 250 q 610 229 612 235 q 604 215 608 224 q 598 201 600 205 q 589 174 596 196 q 587 156 585 161 q 605 168 593 159 q 625 183 615 175 q 635 192 628 186 q 646 201 642 198 q 650 205 647 203 q 655 210 653 208 l 656 211 q 669 243 659 227 q 690 267 675 255 q 717 281 701 276 q 728 281 721 283 q 740 275 736 278 q 749 267 742 274 q 753 258 753 262 q 751 248 753 254 q 734 221 745 237 q 717 209 722 205 q 718 226 715 210 q 724 247 721 241 q 725 249 724 248 q 726 252 725 250 q 727 254 726 253 l 729 262 q 708 248 718 258 q 690 222 696 235 q 680 193 683 208 q 680 162 677 176 q 709 168 694 162 q 735 180 722 172 q 760 197 749 189 q 781 215 768 203 q 786 217 784 217 m 336 189 q 363 222 354 210 q 347 210 352 215 q 330 195 335 201 q 317 178 321 184 q 310 159 312 168 q 336 189 325 174 m 618 288 q 626 309 618 302 q 648 319 633 315 q 654 318 651 319 q 655 312 656 317 q 652 304 654 306 q 638 295 648 300 q 625 286 629 290 q 621 283 623 283 q 618 288 618 285 m 330 81 q 331 81 330 81 q 332 81 331 81 q 332 79 332 80 q 333 78 332 78 q 334 75 334 77 q 333 71 334 73 q 331 68 332 70 q 328 66 330 68 q 323 66 326 66 l 323 66 q 314 67 317 66 l 314 75 l 317 75 q 317 74 317 75 l 317 73 q 318 71 318 72 q 323 70 319 70 q 327 71 326 70 q 328 75 328 73 q 328 76 328 75 l 326 77 q 324 78 326 78 l 323 79 l 321 79 q 319 80 319 79 l 318 81 q 317 81 317 81 q 316 83 316 81 q 315 84 316 84 q 315 87 315 85 q 315 90 315 90 q 317 93 316 91 q 320 95 319 94 q 324 96 321 96 q 333 94 330 96 l 333 87 l 330 87 q 330 87 330 87 l 330 88 q 329 91 329 90 q 324 92 328 92 l 323 91 q 322 91 323 91 q 321 91 321 91 q 321 90 321 90 q 320 89 320 90 l 320 87 l 320 86 q 322 85 321 85 q 324 84 323 85 l 326 83 l 327 83 q 329 82 328 83 q 330 81 330 81 m 378 96 l 404 96 l 404 89 l 401 89 q 400 90 400 89 l 400 91 l 394 91 l 394 70 l 395 70 l 395 70 l 396 69 q 397 68 397 69 l 397 66 l 385 66 l 385 68 q 386 69 385 69 l 387 70 l 387 70 l 388 70 l 388 91 l 382 91 l 382 90 q 381 89 382 89 l 378 89 l 378 96 m 471 96 l 479 96 l 479 93 q 478 92 479 92 l 477 92 l 476 92 l 476 78 q 475 73 476 74 q 473 69 475 71 q 469 66 471 67 q 464 66 468 66 q 458 66 460 66 q 455 69 457 67 q 452 73 453 71 q 452 78 452 74 l 452 92 l 450 92 l 450 92 q 448 93 448 92 l 448 96 l 460 96 l 460 93 q 459 92 460 92 l 458 92 l 457 92 l 457 78 q 457 76 457 77 l 458 75 q 459 73 458 74 l 461 71 l 464 71 l 467 71 l 469 73 q 470 75 470 74 l 471 76 q 471 78 471 77 l 471 92 l 469 92 l 469 92 q 467 93 467 92 l 467 96 l 471 96 m 549 92 q 553 87 552 89 q 554 81 554 83 q 553 75 554 79 q 549 70 552 73 q 545 67 548 68 q 538 66 541 66 l 525 66 l 525 68 q 526 69 525 69 l 526 70 l 528 70 l 528 92 l 526 92 l 526 92 q 525 93 525 92 l 525 96 l 538 96 q 545 94 541 96 q 549 92 548 94 m 545 73 q 546 74 545 73 q 547 76 547 75 q 548 81 548 77 q 547 85 548 83 q 545 88 546 87 q 543 90 544 90 q 538 91 541 91 l 533 91 l 533 71 l 538 71 q 543 71 541 71 q 545 73 544 72 m 599 96 l 611 96 l 611 93 q 610 92 611 92 l 609 92 l 608 92 l 608 70 l 609 70 l 610 70 l 610 69 q 611 68 611 69 l 611 66 l 599 66 l 599 68 q 600 69 599 69 l 600 70 l 601 70 l 602 70 l 602 92 l 601 92 l 600 92 q 599 93 599 92 l 599 96 m 682 92 q 685 87 684 90 q 686 81 686 83 q 685 75 686 79 q 682 70 684 72 q 677 66 680 67 q 671 66 675 66 q 665 66 667 66 q 661 70 663 67 q 657 75 658 73 q 656 81 656 79 q 657 87 656 83 q 661 92 658 89 q 665 95 663 94 q 671 96 667 96 q 677 95 675 96 q 682 92 680 94 m 680 76 l 680 81 l 680 85 q 678 88 679 87 q 675 90 677 89 q 671 91 673 91 q 667 90 669 91 q 664 88 665 89 q 663 87 663 87 q 663 86 663 86 q 663 85 663 85 q 662 81 662 83 q 663 76 662 77 l 664 73 q 667 71 665 73 q 671 70 670 70 q 675 71 672 70 q 678 73 677 73 q 680 76 680 75 z "},"5":{"ha":814,"x_min":26,"x_max":789,"o":"m 359 520 q 365 516 361 519 q 369 509 368 513 q 370 500 370 504 q 369 490 370 496 q 365 484 368 487 q 359 479 361 480 q 351 478 356 478 q 342 479 345 478 q 336 484 339 480 q 332 490 332 487 q 330 500 330 496 q 332 509 330 504 q 336 516 332 513 q 342 520 339 519 q 351 522 347 522 q 359 520 353 522 m 780 562 l 780 439 l 35 439 l 35 562 l 780 562 m 129 487 q 131 500 131 493 q 129 513 131 507 q 122 522 127 517 q 113 529 117 528 q 100 531 106 531 l 70 531 l 70 526 q 73 524 70 524 l 73 523 l 74 523 l 75 522 q 77 522 76 522 l 77 477 q 75 477 76 477 l 74 477 l 73 477 l 73 476 q 70 474 70 476 l 70 469 l 100 469 q 113 471 106 469 q 122 477 117 472 q 129 487 127 483 m 197 515 l 197 531 l 151 531 l 151 526 q 153 524 151 524 l 154 523 l 155 523 l 156 522 q 158 522 157 522 l 158 477 q 156 477 157 477 l 155 477 l 154 477 l 153 476 q 151 474 151 476 l 151 469 l 197 469 l 197 485 l 192 485 q 190 484 190 485 l 190 481 q 189 478 189 479 l 170 478 l 170 496 l 191 496 l 191 505 l 170 505 l 170 522 l 189 522 q 190 518 189 520 l 190 516 q 192 515 190 515 l 197 515 m 298 526 l 298 531 l 283 531 l 282 531 l 281 531 l 280 530 q 279 529 279 530 l 261 494 q 260 493 260 494 q 260 492 260 492 l 258 489 l 257 492 q 256 493 256 492 q 256 494 256 494 l 237 529 l 237 530 q 235 531 236 531 l 235 531 l 233 531 l 218 531 l 218 526 q 220 524 218 524 l 220 523 l 222 523 l 222 522 q 224 522 224 522 l 224 477 q 222 477 224 477 l 222 477 l 220 477 l 220 476 q 218 473 218 476 l 218 469 l 243 469 l 243 473 q 240 476 243 476 q 235 477 238 477 l 235 509 l 235 511 l 235 514 l 254 479 l 254 478 q 255 477 255 477 q 258 476 256 476 l 259 476 q 262 477 261 476 q 262 477 262 477 l 263 479 l 282 514 l 282 511 l 282 509 l 282 477 l 276 476 q 274 473 274 476 l 274 469 l 298 469 l 298 473 q 296 476 298 476 l 296 477 l 294 477 l 294 477 q 292 477 293 477 l 292 522 q 294 522 293 522 l 294 523 l 296 523 l 296 523 q 298 526 298 523 m 380 487 q 382 500 382 493 q 380 513 382 507 q 373 523 378 517 q 363 529 369 528 q 351 532 355 532 q 338 529 346 532 q 328 523 332 527 q 321 513 323 517 q 319 500 319 507 q 321 487 319 493 q 328 477 323 481 q 338 471 332 473 q 351 468 346 468 q 363 471 355 468 q 373 477 369 472 q 380 487 378 481 m 482 515 l 487 515 l 487 531 l 439 531 l 439 526 q 441 524 439 524 l 442 523 l 444 523 l 444 522 q 446 522 445 522 l 446 477 q 444 477 445 477 l 444 477 l 442 477 l 441 476 q 439 474 439 476 l 439 469 l 464 469 l 464 474 q 462 476 464 476 l 461 477 l 460 477 l 458 477 q 457 477 458 477 l 457 494 l 479 494 l 479 503 l 457 503 l 457 522 l 479 522 q 480 518 479 520 l 480 516 q 482 515 480 515 m 568 487 q 570 500 570 495 q 568 513 570 505 q 562 523 566 519 q 551 529 557 527 q 538 532 543 532 q 526 529 534 532 q 516 523 521 528 q 509 513 511 517 q 507 500 507 507 q 509 487 507 493 q 516 477 511 481 q 526 471 521 472 q 538 468 534 468 q 551 471 543 468 q 562 477 557 473 q 568 487 566 481 m 656 526 l 656 531 l 631 531 l 631 526 q 633 523 631 523 q 640 522 636 523 l 640 493 l 640 490 l 640 488 l 607 529 l 606 530 l 606 530 q 604 531 605 531 l 603 531 l 591 531 l 591 526 q 593 524 591 524 l 593 523 l 595 523 l 595 522 q 597 522 596 522 l 597 477 q 595 477 596 477 l 595 477 l 593 477 l 593 476 q 591 474 591 476 l 591 469 l 615 469 l 615 474 q 613 476 615 476 q 607 477 610 477 l 607 507 l 607 509 l 607 512 l 640 471 q 640 470 640 471 l 642 469 l 642 469 q 644 469 643 469 l 650 469 l 650 522 q 651 522 650 522 l 652 523 l 653 523 l 654 523 q 656 526 656 523 m 723 516 l 728 516 l 728 531 l 676 531 l 676 516 l 681 516 q 683 518 683 516 l 684 519 q 684 522 684 520 l 696 522 l 696 477 q 694 477 695 477 l 694 477 l 692 477 l 692 476 q 690 474 690 476 l 690 469 l 714 469 l 714 474 q 712 476 714 476 l 711 477 l 710 477 l 709 477 q 707 477 708 477 l 707 522 l 720 522 q 720 519 720 520 l 721 518 q 723 516 721 516 m 108 520 q 114 516 111 519 q 118 509 117 513 q 119 500 119 504 q 118 490 119 496 q 114 484 117 487 q 108 479 111 480 q 100 478 105 478 l 88 478 l 88 522 l 100 522 q 108 520 102 522 m 553 516 q 557 509 555 514 q 558 500 558 504 q 557 490 558 496 q 553 484 555 486 q 547 479 550 480 q 538 478 544 478 q 530 479 533 478 q 524 484 528 480 q 520 490 521 487 q 519 500 519 496 q 520 509 519 504 q 524 516 521 513 q 530 520 528 519 q 538 522 536 522 q 547 520 541 522 q 553 516 550 519 m 786 217 q 785 212 788 217 q 779 197 779 202 q 774 187 777 190 q 766 178 770 182 q 754 167 759 170 q 694 142 725 144 q 682 146 690 142 q 669 153 673 149 q 658 163 661 160 q 653 174 653 168 q 652 187 652 179 q 646 180 651 185 q 628 162 638 171 q 609 145 621 156 q 595 135 601 138 q 588 134 593 134 q 577 136 581 134 q 566 140 570 138 q 559 147 560 144 q 557 159 557 152 q 561 174 558 163 q 566 193 564 189 q 571 202 568 196 q 574 210 574 209 l 564 203 l 564 202 l 560 197 q 537 166 549 180 q 514 139 521 146 q 495 125 502 127 q 487 125 492 123 q 477 127 481 126 q 467 133 471 130 q 461 140 463 136 q 460 149 460 144 q 463 159 462 155 q 465 172 464 168 q 468 187 467 178 l 468 193 q 460 183 465 190 q 452 174 455 177 q 448 168 451 172 q 444 162 446 164 q 431 151 440 157 q 418 142 425 145 q 404 142 412 140 q 392 146 396 144 q 383 159 387 149 q 380 176 380 165 q 380 184 380 180 q 380 193 380 188 q 380 201 380 199 q 361 176 378 198 q 343 153 357 170 q 328 136 335 143 q 316 127 323 131 q 309 126 313 125 l 298 130 q 290 135 293 132 q 286 140 286 138 q 285 165 283 152 q 276 157 279 160 q 242 133 261 145 q 207 113 228 123 q 174 98 191 104 q 152 92 172 98 q 130 89 144 90 q 108 90 120 88 q 87 100 98 92 q 64 133 66 114 q 71 174 62 154 l 64 169 q 31 167 42 161 l 28 169 l 28 169 q 34 179 26 172 q 52 191 43 186 l 62 197 q 96 217 73 205 q 101 225 98 220 q 108 234 105 230 q 114 241 111 238 q 122 251 116 243 q 131 262 127 259 q 119 267 123 265 q 111 275 113 271 q 107 286 107 279 q 111 299 107 291 q 127 317 115 308 q 153 336 137 326 q 183 353 165 343 q 212 367 203 363 q 236 375 229 373 q 269 382 255 380 q 307 387 287 385 q 340 385 326 388 q 363 373 355 381 q 369 350 371 365 q 362 335 367 338 q 354 334 357 332 q 347 336 350 336 l 339 336 q 337 336 338 336 q 338 340 336 338 q 340 341 339 340 q 341 343 340 342 q 342 346 342 345 q 344 353 344 349 q 343 361 344 359 q 338 366 342 364 q 330 370 334 370 l 320 370 q 294 368 307 370 q 267 362 285 366 q 257 359 264 361 q 248 355 251 357 q 228 347 239 353 q 213 340 223 345 q 199 333 203 336 q 172 317 184 326 q 149 301 155 307 q 136 286 139 292 q 133 280 133 283 q 134 277 133 278 q 139 276 137 276 l 146 276 q 152 274 148 276 q 155 272 153 273 q 159 270 157 271 q 164 264 162 268 q 163 259 165 262 l 151 242 l 153 243 q 174 252 163 247 q 197 260 183 256 q 220 267 214 267 q 243 268 231 269 q 254 265 250 267 q 258 260 256 264 q 260 256 258 259 q 269 251 263 254 q 271 248 272 249 q 267 248 271 248 q 249 248 258 250 q 231 245 238 247 q 222 243 228 245 q 214 241 216 241 q 201 237 207 239 q 174 228 180 230 q 161 222 170 227 q 149 217 153 218 q 142 214 146 216 q 134 210 137 212 q 128 207 132 209 q 121 203 123 204 l 115 195 q 112 191 113 194 q 109 187 110 189 q 99 168 103 178 q 91 147 92 149 l 89 133 q 94 116 89 122 q 107 109 99 111 q 130 108 119 106 q 153 114 140 110 q 177 124 158 115 q 187 129 180 125 q 197 134 194 132 q 221 148 207 138 q 237 160 227 152 q 253 171 248 168 q 287 195 276 187 q 298 204 291 199 q 308 211 306 209 l 309 212 q 338 238 322 229 q 372 250 356 248 q 380 247 376 250 l 382 250 l 387 255 q 407 313 395 288 q 439 366 421 340 q 445 371 441 369 q 451 374 449 374 q 457 374 454 376 q 462 370 460 374 q 461 352 465 366 q 451 324 458 341 q 433 288 445 310 q 410 249 429 281 l 410 248 q 405 220 406 228 q 404 192 404 211 q 404 177 404 182 q 407 161 406 168 q 420 172 415 167 q 428 179 422 174 q 435 186 433 184 q 450 201 440 191 q 465 216 460 211 q 465 218 465 217 q 465 221 465 220 q 464 237 464 227 q 467 254 464 247 q 479 267 472 264 q 494 264 487 270 q 500 254 498 261 q 498 241 500 249 q 492 227 496 235 q 484 215 488 220 q 489 203 487 207 q 492 189 491 198 q 492 167 494 180 q 488 147 488 150 q 503 160 495 152 q 518 176 509 165 q 532 192 528 187 q 542 203 540 201 l 549 210 q 551 214 549 212 q 553 217 553 216 q 562 228 556 221 q 568 236 568 235 q 576 245 571 239 q 582 252 581 251 q 591 262 589 260 q 598 264 595 264 q 615 260 610 266 q 618 250 621 255 q 615 242 618 250 q 610 229 612 235 q 604 215 608 224 q 598 201 600 205 q 589 174 596 196 q 587 156 585 161 q 605 168 593 159 q 625 183 615 175 q 635 192 628 186 q 646 201 642 198 q 650 205 647 203 q 655 210 653 208 l 656 211 q 669 243 659 227 q 690 267 675 255 q 717 281 701 276 q 728 281 721 283 q 740 275 736 278 q 749 267 742 274 q 753 258 753 262 q 751 248 753 254 q 734 221 745 237 q 717 209 722 205 q 718 226 715 210 q 724 247 721 241 q 725 249 724 248 q 726 252 725 250 q 727 254 726 253 l 729 262 q 708 248 718 258 q 690 222 696 235 q 680 193 683 208 q 680 162 677 176 q 709 168 694 162 q 735 180 722 172 q 760 197 749 189 q 781 215 768 203 q 786 217 784 217 m 336 189 q 363 222 354 210 q 347 210 352 215 q 330 195 335 201 q 317 178 321 184 q 310 159 312 168 q 336 189 325 174 m 618 288 q 626 309 618 302 q 648 319 633 315 q 654 318 651 319 q 655 312 656 317 q 652 304 654 306 q 638 295 648 300 q 625 286 629 290 q 621 283 623 283 q 618 288 618 285 m 330 81 q 331 81 330 81 q 332 81 331 81 q 332 79 332 80 q 333 78 332 78 q 334 75 334 77 q 333 71 334 73 q 331 68 332 70 q 328 66 330 68 q 323 66 326 66 l 323 66 q 314 67 317 66 l 314 75 l 317 75 q 317 74 317 75 l 317 73 q 318 71 318 72 q 323 70 319 70 q 327 71 326 70 q 328 75 328 73 q 328 76 328 75 l 326 77 q 324 78 326 78 l 323 79 l 321 79 q 319 80 319 79 l 318 81 q 317 81 317 81 q 316 83 316 81 q 315 84 316 84 q 315 87 315 85 q 315 90 315 90 q 317 93 316 91 q 320 95 319 94 q 324 96 321 96 q 333 94 330 96 l 333 87 l 330 87 q 330 87 330 87 l 330 88 q 329 91 329 90 q 324 92 328 92 l 323 91 q 322 91 323 91 q 321 91 321 91 q 321 90 321 90 q 320 89 320 90 l 320 87 l 320 86 q 322 85 321 85 q 324 84 323 85 l 326 83 l 327 83 q 329 82 328 83 q 330 81 330 81 m 378 96 l 404 96 l 404 89 l 401 89 q 400 90 400 89 l 400 91 l 394 91 l 394 70 l 395 70 l 395 70 l 396 69 q 397 68 397 69 l 397 66 l 385 66 l 385 68 q 386 69 385 69 l 387 70 l 387 70 l 388 70 l 388 91 l 382 91 l 382 90 q 381 89 382 89 l 378 89 l 378 96 m 471 96 l 479 96 l 479 93 q 478 92 479 92 l 477 92 l 476 92 l 476 78 q 475 73 476 74 q 473 69 475 71 q 469 66 471 67 q 464 66 468 66 q 458 66 460 66 q 455 69 457 67 q 452 73 453 71 q 452 78 452 74 l 452 92 l 450 92 l 450 92 q 448 93 448 92 l 448 96 l 460 96 l 460 93 q 459 92 460 92 l 458 92 l 457 92 l 457 78 q 457 76 457 77 l 458 75 q 459 73 458 74 l 461 71 l 464 71 l 467 71 l 469 73 q 470 75 470 74 l 471 76 q 471 78 471 77 l 471 92 l 469 92 l 469 92 q 467 93 467 92 l 467 96 l 471 96 m 549 92 q 553 87 552 89 q 554 81 554 83 q 553 75 554 79 q 549 70 552 73 q 545 67 548 68 q 538 66 541 66 l 525 66 l 525 68 q 526 69 525 69 l 526 70 l 528 70 l 528 92 l 526 92 l 526 92 q 525 93 525 92 l 525 96 l 538 96 q 545 94 541 96 q 549 92 548 94 m 545 73 q 546 74 545 73 q 547 76 547 75 q 548 81 548 77 q 547 85 548 83 q 545 88 546 87 q 543 90 544 90 q 538 91 541 91 l 533 91 l 533 71 l 538 71 q 543 71 541 71 q 545 73 544 72 m 599 96 l 611 96 l 611 93 q 610 92 611 92 l 609 92 l 608 92 l 608 70 l 609 70 l 610 70 l 610 69 q 611 68 611 69 l 611 66 l 599 66 l 599 68 q 600 69 599 69 l 600 70 l 601 70 l 602 70 l 602 92 l 601 92 l 600 92 q 599 93 599 92 l 599 96 m 682 92 q 685 87 684 90 q 686 81 686 83 q 685 75 686 79 q 682 70 684 72 q 677 66 680 67 q 671 66 675 66 q 665 66 667 66 q 661 70 663 67 q 657 75 658 73 q 656 81 656 79 q 657 87 656 83 q 661 92 658 89 q 665 95 663 94 q 671 96 667 96 q 677 95 675 96 q 682 92 680 94 m 680 76 l 680 81 l 680 85 q 678 88 679 87 q 675 90 677 89 q 671 91 673 91 q 667 90 669 91 q 664 88 665 89 q 663 87 663 87 q 663 86 663 86 q 663 85 663 85 q 662 81 662 83 q 663 76 662 77 l 664 73 q 667 71 665 73 q 671 70 670 70 q 675 71 672 70 q 678 73 677 73 q 680 76 680 75 z "},"6":{"ha":814,"x_min":26,"x_max":789,"o":"m 359 520 q 365 516 361 519 q 369 509 368 513 q 370 500 370 504 q 369 490 370 496 q 365 484 368 487 q 359 479 361 480 q 351 478 356 478 q 342 479 345 478 q 336 484 339 480 q 332 490 332 487 q 330 500 330 496 q 332 509 330 504 q 336 516 332 513 q 342 520 339 519 q 351 522 347 522 q 359 520 353 522 m 108 520 q 114 516 111 519 q 118 509 117 513 q 119 500 119 504 q 118 490 119 496 q 114 484 117 487 q 108 479 111 480 q 100 478 105 478 l 88 478 l 88 522 l 100 522 q 108 520 102 522 m 553 516 q 557 509 555 514 q 558 500 558 504 q 557 490 558 496 q 553 484 555 486 q 547 479 550 480 q 538 478 544 478 q 530 479 533 478 q 524 484 528 480 q 520 490 521 487 q 519 500 519 496 q 520 509 519 504 q 524 516 521 513 q 530 520 528 519 q 538 522 536 522 q 547 520 541 522 q 553 516 550 519 m 780 562 l 780 439 l 35 439 l 35 562 l 780 562 m 129 487 q 131 500 131 493 q 129 513 131 507 q 122 522 127 517 q 113 529 117 528 q 100 531 106 531 l 70 531 l 70 526 q 73 524 70 524 l 73 523 l 74 523 l 75 522 q 77 522 76 522 l 77 477 q 75 477 76 477 l 74 477 l 73 477 l 73 476 q 70 474 70 476 l 70 469 l 100 469 q 113 471 106 469 q 122 477 117 472 q 129 487 127 483 m 197 515 l 197 531 l 151 531 l 151 526 q 153 524 151 524 l 154 523 l 155 523 l 156 522 q 158 522 157 522 l 158 477 q 156 477 157 477 l 155 477 l 154 477 l 153 476 q 151 474 151 476 l 151 469 l 197 469 l 197 485 l 192 485 q 190 484 190 485 l 190 481 q 189 478 189 479 l 170 478 l 170 496 l 191 496 l 191 505 l 170 505 l 170 522 l 189 522 q 190 518 189 520 l 190 516 q 192 515 190 515 l 197 515 m 298 526 l 298 531 l 283 531 l 282 531 l 281 531 l 280 530 q 279 529 279 530 l 261 494 q 260 493 260 494 q 260 492 260 492 l 258 489 l 257 492 q 256 493 256 492 q 256 494 256 494 l 237 529 l 237 530 q 235 531 236 531 l 235 531 l 233 531 l 218 531 l 218 526 q 220 524 218 524 l 220 523 l 222 523 l 222 522 q 224 522 224 522 l 224 477 q 222 477 224 477 l 222 477 l 220 477 l 220 476 q 218 473 218 476 l 218 469 l 243 469 l 243 473 q 240 476 243 476 q 235 477 238 477 l 235 509 l 235 511 l 235 514 l 254 479 l 254 478 q 255 477 255 477 q 258 476 256 476 l 259 476 q 262 477 261 476 q 262 477 262 477 l 263 479 l 282 514 l 282 511 l 282 509 l 282 477 l 276 476 q 274 473 274 476 l 274 469 l 298 469 l 298 473 q 296 476 298 476 l 296 477 l 294 477 l 294 477 q 292 477 293 477 l 292 522 q 294 522 293 522 l 294 523 l 296 523 l 296 523 q 298 526 298 523 m 380 487 q 382 500 382 493 q 380 513 382 507 q 373 523 378 517 q 363 529 369 528 q 351 532 355 532 q 338 529 346 532 q 328 523 332 527 q 321 513 323 517 q 319 500 319 507 q 321 487 319 493 q 328 477 323 481 q 338 471 332 473 q 351 468 346 468 q 363 471 355 468 q 373 477 369 472 q 380 487 378 481 m 482 515 l 487 515 l 487 531 l 439 531 l 439 526 q 441 524 439 524 l 442 523 l 444 523 l 444 522 q 446 522 445 522 l 446 477 q 444 477 445 477 l 444 477 l 442 477 l 441 476 q 439 474 439 476 l 439 469 l 464 469 l 464 474 q 462 476 464 476 l 461 477 l 460 477 l 458 477 q 457 477 458 477 l 457 494 l 479 494 l 479 503 l 457 503 l 457 522 l 479 522 q 480 518 479 520 l 480 516 q 482 515 480 515 m 568 487 q 570 500 570 495 q 568 513 570 505 q 562 523 566 519 q 551 529 557 527 q 538 532 543 532 q 526 529 534 532 q 516 523 521 528 q 509 513 511 517 q 507 500 507 507 q 509 487 507 493 q 516 477 511 481 q 526 471 521 472 q 538 468 534 468 q 551 471 543 468 q 562 477 557 473 q 568 487 566 481 m 656 526 l 656 531 l 631 531 l 631 526 q 633 523 631 523 q 640 522 636 523 l 640 493 l 640 490 l 640 488 l 607 529 l 606 530 l 606 530 q 604 531 605 531 l 603 531 l 591 531 l 591 526 q 593 524 591 524 l 593 523 l 595 523 l 595 522 q 597 522 596 522 l 597 477 q 595 477 596 477 l 595 477 l 593 477 l 593 476 q 591 474 591 476 l 591 469 l 615 469 l 615 474 q 613 476 615 476 q 607 477 610 477 l 607 507 l 607 509 l 607 512 l 640 471 q 640 470 640 471 l 642 469 l 642 469 q 644 469 643 469 l 650 469 l 650 522 q 651 522 650 522 l 652 523 l 653 523 l 654 523 q 656 526 656 523 m 723 516 l 728 516 l 728 531 l 676 531 l 676 516 l 681 516 q 683 518 683 516 l 684 519 q 684 522 684 520 l 696 522 l 696 477 q 694 477 695 477 l 694 477 l 692 477 l 692 476 q 690 474 690 476 l 690 469 l 714 469 l 714 474 q 712 476 714 476 l 711 477 l 710 477 l 709 477 q 707 477 708 477 l 707 522 l 720 522 q 720 519 720 520 l 721 518 q 723 516 721 516 m 618 288 q 626 309 618 302 q 648 319 633 315 q 654 318 651 319 q 655 312 656 317 q 652 304 654 306 q 638 295 648 300 q 625 286 629 290 q 621 283 623 283 q 618 288 618 285 m 786 217 q 785 212 788 217 q 779 197 779 202 q 774 187 777 190 q 766 178 770 182 q 754 167 759 170 q 694 142 725 144 q 682 146 690 142 q 669 153 673 149 q 658 163 661 160 q 653 174 653 168 q 652 187 652 179 q 646 180 651 185 q 628 162 638 171 q 609 145 621 156 q 595 135 601 138 q 588 134 593 134 q 577 136 581 134 q 566 140 570 138 q 559 147 560 144 q 557 159 557 152 q 561 174 558 163 q 566 193 564 189 q 571 202 568 196 q 574 210 574 209 l 564 203 l 564 202 l 560 197 q 537 166 549 180 q 514 139 521 146 q 495 125 502 127 q 487 125 492 123 q 477 127 481 126 q 467 133 471 130 q 461 140 463 136 q 460 149 460 144 q 463 159 462 155 q 465 172 464 168 q 468 187 467 178 l 468 193 q 460 183 465 190 q 452 174 455 177 q 448 168 451 172 q 444 162 446 164 q 431 151 440 157 q 418 142 425 145 q 404 142 412 140 q 392 146 396 144 q 383 159 387 149 q 380 176 380 165 q 380 184 380 180 q 380 193 380 188 q 380 201 380 199 q 361 176 378 198 q 343 153 357 170 q 328 136 335 143 q 316 127 323 131 q 309 126 313 125 l 298 130 q 290 135 293 132 q 286 140 286 138 q 285 165 283 152 q 276 157 279 160 q 242 133 261 145 q 207 113 228 123 q 174 98 191 104 q 152 92 172 98 q 130 89 144 90 q 108 90 120 88 q 87 100 98 92 q 64 133 66 114 q 71 174 62 154 l 64 169 q 31 167 42 161 l 28 169 l 28 169 q 34 179 26 172 q 52 191 43 186 l 62 197 q 96 217 73 205 q 101 225 98 220 q 108 234 105 230 q 114 241 111 238 q 122 251 116 243 q 131 262 127 259 q 119 267 123 265 q 111 275 113 271 q 107 286 107 279 q 111 299 107 291 q 127 317 115 308 q 153 336 137 326 q 183 353 165 343 q 212 367 203 363 q 236 375 229 373 q 269 382 255 380 q 307 387 287 385 q 340 385 326 388 q 363 373 355 381 q 369 350 371 365 q 362 335 367 338 q 354 334 357 332 q 347 336 350 336 l 339 336 q 337 336 338 336 q 338 340 336 338 q 340 341 339 340 q 341 343 340 342 q 342 346 342 345 q 344 353 344 349 q 343 361 344 359 q 338 366 342 364 q 330 370 334 370 l 320 370 q 294 368 307 370 q 267 362 285 366 q 257 359 264 361 q 248 355 251 357 q 228 347 239 353 q 213 340 223 345 q 199 333 203 336 q 172 317 184 326 q 149 301 155 307 q 136 286 139 292 q 133 280 133 283 q 134 277 133 278 q 139 276 137 276 l 146 276 q 152 274 148 276 q 155 272 153 273 q 159 270 157 271 q 164 264 162 268 q 163 259 165 262 l 151 242 l 153 243 q 174 252 163 247 q 197 260 183 256 q 220 267 214 267 q 243 268 231 269 q 254 265 250 267 q 258 260 256 264 q 260 256 258 259 q 269 251 263 254 q 271 248 272 249 q 267 248 271 248 q 249 248 258 250 q 231 245 238 247 q 222 243 228 245 q 214 241 216 241 q 201 237 207 239 q 174 228 180 230 q 161 222 170 227 q 149 217 153 218 q 142 214 146 216 q 134 210 137 212 q 128 207 132 209 q 121 203 123 204 l 115 195 q 112 191 113 194 q 109 187 110 189 q 99 168 103 178 q 91 147 92 149 l 89 133 q 94 116 89 122 q 107 109 99 111 q 130 108 119 106 q 153 114 140 110 q 177 124 158 115 q 187 129 180 125 q 197 134 194 132 q 221 148 207 138 q 237 160 227 152 q 253 171 248 168 q 287 195 276 187 q 298 204 291 199 q 308 211 306 209 l 309 212 q 338 238 322 229 q 372 250 356 248 q 380 247 376 250 l 382 250 l 387 255 q 407 313 395 288 q 439 366 421 340 q 445 371 441 369 q 451 374 449 374 q 457 374 454 376 q 462 370 460 374 q 461 352 465 366 q 451 324 458 341 q 433 288 445 310 q 410 249 429 281 l 410 248 q 405 220 406 228 q 404 192 404 211 q 404 177 404 182 q 407 161 406 168 q 420 172 415 167 q 428 179 422 174 q 435 186 433 184 q 450 201 440 191 q 465 216 460 211 q 465 218 465 217 q 465 221 465 220 q 464 237 464 227 q 467 254 464 247 q 479 267 472 264 q 494 264 487 270 q 500 254 498 261 q 498 241 500 249 q 492 227 496 235 q 484 215 488 220 q 489 203 487 207 q 492 189 491 198 q 492 167 494 180 q 488 147 488 150 q 503 160 495 152 q 518 176 509 165 q 532 192 528 187 q 542 203 540 201 l 549 210 q 551 214 549 212 q 553 217 553 216 q 562 228 556 221 q 568 236 568 235 q 576 245 571 239 q 582 252 581 251 q 591 262 589 260 q 598 264 595 264 q 615 260 610 266 q 618 250 621 255 q 615 242 618 250 q 610 229 612 235 q 604 215 608 224 q 598 201 600 205 q 589 174 596 196 q 587 156 585 161 q 605 168 593 159 q 625 183 615 175 q 635 192 628 186 q 646 201 642 198 q 650 205 647 203 q 655 210 653 208 l 656 211 q 669 243 659 227 q 690 267 675 255 q 717 281 701 276 q 728 281 721 283 q 740 275 736 278 q 749 267 742 274 q 753 258 753 262 q 751 248 753 254 q 734 221 745 237 q 717 209 722 205 q 718 226 715 210 q 724 247 721 241 q 725 249 724 248 q 726 252 725 250 q 727 254 726 253 l 729 262 q 708 248 718 258 q 690 222 696 235 q 680 193 683 208 q 680 162 677 176 q 709 168 694 162 q 735 180 722 172 q 760 197 749 189 q 781 215 768 203 q 786 217 784 217 m 336 189 q 363 222 354 210 q 347 210 352 215 q 330 195 335 201 q 317 178 321 184 q 310 159 312 168 q 336 189 325 174 m 330 81 q 331 81 330 81 q 332 81 331 81 q 332 79 332 80 q 333 78 332 78 q 334 75 334 77 q 333 71 334 73 q 331 68 332 70 q 328 66 330 68 q 323 66 326 66 l 323 66 q 314 67 317 66 l 314 75 l 317 75 q 317 74 317 75 l 317 73 q 318 71 318 72 q 323 70 319 70 q 327 71 326 70 q 328 75 328 73 q 328 76 328 75 l 326 77 q 324 78 326 78 l 323 79 l 321 79 q 319 80 319 79 l 318 81 q 317 81 317 81 q 316 83 316 81 q 315 84 316 84 q 315 87 315 85 q 315 90 315 90 q 317 93 316 91 q 320 95 319 94 q 324 96 321 96 q 333 94 330 96 l 333 87 l 330 87 q 330 87 330 87 l 330 88 q 329 91 329 90 q 324 92 328 92 l 323 91 q 322 91 323 91 q 321 91 321 91 q 321 90 321 90 q 320 89 320 90 l 320 87 l 320 86 q 322 85 321 85 q 324 84 323 85 l 326 83 l 327 83 q 329 82 328 83 q 330 81 330 81 m 378 96 l 404 96 l 404 89 l 401 89 q 400 90 400 89 l 400 91 l 394 91 l 394 70 l 395 70 l 395 70 l 396 69 q 397 68 397 69 l 397 66 l 385 66 l 385 68 q 386 69 385 69 l 387 70 l 387 70 l 388 70 l 388 91 l 382 91 l 382 90 q 381 89 382 89 l 378 89 l 378 96 m 471 96 l 479 96 l 479 93 q 478 92 479 92 l 477 92 l 476 92 l 476 78 q 475 73 476 74 q 473 69 475 71 q 469 66 471 67 q 464 66 468 66 q 458 66 460 66 q 455 69 457 67 q 452 73 453 71 q 452 78 452 74 l 452 92 l 450 92 l 450 92 q 448 93 448 92 l 448 96 l 460 96 l 460 93 q 459 92 460 92 l 458 92 l 457 92 l 457 78 q 457 76 457 77 l 458 75 q 459 73 458 74 l 461 71 l 464 71 l 467 71 l 469 73 q 470 75 470 74 l 471 76 q 471 78 471 77 l 471 92 l 469 92 l 469 92 q 467 93 467 92 l 467 96 l 471 96 m 549 92 q 553 87 552 89 q 554 81 554 83 q 553 75 554 79 q 549 70 552 73 q 545 67 548 68 q 538 66 541 66 l 525 66 l 525 68 q 526 69 525 69 l 526 70 l 528 70 l 528 92 l 526 92 l 526 92 q 525 93 525 92 l 525 96 l 538 96 q 545 94 541 96 q 549 92 548 94 m 545 73 q 546 74 545 73 q 547 76 547 75 q 548 81 548 77 q 547 85 548 83 q 545 88 546 87 q 543 90 544 90 q 538 91 541 91 l 533 91 l 533 71 l 538 71 q 543 71 541 71 q 545 73 544 72 m 599 96 l 611 96 l 611 93 q 610 92 611 92 l 609 92 l 608 92 l 608 70 l 609 70 l 610 70 l 610 69 q 611 68 611 69 l 611 66 l 599 66 l 599 68 q 600 69 599 69 l 600 70 l 601 70 l 602 70 l 602 92 l 601 92 l 600 92 q 599 93 599 92 l 599 96 m 682 92 q 685 87 684 90 q 686 81 686 83 q 685 75 686 79 q 682 70 684 72 q 677 66 680 67 q 671 66 675 66 q 665 66 667 66 q 661 70 663 67 q 657 75 658 73 q 656 81 656 79 q 657 87 656 83 q 661 92 658 89 q 665 95 663 94 q 671 96 667 96 q 677 95 675 96 q 682 92 680 94 m 680 76 l 680 81 l 680 85 q 678 88 679 87 q 675 90 677 89 q 671 91 673 91 q 667 90 669 91 q 664 88 665 89 q 663 87 663 87 q 663 86 663 86 q 663 85 663 85 q 662 81 662 83 q 663 76 662 77 l 664 73 q 667 71 665 73 q 671 70 670 70 q 675 71 672 70 q 678 73 677 73 q 680 76 680 75 z "},"7":{"ha":814,"x_min":26,"x_max":789,"o":"m 108 520 q 114 516 111 519 q 118 509 117 513 q 119 500 119 504 q 118 490 119 496 q 114 484 117 487 q 108 479 111 480 q 100 478 105 478 l 88 478 l 88 522 l 100 522 q 108 520 102 522 m 553 516 q 557 509 555 514 q 558 500 558 504 q 557 490 558 496 q 553 484 555 486 q 547 479 550 480 q 538 478 544 478 q 530 479 533 478 q 524 484 528 480 q 520 490 521 487 q 519 500 519 496 q 520 509 519 504 q 524 516 521 513 q 530 520 528 519 q 538 522 536 522 q 547 520 541 522 q 553 516 550 519 m 359 520 q 365 516 361 519 q 369 509 368 513 q 370 500 370 504 q 369 490 370 496 q 365 484 368 487 q 359 479 361 480 q 351 478 356 478 q 342 479 345 478 q 336 484 339 480 q 332 490 332 487 q 330 500 330 496 q 332 509 330 504 q 336 516 332 513 q 342 520 339 519 q 351 522 347 522 q 359 520 353 522 m 780 562 l 780 439 l 35 439 l 35 562 l 780 562 m 129 487 q 131 500 131 493 q 129 513 131 507 q 122 522 127 517 q 113 529 117 528 q 100 531 106 531 l 70 531 l 70 526 q 73 524 70 524 l 73 523 l 74 523 l 75 522 q 77 522 76 522 l 77 477 q 75 477 76 477 l 74 477 l 73 477 l 73 476 q 70 474 70 476 l 70 469 l 100 469 q 113 471 106 469 q 122 477 117 472 q 129 487 127 483 m 197 515 l 197 531 l 151 531 l 151 526 q 153 524 151 524 l 154 523 l 155 523 l 156 522 q 158 522 157 522 l 158 477 q 156 477 157 477 l 155 477 l 154 477 l 153 476 q 151 474 151 476 l 151 469 l 197 469 l 197 485 l 192 485 q 190 484 190 485 l 190 481 q 189 478 189 479 l 170 478 l 170 496 l 191 496 l 191 505 l 170 505 l 170 522 l 189 522 q 190 518 189 520 l 190 516 q 192 515 190 515 l 197 515 m 298 526 l 298 531 l 283 531 l 282 531 l 281 531 l 280 530 q 279 529 279 530 l 261 494 q 260 493 260 494 q 260 492 260 492 l 258 489 l 257 492 q 256 493 256 492 q 256 494 256 494 l 237 529 l 237 530 q 235 531 236 531 l 235 531 l 233 531 l 218 531 l 218 526 q 220 524 218 524 l 220 523 l 222 523 l 222 522 q 224 522 224 522 l 224 477 q 222 477 224 477 l 222 477 l 220 477 l 220 476 q 218 473 218 476 l 218 469 l 243 469 l 243 473 q 240 476 243 476 q 235 477 238 477 l 235 509 l 235 511 l 235 514 l 254 479 l 254 478 q 255 477 255 477 q 258 476 256 476 l 259 476 q 262 477 261 476 q 262 477 262 477 l 263 479 l 282 514 l 282 511 l 282 509 l 282 477 l 276 476 q 274 473 274 476 l 274 469 l 298 469 l 298 473 q 296 476 298 476 l 296 477 l 294 477 l 294 477 q 292 477 293 477 l 292 522 q 294 522 293 522 l 294 523 l 296 523 l 296 523 q 298 526 298 523 m 380 487 q 382 500 382 493 q 380 513 382 507 q 373 523 378 517 q 363 529 369 528 q 351 532 355 532 q 338 529 346 532 q 328 523 332 527 q 321 513 323 517 q 319 500 319 507 q 321 487 319 493 q 328 477 323 481 q 338 471 332 473 q 351 468 346 468 q 363 471 355 468 q 373 477 369 472 q 380 487 378 481 m 482 515 l 487 515 l 487 531 l 439 531 l 439 526 q 441 524 439 524 l 442 523 l 444 523 l 444 522 q 446 522 445 522 l 446 477 q 444 477 445 477 l 444 477 l 442 477 l 441 476 q 439 474 439 476 l 439 469 l 464 469 l 464 474 q 462 476 464 476 l 461 477 l 460 477 l 458 477 q 457 477 458 477 l 457 494 l 479 494 l 479 503 l 457 503 l 457 522 l 479 522 q 480 518 479 520 l 480 516 q 482 515 480 515 m 568 487 q 570 500 570 495 q 568 513 570 505 q 562 523 566 519 q 551 529 557 527 q 538 532 543 532 q 526 529 534 532 q 516 523 521 528 q 509 513 511 517 q 507 500 507 507 q 509 487 507 493 q 516 477 511 481 q 526 471 521 472 q 538 468 534 468 q 551 471 543 468 q 562 477 557 473 q 568 487 566 481 m 656 526 l 656 531 l 631 531 l 631 526 q 633 523 631 523 q 640 522 636 523 l 640 493 l 640 490 l 640 488 l 607 529 l 606 530 l 606 530 q 604 531 605 531 l 603 531 l 591 531 l 591 526 q 593 524 591 524 l 593 523 l 595 523 l 595 522 q 597 522 596 522 l 597 477 q 595 477 596 477 l 595 477 l 593 477 l 593 476 q 591 474 591 476 l 591 469 l 615 469 l 615 474 q 613 476 615 476 q 607 477 610 477 l 607 507 l 607 509 l 607 512 l 640 471 q 640 470 640 471 l 642 469 l 642 469 q 644 469 643 469 l 650 469 l 650 522 q 651 522 650 522 l 652 523 l 653 523 l 654 523 q 656 526 656 523 m 723 516 l 728 516 l 728 531 l 676 531 l 676 516 l 681 516 q 683 518 683 516 l 684 519 q 684 522 684 520 l 696 522 l 696 477 q 694 477 695 477 l 694 477 l 692 477 l 692 476 q 690 474 690 476 l 690 469 l 714 469 l 714 474 q 712 476 714 476 l 711 477 l 710 477 l 709 477 q 707 477 708 477 l 707 522 l 720 522 q 720 519 720 520 l 721 518 q 723 516 721 516 m 618 288 q 626 309 618 302 q 648 319 633 315 q 654 318 651 319 q 655 312 656 317 q 652 304 654 306 q 638 295 648 300 q 625 286 629 290 q 621 283 623 283 q 618 288 618 285 m 786 217 q 785 212 788 217 q 779 197 779 202 q 774 187 777 190 q 766 178 770 182 q 754 167 759 170 q 694 142 725 144 q 682 146 690 142 q 669 153 673 149 q 658 163 661 160 q 653 174 653 168 q 652 187 652 179 q 646 180 651 185 q 628 162 638 171 q 609 145 621 156 q 595 135 601 138 q 588 134 593 134 q 577 136 581 134 q 566 140 570 138 q 559 147 560 144 q 557 159 557 152 q 561 174 558 163 q 566 193 564 189 q 571 202 568 196 q 574 210 574 209 l 564 203 l 564 202 l 560 197 q 537 166 549 180 q 514 139 521 146 q 495 125 502 127 q 487 125 492 123 q 477 127 481 126 q 467 133 471 130 q 461 140 463 136 q 460 149 460 144 q 463 159 462 155 q 465 172 464 168 q 468 187 467 178 l 468 193 q 460 183 465 190 q 452 174 455 177 q 448 168 451 172 q 444 162 446 164 q 431 151 440 157 q 418 142 425 145 q 404 142 412 140 q 392 146 396 144 q 383 159 387 149 q 380 176 380 165 q 380 184 380 180 q 380 193 380 188 q 380 201 380 199 q 361 176 378 198 q 343 153 357 170 q 328 136 335 143 q 316 127 323 131 q 309 126 313 125 l 298 130 q 290 135 293 132 q 286 140 286 138 q 285 165 283 152 q 276 157 279 160 q 242 133 261 145 q 207 113 228 123 q 174 98 191 104 q 152 92 172 98 q 130 89 144 90 q 108 90 120 88 q 87 100 98 92 q 64 133 66 114 q 71 174 62 154 l 64 169 q 31 167 42 161 l 28 169 l 28 169 q 34 179 26 172 q 52 191 43 186 l 62 197 q 96 217 73 205 q 101 225 98 220 q 108 234 105 230 q 114 241 111 238 q 122 251 116 243 q 131 262 127 259 q 119 267 123 265 q 111 275 113 271 q 107 286 107 279 q 111 299 107 291 q 127 317 115 308 q 153 336 137 326 q 183 353 165 343 q 212 367 203 363 q 236 375 229 373 q 269 382 255 380 q 307 387 287 385 q 340 385 326 388 q 363 373 355 381 q 369 350 371 365 q 362 335 367 338 q 354 334 357 332 q 347 336 350 336 l 339 336 q 337 336 338 336 q 338 340 336 338 q 340 341 339 340 q 341 343 340 342 q 342 346 342 345 q 344 353 344 349 q 343 361 344 359 q 338 366 342 364 q 330 370 334 370 l 320 370 q 294 368 307 370 q 267 362 285 366 q 257 359 264 361 q 248 355 251 357 q 228 347 239 353 q 213 340 223 345 q 199 333 203 336 q 172 317 184 326 q 149 301 155 307 q 136 286 139 292 q 133 280 133 283 q 134 277 133 278 q 139 276 137 276 l 146 276 q 152 274 148 276 q 155 272 153 273 q 159 270 157 271 q 164 264 162 268 q 163 259 165 262 l 151 242 l 153 243 q 174 252 163 247 q 197 260 183 256 q 220 267 214 267 q 243 268 231 269 q 254 265 250 267 q 258 260 256 264 q 260 256 258 259 q 269 251 263 254 q 271 248 272 249 q 267 248 271 248 q 249 248 258 250 q 231 245 238 247 q 222 243 228 245 q 214 241 216 241 q 201 237 207 239 q 174 228 180 230 q 161 222 170 227 q 149 217 153 218 q 142 214 146 216 q 134 210 137 212 q 128 207 132 209 q 121 203 123 204 l 115 195 q 112 191 113 194 q 109 187 110 189 q 99 168 103 178 q 91 147 92 149 l 89 133 q 94 116 89 122 q 107 109 99 111 q 130 108 119 106 q 153 114 140 110 q 177 124 158 115 q 187 129 180 125 q 197 134 194 132 q 221 148 207 138 q 237 160 227 152 q 253 171 248 168 q 287 195 276 187 q 298 204 291 199 q 308 211 306 209 l 309 212 q 338 238 322 229 q 372 250 356 248 q 380 247 376 250 l 382 250 l 387 255 q 407 313 395 288 q 439 366 421 340 q 445 371 441 369 q 451 374 449 374 q 457 374 454 376 q 462 370 460 374 q 461 352 465 366 q 451 324 458 341 q 433 288 445 310 q 410 249 429 281 l 410 248 q 405 220 406 228 q 404 192 404 211 q 404 177 404 182 q 407 161 406 168 q 420 172 415 167 q 428 179 422 174 q 435 186 433 184 q 450 201 440 191 q 465 216 460 211 q 465 218 465 217 q 465 221 465 220 q 464 237 464 227 q 467 254 464 247 q 479 267 472 264 q 494 264 487 270 q 500 254 498 261 q 498 241 500 249 q 492 227 496 235 q 484 215 488 220 q 489 203 487 207 q 492 189 491 198 q 492 167 494 180 q 488 147 488 150 q 503 160 495 152 q 518 176 509 165 q 532 192 528 187 q 542 203 540 201 l 549 210 q 551 214 549 212 q 553 217 553 216 q 562 228 556 221 q 568 236 568 235 q 576 245 571 239 q 582 252 581 251 q 591 262 589 260 q 598 264 595 264 q 615 260 610 266 q 618 250 621 255 q 615 242 618 250 q 610 229 612 235 q 604 215 608 224 q 598 201 600 205 q 589 174 596 196 q 587 156 585 161 q 605 168 593 159 q 625 183 615 175 q 635 192 628 186 q 646 201 642 198 q 650 205 647 203 q 655 210 653 208 l 656 211 q 669 243 659 227 q 690 267 675 255 q 717 281 701 276 q 728 281 721 283 q 740 275 736 278 q 749 267 742 274 q 753 258 753 262 q 751 248 753 254 q 734 221 745 237 q 717 209 722 205 q 718 226 715 210 q 724 247 721 241 q 725 249 724 248 q 726 252 725 250 q 727 254 726 253 l 729 262 q 708 248 718 258 q 690 222 696 235 q 680 193 683 208 q 680 162 677 176 q 709 168 694 162 q 735 180 722 172 q 760 197 749 189 q 781 215 768 203 q 786 217 784 217 m 336 189 q 363 222 354 210 q 347 210 352 215 q 330 195 335 201 q 317 178 321 184 q 310 159 312 168 q 336 189 325 174 m 330 81 q 331 81 330 81 q 332 81 331 81 q 332 79 332 80 q 333 78 332 78 q 334 75 334 77 q 333 71 334 73 q 331 68 332 70 q 328 66 330 68 q 323 66 326 66 l 323 66 q 314 67 317 66 l 314 75 l 317 75 q 317 74 317 75 l 317 73 q 318 71 318 72 q 323 70 319 70 q 327 71 326 70 q 328 75 328 73 q 328 76 328 75 l 326 77 q 324 78 326 78 l 323 79 l 321 79 q 319 80 319 79 l 318 81 q 317 81 317 81 q 316 83 316 81 q 315 84 316 84 q 315 87 315 85 q 315 90 315 90 q 317 93 316 91 q 320 95 319 94 q 324 96 321 96 q 333 94 330 96 l 333 87 l 330 87 q 330 87 330 87 l 330 88 q 329 91 329 90 q 324 92 328 92 l 323 91 q 322 91 323 91 q 321 91 321 91 q 321 90 321 90 q 320 89 320 90 l 320 87 l 320 86 q 322 85 321 85 q 324 84 323 85 l 326 83 l 327 83 q 329 82 328 83 q 330 81 330 81 m 378 96 l 404 96 l 404 89 l 401 89 q 400 90 400 89 l 400 91 l 394 91 l 394 70 l 395 70 l 395 70 l 396 69 q 397 68 397 69 l 397 66 l 385 66 l 385 68 q 386 69 385 69 l 387 70 l 387 70 l 388 70 l 388 91 l 382 91 l 382 90 q 381 89 382 89 l 378 89 l 378 96 m 471 96 l 479 96 l 479 93 q 478 92 479 92 l 477 92 l 476 92 l 476 78 q 475 73 476 74 q 473 69 475 71 q 469 66 471 67 q 464 66 468 66 q 458 66 460 66 q 455 69 457 67 q 452 73 453 71 q 452 78 452 74 l 452 92 l 450 92 l 450 92 q 448 93 448 92 l 448 96 l 460 96 l 460 93 q 459 92 460 92 l 458 92 l 457 92 l 457 78 q 457 76 457 77 l 458 75 q 459 73 458 74 l 461 71 l 464 71 l 467 71 l 469 73 q 470 75 470 74 l 471 76 q 471 78 471 77 l 471 92 l 469 92 l 469 92 q 467 93 467 92 l 467 96 l 471 96 m 549 92 q 553 87 552 89 q 554 81 554 83 q 553 75 554 79 q 549 70 552 73 q 545 67 548 68 q 538 66 541 66 l 525 66 l 525 68 q 526 69 525 69 l 526 70 l 528 70 l 528 92 l 526 92 l 526 92 q 525 93 525 92 l 525 96 l 538 96 q 545 94 541 96 q 549 92 548 94 m 545 73 q 546 74 545 73 q 547 76 547 75 q 548 81 548 77 q 547 85 548 83 q 545 88 546 87 q 543 90 544 90 q 538 91 541 91 l 533 91 l 533 71 l 538 71 q 543 71 541 71 q 545 73 544 72 m 599 96 l 611 96 l 611 93 q 610 92 611 92 l 609 92 l 608 92 l 608 70 l 609 70 l 610 70 l 610 69 q 611 68 611 69 l 611 66 l 599 66 l 599 68 q 600 69 599 69 l 600 70 l 601 70 l 602 70 l 602 92 l 601 92 l 600 92 q 599 93 599 92 l 599 96 m 682 92 q 685 87 684 90 q 686 81 686 83 q 685 75 686 79 q 682 70 684 72 q 677 66 680 67 q 671 66 675 66 q 665 66 667 66 q 661 70 663 67 q 657 75 658 73 q 656 81 656 79 q 657 87 656 83 q 661 92 658 89 q 665 95 663 94 q 671 96 667 96 q 677 95 675 96 q 682 92 680 94 m 680 76 l 680 81 l 680 85 q 678 88 679 87 q 675 90 677 89 q 671 91 673 91 q 667 90 669 91 q 664 88 665 89 q 663 87 663 87 q 663 86 663 86 q 663 85 663 85 q 662 81 662 83 q 663 76 662 77 l 664 73 q 667 71 665 73 q 671 70 670 70 q 675 71 672 70 q 678 73 677 73 q 680 76 680 75 z "},"8":{"ha":814,"x_min":26,"x_max":789,"o":"m 553 516 q 557 509 555 514 q 558 500 558 504 q 557 490 558 496 q 553 484 555 486 q 547 479 550 480 q 538 478 544 478 q 530 479 533 478 q 524 484 528 480 q 520 490 521 487 q 519 500 519 496 q 520 509 519 504 q 524 516 521 513 q 530 520 528 519 q 538 522 536 522 q 547 520 541 522 q 553 516 550 519 m 359 520 q 365 516 361 519 q 369 509 368 513 q 370 500 370 504 q 369 490 370 496 q 365 484 368 487 q 359 479 361 480 q 351 478 356 478 q 342 479 345 478 q 336 484 339 480 q 332 490 332 487 q 330 500 330 496 q 332 509 330 504 q 336 516 332 513 q 342 520 339 519 q 351 522 347 522 q 359 520 353 522 m 108 520 q 114 516 111 519 q 118 509 117 513 q 119 500 119 504 q 118 490 119 496 q 114 484 117 487 q 108 479 111 480 q 100 478 105 478 l 88 478 l 88 522 l 100 522 q 108 520 102 522 m 780 562 l 780 439 l 35 439 l 35 562 l 780 562 m 129 487 q 131 500 131 493 q 129 513 131 507 q 122 522 127 517 q 113 529 117 528 q 100 531 106 531 l 70 531 l 70 526 q 73 524 70 524 l 73 523 l 74 523 l 75 522 q 77 522 76 522 l 77 477 q 75 477 76 477 l 74 477 l 73 477 l 73 476 q 70 474 70 476 l 70 469 l 100 469 q 113 471 106 469 q 122 477 117 472 q 129 487 127 483 m 197 515 l 197 531 l 151 531 l 151 526 q 153 524 151 524 l 154 523 l 155 523 l 156 522 q 158 522 157 522 l 158 477 q 156 477 157 477 l 155 477 l 154 477 l 153 476 q 151 474 151 476 l 151 469 l 197 469 l 197 485 l 192 485 q 190 484 190 485 l 190 481 q 189 478 189 479 l 170 478 l 170 496 l 191 496 l 191 505 l 170 505 l 170 522 l 189 522 q 190 518 189 520 l 190 516 q 192 515 190 515 l 197 515 m 298 526 l 298 531 l 283 531 l 282 531 l 281 531 l 280 530 q 279 529 279 530 l 261 494 q 260 493 260 494 q 260 492 260 492 l 258 489 l 257 492 q 256 493 256 492 q 256 494 256 494 l 237 529 l 237 530 q 235 531 236 531 l 235 531 l 233 531 l 218 531 l 218 526 q 220 524 218 524 l 220 523 l 222 523 l 222 522 q 224 522 224 522 l 224 477 q 222 477 224 477 l 222 477 l 220 477 l 220 476 q 218 473 218 476 l 218 469 l 243 469 l 243 473 q 240 476 243 476 q 235 477 238 477 l 235 509 l 235 511 l 235 514 l 254 479 l 254 478 q 255 477 255 477 q 258 476 256 476 l 259 476 q 262 477 261 476 q 262 477 262 477 l 263 479 l 282 514 l 282 511 l 282 509 l 282 477 l 276 476 q 274 473 274 476 l 274 469 l 298 469 l 298 473 q 296 476 298 476 l 296 477 l 294 477 l 294 477 q 292 477 293 477 l 292 522 q 294 522 293 522 l 294 523 l 296 523 l 296 523 q 298 526 298 523 m 380 487 q 382 500 382 493 q 380 513 382 507 q 373 523 378 517 q 363 529 369 528 q 351 532 355 532 q 338 529 346 532 q 328 523 332 527 q 321 513 323 517 q 319 500 319 507 q 321 487 319 493 q 328 477 323 481 q 338 471 332 473 q 351 468 346 468 q 363 471 355 468 q 373 477 369 472 q 380 487 378 481 m 482 515 l 487 515 l 487 531 l 439 531 l 439 526 q 441 524 439 524 l 442 523 l 444 523 l 444 522 q 446 522 445 522 l 446 477 q 444 477 445 477 l 444 477 l 442 477 l 441 476 q 439 474 439 476 l 439 469 l 464 469 l 464 474 q 462 476 464 476 l 461 477 l 460 477 l 458 477 q 457 477 458 477 l 457 494 l 479 494 l 479 503 l 457 503 l 457 522 l 479 522 q 480 518 479 520 l 480 516 q 482 515 480 515 m 568 487 q 570 500 570 495 q 568 513 570 505 q 562 523 566 519 q 551 529 557 527 q 538 532 543 532 q 526 529 534 532 q 516 523 521 528 q 509 513 511 517 q 507 500 507 507 q 509 487 507 493 q 516 477 511 481 q 526 471 521 472 q 538 468 534 468 q 551 471 543 468 q 562 477 557 473 q 568 487 566 481 m 656 526 l 656 531 l 631 531 l 631 526 q 633 523 631 523 q 640 522 636 523 l 640 493 l 640 490 l 640 488 l 607 529 l 606 530 l 606 530 q 604 531 605 531 l 603 531 l 591 531 l 591 526 q 593 524 591 524 l 593 523 l 595 523 l 595 522 q 597 522 596 522 l 597 477 q 595 477 596 477 l 595 477 l 593 477 l 593 476 q 591 474 591 476 l 591 469 l 615 469 l 615 474 q 613 476 615 476 q 607 477 610 477 l 607 507 l 607 509 l 607 512 l 640 471 q 640 470 640 471 l 642 469 l 642 469 q 644 469 643 469 l 650 469 l 650 522 q 651 522 650 522 l 652 523 l 653 523 l 654 523 q 656 526 656 523 m 723 516 l 728 516 l 728 531 l 676 531 l 676 516 l 681 516 q 683 518 683 516 l 684 519 q 684 522 684 520 l 696 522 l 696 477 q 694 477 695 477 l 694 477 l 692 477 l 692 476 q 690 474 690 476 l 690 469 l 714 469 l 714 474 q 712 476 714 476 l 711 477 l 710 477 l 709 477 q 707 477 708 477 l 707 522 l 720 522 q 720 519 720 520 l 721 518 q 723 516 721 516 m 786 217 q 785 212 788 217 q 779 197 779 202 q 774 187 777 190 q 766 178 770 182 q 754 167 759 170 q 694 142 725 144 q 682 146 690 142 q 669 153 673 149 q 658 163 661 160 q 653 174 653 168 q 652 187 652 179 q 646 180 651 185 q 628 162 638 171 q 609 145 621 156 q 595 135 601 138 q 588 134 593 134 q 577 136 581 134 q 566 140 570 138 q 559 147 560 144 q 557 159 557 152 q 561 174 558 163 q 566 193 564 189 q 571 202 568 196 q 574 210 574 209 l 564 203 l 564 202 l 560 197 q 537 166 549 180 q 514 139 521 146 q 495 125 502 127 q 487 125 492 123 q 477 127 481 126 q 467 133 471 130 q 461 140 463 136 q 460 149 460 144 q 463 159 462 155 q 465 172 464 168 q 468 187 467 178 l 468 193 q 460 183 465 190 q 452 174 455 177 q 448 168 451 172 q 444 162 446 164 q 431 151 440 157 q 418 142 425 145 q 404 142 412 140 q 392 146 396 144 q 383 159 387 149 q 380 176 380 165 q 380 184 380 180 q 380 193 380 188 q 380 201 380 199 q 361 176 378 198 q 343 153 357 170 q 328 136 335 143 q 316 127 323 131 q 309 126 313 125 l 298 130 q 290 135 293 132 q 286 140 286 138 q 285 165 283 152 q 276 157 279 160 q 242 133 261 145 q 207 113 228 123 q 174 98 191 104 q 152 92 172 98 q 130 89 144 90 q 108 90 120 88 q 87 100 98 92 q 64 133 66 114 q 71 174 62 154 l 64 169 q 31 167 42 161 l 28 169 l 28 169 q 34 179 26 172 q 52 191 43 186 l 62 197 q 96 217 73 205 q 101 225 98 220 q 108 234 105 230 q 114 241 111 238 q 122 251 116 243 q 131 262 127 259 q 119 267 123 265 q 111 275 113 271 q 107 286 107 279 q 111 299 107 291 q 127 317 115 308 q 153 336 137 326 q 183 353 165 343 q 212 367 203 363 q 236 375 229 373 q 269 382 255 380 q 307 387 287 385 q 340 385 326 388 q 363 373 355 381 q 369 350 371 365 q 362 335 367 338 q 354 334 357 332 q 347 336 350 336 l 339 336 q 337 336 338 336 q 338 340 336 338 q 340 341 339 340 q 341 343 340 342 q 342 346 342 345 q 344 353 344 349 q 343 361 344 359 q 338 366 342 364 q 330 370 334 370 l 320 370 q 294 368 307 370 q 267 362 285 366 q 257 359 264 361 q 248 355 251 357 q 228 347 239 353 q 213 340 223 345 q 199 333 203 336 q 172 317 184 326 q 149 301 155 307 q 136 286 139 292 q 133 280 133 283 q 134 277 133 278 q 139 276 137 276 l 146 276 q 152 274 148 276 q 155 272 153 273 q 159 270 157 271 q 164 264 162 268 q 163 259 165 262 l 151 242 l 153 243 q 174 252 163 247 q 197 260 183 256 q 220 267 214 267 q 243 268 231 269 q 254 265 250 267 q 258 260 256 264 q 260 256 258 259 q 269 251 263 254 q 271 248 272 249 q 267 248 271 248 q 249 248 258 250 q 231 245 238 247 q 222 243 228 245 q 214 241 216 241 q 201 237 207 239 q 174 228 180 230 q 161 222 170 227 q 149 217 153 218 q 142 214 146 216 q 134 210 137 212 q 128 207 132 209 q 121 203 123 204 l 115 195 q 112 191 113 194 q 109 187 110 189 q 99 168 103 178 q 91 147 92 149 l 89 133 q 94 116 89 122 q 107 109 99 111 q 130 108 119 106 q 153 114 140 110 q 177 124 158 115 q 187 129 180 125 q 197 134 194 132 q 221 148 207 138 q 237 160 227 152 q 253 171 248 168 q 287 195 276 187 q 298 204 291 199 q 308 211 306 209 l 309 212 q 338 238 322 229 q 372 250 356 248 q 380 247 376 250 l 382 250 l 387 255 q 407 313 395 288 q 439 366 421 340 q 445 371 441 369 q 451 374 449 374 q 457 374 454 376 q 462 370 460 374 q 461 352 465 366 q 451 324 458 341 q 433 288 445 310 q 410 249 429 281 l 410 248 q 405 220 406 228 q 404 192 404 211 q 404 177 404 182 q 407 161 406 168 q 420 172 415 167 q 428 179 422 174 q 435 186 433 184 q 450 201 440 191 q 465 216 460 211 q 465 218 465 217 q 465 221 465 220 q 464 237 464 227 q 467 254 464 247 q 479 267 472 264 q 494 264 487 270 q 500 254 498 261 q 498 241 500 249 q 492 227 496 235 q 484 215 488 220 q 489 203 487 207 q 492 189 491 198 q 492 167 494 180 q 488 147 488 150 q 503 160 495 152 q 518 176 509 165 q 532 192 528 187 q 542 203 540 201 l 549 210 q 551 214 549 212 q 553 217 553 216 q 562 228 556 221 q 568 236 568 235 q 576 245 571 239 q 582 252 581 251 q 591 262 589 260 q 598 264 595 264 q 615 260 610 266 q 618 250 621 255 q 615 242 618 250 q 610 229 612 235 q 604 215 608 224 q 598 201 600 205 q 589 174 596 196 q 587 156 585 161 q 605 168 593 159 q 625 183 615 175 q 635 192 628 186 q 646 201 642 198 q 650 205 647 203 q 655 210 653 208 l 656 211 q 669 243 659 227 q 690 267 675 255 q 717 281 701 276 q 728 281 721 283 q 740 275 736 278 q 749 267 742 274 q 753 258 753 262 q 751 248 753 254 q 734 221 745 237 q 717 209 722 205 q 718 226 715 210 q 724 247 721 241 q 725 249 724 248 q 726 252 725 250 q 727 254 726 253 l 729 262 q 708 248 718 258 q 690 222 696 235 q 680 193 683 208 q 680 162 677 176 q 709 168 694 162 q 735 180 722 172 q 760 197 749 189 q 781 215 768 203 q 786 217 784 217 m 336 189 q 363 222 354 210 q 347 210 352 215 q 330 195 335 201 q 317 178 321 184 q 310 159 312 168 q 336 189 325 174 m 618 288 q 626 309 618 302 q 648 319 633 315 q 654 318 651 319 q 655 312 656 317 q 652 304 654 306 q 638 295 648 300 q 625 286 629 290 q 621 283 623 283 q 618 288 618 285 m 330 81 q 331 81 330 81 q 332 81 331 81 q 332 79 332 80 q 333 78 332 78 q 334 75 334 77 q 333 71 334 73 q 331 68 332 70 q 328 66 330 68 q 323 66 326 66 l 323 66 q 314 67 317 66 l 314 75 l 317 75 q 317 74 317 75 l 317 73 q 318 71 318 72 q 323 70 319 70 q 327 71 326 70 q 328 75 328 73 q 328 76 328 75 l 326 77 q 324 78 326 78 l 323 79 l 321 79 q 319 80 319 79 l 318 81 q 317 81 317 81 q 316 83 316 81 q 315 84 316 84 q 315 87 315 85 q 315 90 315 90 q 317 93 316 91 q 320 95 319 94 q 324 96 321 96 q 333 94 330 96 l 333 87 l 330 87 q 330 87 330 87 l 330 88 q 329 91 329 90 q 324 92 328 92 l 323 91 q 322 91 323 91 q 321 91 321 91 q 321 90 321 90 q 320 89 320 90 l 320 87 l 320 86 q 322 85 321 85 q 324 84 323 85 l 326 83 l 327 83 q 329 82 328 83 q 330 81 330 81 m 378 96 l 404 96 l 404 89 l 401 89 q 400 90 400 89 l 400 91 l 394 91 l 394 70 l 395 70 l 395 70 l 396 69 q 397 68 397 69 l 397 66 l 385 66 l 385 68 q 386 69 385 69 l 387 70 l 387 70 l 388 70 l 388 91 l 382 91 l 382 90 q 381 89 382 89 l 378 89 l 378 96 m 471 96 l 479 96 l 479 93 q 478 92 479 92 l 477 92 l 476 92 l 476 78 q 475 73 476 74 q 473 69 475 71 q 469 66 471 67 q 464 66 468 66 q 458 66 460 66 q 455 69 457 67 q 452 73 453 71 q 452 78 452 74 l 452 92 l 450 92 l 450 92 q 448 93 448 92 l 448 96 l 460 96 l 460 93 q 459 92 460 92 l 458 92 l 457 92 l 457 78 q 457 76 457 77 l 458 75 q 459 73 458 74 l 461 71 l 464 71 l 467 71 l 469 73 q 470 75 470 74 l 471 76 q 471 78 471 77 l 471 92 l 469 92 l 469 92 q 467 93 467 92 l 467 96 l 471 96 m 549 92 q 553 87 552 89 q 554 81 554 83 q 553 75 554 79 q 549 70 552 73 q 545 67 548 68 q 538 66 541 66 l 525 66 l 525 68 q 526 69 525 69 l 526 70 l 528 70 l 528 92 l 526 92 l 526 92 q 525 93 525 92 l 525 96 l 538 96 q 545 94 541 96 q 549 92 548 94 m 545 73 q 546 74 545 73 q 547 76 547 75 q 548 81 548 77 q 547 85 548 83 q 545 88 546 87 q 543 90 544 90 q 538 91 541 91 l 533 91 l 533 71 l 538 71 q 543 71 541 71 q 545 73 544 72 m 599 96 l 611 96 l 611 93 q 610 92 611 92 l 609 92 l 608 92 l 608 70 l 609 70 l 610 70 l 610 69 q 611 68 611 69 l 611 66 l 599 66 l 599 68 q 600 69 599 69 l 600 70 l 601 70 l 602 70 l 602 92 l 601 92 l 600 92 q 599 93 599 92 l 599 96 m 682 92 q 685 87 684 90 q 686 81 686 83 q 685 75 686 79 q 682 70 684 72 q 677 66 680 67 q 671 66 675 66 q 665 66 667 66 q 661 70 663 67 q 657 75 658 73 q 656 81 656 79 q 657 87 656 83 q 661 92 658 89 q 665 95 663 94 q 671 96 667 96 q 677 95 675 96 q 682 92 680 94 m 680 76 l 680 81 l 680 85 q 678 88 679 87 q 675 90 677 89 q 671 91 673 91 q 667 90 669 91 q 664 88 665 89 q 663 87 663 87 q 663 86 663 86 q 663 85 663 85 q 662 81 662 83 q 663 76 662 77 l 664 73 q 667 71 665 73 q 671 70 670 70 q 675 71 672 70 q 678 73 677 73 q 680 76 680 75 z "},"9":{"ha":814,"x_min":26,"x_max":789,"o":"m 553 516 q 557 509 555 514 q 558 500 558 504 q 557 490 558 496 q 553 484 555 486 q 547 479 550 480 q 538 478 544 478 q 530 479 533 478 q 524 484 528 480 q 520 490 521 487 q 519 500 519 496 q 520 509 519 504 q 524 516 521 513 q 530 520 528 519 q 538 522 536 522 q 547 520 541 522 q 553 516 550 519 m 359 520 q 365 516 361 519 q 369 509 368 513 q 370 500 370 504 q 369 490 370 496 q 365 484 368 487 q 359 479 361 480 q 351 478 356 478 q 342 479 345 478 q 336 484 339 480 q 332 490 332 487 q 330 500 330 496 q 332 509 330 504 q 336 516 332 513 q 342 520 339 519 q 351 522 347 522 q 359 520 353 522 m 108 520 q 114 516 111 519 q 118 509 117 513 q 119 500 119 504 q 118 490 119 496 q 114 484 117 487 q 108 479 111 480 q 100 478 105 478 l 88 478 l 88 522 l 100 522 q 108 520 102 522 m 780 562 l 780 439 l 35 439 l 35 562 l 780 562 m 129 487 q 131 500 131 493 q 129 513 131 507 q 122 522 127 517 q 113 529 117 528 q 100 531 106 531 l 70 531 l 70 526 q 73 524 70 524 l 73 523 l 74 523 l 75 522 q 77 522 76 522 l 77 477 q 75 477 76 477 l 74 477 l 73 477 l 73 476 q 70 474 70 476 l 70 469 l 100 469 q 113 471 106 469 q 122 477 117 472 q 129 487 127 483 m 197 515 l 197 531 l 151 531 l 151 526 q 153 524 151 524 l 154 523 l 155 523 l 156 522 q 158 522 157 522 l 158 477 q 156 477 157 477 l 155 477 l 154 477 l 153 476 q 151 474 151 476 l 151 469 l 197 469 l 197 485 l 192 485 q 190 484 190 485 l 190 481 q 189 478 189 479 l 170 478 l 170 496 l 191 496 l 191 505 l 170 505 l 170 522 l 189 522 q 190 518 189 520 l 190 516 q 192 515 190 515 l 197 515 m 298 526 l 298 531 l 283 531 l 282 531 l 281 531 l 280 530 q 279 529 279 530 l 261 494 q 260 493 260 494 q 260 492 260 492 l 258 489 l 257 492 q 256 493 256 492 q 256 494 256 494 l 237 529 l 237 530 q 235 531 236 531 l 235 531 l 233 531 l 218 531 l 218 526 q 220 524 218 524 l 220 523 l 222 523 l 222 522 q 224 522 224 522 l 224 477 q 222 477 224 477 l 222 477 l 220 477 l 220 476 q 218 473 218 476 l 218 469 l 243 469 l 243 473 q 240 476 243 476 q 235 477 238 477 l 235 509 l 235 511 l 235 514 l 254 479 l 254 478 q 255 477 255 477 q 258 476 256 476 l 259 476 q 262 477 261 476 q 262 477 262 477 l 263 479 l 282 514 l 282 511 l 282 509 l 282 477 l 276 476 q 274 473 274 476 l 274 469 l 298 469 l 298 473 q 296 476 298 476 l 296 477 l 294 477 l 294 477 q 292 477 293 477 l 292 522 q 294 522 293 522 l 294 523 l 296 523 l 296 523 q 298 526 298 523 m 380 487 q 382 500 382 493 q 380 513 382 507 q 373 523 378 517 q 363 529 369 528 q 351 532 355 532 q 338 529 346 532 q 328 523 332 527 q 321 513 323 517 q 319 500 319 507 q 321 487 319 493 q 328 477 323 481 q 338 471 332 473 q 351 468 346 468 q 363 471 355 468 q 373 477 369 472 q 380 487 378 481 m 482 515 l 487 515 l 487 531 l 439 531 l 439 526 q 441 524 439 524 l 442 523 l 444 523 l 444 522 q 446 522 445 522 l 446 477 q 444 477 445 477 l 444 477 l 442 477 l 441 476 q 439 474 439 476 l 439 469 l 464 469 l 464 474 q 462 476 464 476 l 461 477 l 460 477 l 458 477 q 457 477 458 477 l 457 494 l 479 494 l 479 503 l 457 503 l 457 522 l 479 522 q 480 518 479 520 l 480 516 q 482 515 480 515 m 568 487 q 570 500 570 495 q 568 513 570 505 q 562 523 566 519 q 551 529 557 527 q 538 532 543 532 q 526 529 534 532 q 516 523 521 528 q 509 513 511 517 q 507 500 507 507 q 509 487 507 493 q 516 477 511 481 q 526 471 521 472 q 538 468 534 468 q 551 471 543 468 q 562 477 557 473 q 568 487 566 481 m 656 526 l 656 531 l 631 531 l 631 526 q 633 523 631 523 q 640 522 636 523 l 640 493 l 640 490 l 640 488 l 607 529 l 606 530 l 606 530 q 604 531 605 531 l 603 531 l 591 531 l 591 526 q 593 524 591 524 l 593 523 l 595 523 l 595 522 q 597 522 596 522 l 597 477 q 595 477 596 477 l 595 477 l 593 477 l 593 476 q 591 474 591 476 l 591 469 l 615 469 l 615 474 q 613 476 615 476 q 607 477 610 477 l 607 507 l 607 509 l 607 512 l 640 471 q 640 470 640 471 l 642 469 l 642 469 q 644 469 643 469 l 650 469 l 650 522 q 651 522 650 522 l 652 523 l 653 523 l 654 523 q 656 526 656 523 m 723 516 l 728 516 l 728 531 l 676 531 l 676 516 l 681 516 q 683 518 683 516 l 684 519 q 684 522 684 520 l 696 522 l 696 477 q 694 477 695 477 l 694 477 l 692 477 l 692 476 q 690 474 690 476 l 690 469 l 714 469 l 714 474 q 712 476 714 476 l 711 477 l 710 477 l 709 477 q 707 477 708 477 l 707 522 l 720 522 q 720 519 720 520 l 721 518 q 723 516 721 516 m 618 288 q 626 309 618 302 q 648 319 633 315 q 654 318 651 319 q 655 312 656 317 q 652 304 654 306 q 638 295 648 300 q 625 286 629 290 q 621 283 623 283 q 618 288 618 285 m 786 217 q 785 212 788 217 q 779 197 779 202 q 774 187 777 190 q 766 178 770 182 q 754 167 759 170 q 694 142 725 144 q 682 146 690 142 q 669 153 673 149 q 658 163 661 160 q 653 174 653 168 q 652 187 652 179 q 646 180 651 185 q 628 162 638 171 q 609 145 621 156 q 595 135 601 138 q 588 134 593 134 q 577 136 581 134 q 566 140 570 138 q 559 147 560 144 q 557 159 557 152 q 561 174 558 163 q 566 193 564 189 q 571 202 568 196 q 574 210 574 209 l 564 203 l 564 202 l 560 197 q 537 166 549 180 q 514 139 521 146 q 495 125 502 127 q 487 125 492 123 q 477 127 481 126 q 467 133 471 130 q 461 140 463 136 q 460 149 460 144 q 463 159 462 155 q 465 172 464 168 q 468 187 467 178 l 468 193 q 460 183 465 190 q 452 174 455 177 q 448 168 451 172 q 444 162 446 164 q 431 151 440 157 q 418 142 425 145 q 404 142 412 140 q 392 146 396 144 q 383 159 387 149 q 380 176 380 165 q 380 184 380 180 q 380 193 380 188 q 380 201 380 199 q 361 176 378 198 q 343 153 357 170 q 328 136 335 143 q 316 127 323 131 q 309 126 313 125 l 298 130 q 290 135 293 132 q 286 140 286 138 q 285 165 283 152 q 276 157 279 160 q 242 133 261 145 q 207 113 228 123 q 174 98 191 104 q 152 92 172 98 q 130 89 144 90 q 108 90 120 88 q 87 100 98 92 q 64 133 66 114 q 71 174 62 154 l 64 169 q 31 167 42 161 l 28 169 l 28 169 q 34 179 26 172 q 52 191 43 186 l 62 197 q 96 217 73 205 q 101 225 98 220 q 108 234 105 230 q 114 241 111 238 q 122 251 116 243 q 131 262 127 259 q 119 267 123 265 q 111 275 113 271 q 107 286 107 279 q 111 299 107 291 q 127 317 115 308 q 153 336 137 326 q 183 353 165 343 q 212 367 203 363 q 236 375 229 373 q 269 382 255 380 q 307 387 287 385 q 340 385 326 388 q 363 373 355 381 q 369 350 371 365 q 362 335 367 338 q 354 334 357 332 q 347 336 350 336 l 339 336 q 337 336 338 336 q 338 340 336 338 q 340 341 339 340 q 341 343 340 342 q 342 346 342 345 q 344 353 344 349 q 343 361 344 359 q 338 366 342 364 q 330 370 334 370 l 320 370 q 294 368 307 370 q 267 362 285 366 q 257 359 264 361 q 248 355 251 357 q 228 347 239 353 q 213 340 223 345 q 199 333 203 336 q 172 317 184 326 q 149 301 155 307 q 136 286 139 292 q 133 280 133 283 q 134 277 133 278 q 139 276 137 276 l 146 276 q 152 274 148 276 q 155 272 153 273 q 159 270 157 271 q 164 264 162 268 q 163 259 165 262 l 151 242 l 153 243 q 174 252 163 247 q 197 260 183 256 q 220 267 214 267 q 243 268 231 269 q 254 265 250 267 q 258 260 256 264 q 260 256 258 259 q 269 251 263 254 q 271 248 272 249 q 267 248 271 248 q 249 248 258 250 q 231 245 238 247 q 222 243 228 245 q 214 241 216 241 q 201 237 207 239 q 174 228 180 230 q 161 222 170 227 q 149 217 153 218 q 142 214 146 216 q 134 210 137 212 q 128 207 132 209 q 121 203 123 204 l 115 195 q 112 191 113 194 q 109 187 110 189 q 99 168 103 178 q 91 147 92 149 l 89 133 q 94 116 89 122 q 107 109 99 111 q 130 108 119 106 q 153 114 140 110 q 177 124 158 115 q 187 129 180 125 q 197 134 194 132 q 221 148 207 138 q 237 160 227 152 q 253 171 248 168 q 287 195 276 187 q 298 204 291 199 q 308 211 306 209 l 309 212 q 338 238 322 229 q 372 250 356 248 q 380 247 376 250 l 382 250 l 387 255 q 407 313 395 288 q 439 366 421 340 q 445 371 441 369 q 451 374 449 374 q 457 374 454 376 q 462 370 460 374 q 461 352 465 366 q 451 324 458 341 q 433 288 445 310 q 410 249 429 281 l 410 248 q 405 220 406 228 q 404 192 404 211 q 404 177 404 182 q 407 161 406 168 q 420 172 415 167 q 428 179 422 174 q 435 186 433 184 q 450 201 440 191 q 465 216 460 211 q 465 218 465 217 q 465 221 465 220 q 464 237 464 227 q 467 254 464 247 q 479 267 472 264 q 494 264 487 270 q 500 254 498 261 q 498 241 500 249 q 492 227 496 235 q 484 215 488 220 q 489 203 487 207 q 492 189 491 198 q 492 167 494 180 q 488 147 488 150 q 503 160 495 152 q 518 176 509 165 q 532 192 528 187 q 542 203 540 201 l 549 210 q 551 214 549 212 q 553 217 553 216 q 562 228 556 221 q 568 236 568 235 q 576 245 571 239 q 582 252 581 251 q 591 262 589 260 q 598 264 595 264 q 615 260 610 266 q 618 250 621 255 q 615 242 618 250 q 610 229 612 235 q 604 215 608 224 q 598 201 600 205 q 589 174 596 196 q 587 156 585 161 q 605 168 593 159 q 625 183 615 175 q 635 192 628 186 q 646 201 642 198 q 650 205 647 203 q 655 210 653 208 l 656 211 q 669 243 659 227 q 690 267 675 255 q 717 281 701 276 q 728 281 721 283 q 740 275 736 278 q 749 267 742 274 q 753 258 753 262 q 751 248 753 254 q 734 221 745 237 q 717 209 722 205 q 718 226 715 210 q 724 247 721 241 q 725 249 724 248 q 726 252 725 250 q 727 254 726 253 l 729 262 q 708 248 718 258 q 690 222 696 235 q 680 193 683 208 q 680 162 677 176 q 709 168 694 162 q 735 180 722 172 q 760 197 749 189 q 781 215 768 203 q 786 217 784 217 m 336 189 q 363 222 354 210 q 347 210 352 215 q 330 195 335 201 q 317 178 321 184 q 310 159 312 168 q 336 189 325 174 m 330 81 q 331 81 330 81 q 332 81 331 81 q 332 79 332 80 q 333 78 332 78 q 334 75 334 77 q 333 71 334 73 q 331 68 332 70 q 328 66 330 68 q 323 66 326 66 l 323 66 q 314 67 317 66 l 314 75 l 317 75 q 317 74 317 75 l 317 73 q 318 71 318 72 q 323 70 319 70 q 327 71 326 70 q 328 75 328 73 q 328 76 328 75 l 326 77 q 324 78 326 78 l 323 79 l 321 79 q 319 80 319 79 l 318 81 q 317 81 317 81 q 316 83 316 81 q 315 84 316 84 q 315 87 315 85 q 315 90 315 90 q 317 93 316 91 q 320 95 319 94 q 324 96 321 96 q 333 94 330 96 l 333 87 l 330 87 q 330 87 330 87 l 330 88 q 329 91 329 90 q 324 92 328 92 l 323 91 q 322 91 323 91 q 321 91 321 91 q 321 90 321 90 q 320 89 320 90 l 320 87 l 320 86 q 322 85 321 85 q 324 84 323 85 l 326 83 l 327 83 q 329 82 328 83 q 330 81 330 81 m 378 96 l 404 96 l 404 89 l 401 89 q 400 90 400 89 l 400 91 l 394 91 l 394 70 l 395 70 l 395 70 l 396 69 q 397 68 397 69 l 397 66 l 385 66 l 385 68 q 386 69 385 69 l 387 70 l 387 70 l 388 70 l 388 91 l 382 91 l 382 90 q 381 89 382 89 l 378 89 l 378 96 m 471 96 l 479 96 l 479 93 q 478 92 479 92 l 477 92 l 476 92 l 476 78 q 475 73 476 74 q 473 69 475 71 q 469 66 471 67 q 464 66 468 66 q 458 66 460 66 q 455 69 457 67 q 452 73 453 71 q 452 78 452 74 l 452 92 l 450 92 l 450 92 q 448 93 448 92 l 448 96 l 460 96 l 460 93 q 459 92 460 92 l 458 92 l 457 92 l 457 78 q 457 76 457 77 l 458 75 q 459 73 458 74 l 461 71 l 464 71 l 467 71 l 469 73 q 470 75 470 74 l 471 76 q 471 78 471 77 l 471 92 l 469 92 l 469 92 q 467 93 467 92 l 467 96 l 471 96 m 549 92 q 553 87 552 89 q 554 81 554 83 q 553 75 554 79 q 549 70 552 73 q 545 67 548 68 q 538 66 541 66 l 525 66 l 525 68 q 526 69 525 69 l 526 70 l 528 70 l 528 92 l 526 92 l 526 92 q 525 93 525 92 l 525 96 l 538 96 q 545 94 541 96 q 549 92 548 94 m 545 73 q 546 74 545 73 q 547 76 547 75 q 548 81 548 77 q 547 85 548 83 q 545 88 546 87 q 543 90 544 90 q 538 91 541 91 l 533 91 l 533 71 l 538 71 q 543 71 541 71 q 545 73 544 72 m 599 96 l 611 96 l 611 93 q 610 92 611 92 l 609 92 l 608 92 l 608 70 l 609 70 l 610 70 l 610 69 q 611 68 611 69 l 611 66 l 599 66 l 599 68 q 600 69 599 69 l 600 70 l 601 70 l 602 70 l 602 92 l 601 92 l 600 92 q 599 93 599 92 l 599 96 m 682 92 q 685 87 684 90 q 686 81 686 83 q 685 75 686 79 q 682 70 684 72 q 677 66 680 67 q 671 66 675 66 q 665 66 667 66 q 661 70 663 67 q 657 75 658 73 q 656 81 656 79 q 657 87 656 83 q 661 92 658 89 q 665 95 663 94 q 671 96 667 96 q 677 95 675 96 q 682 92 680 94 m 680 76 l 680 81 l 680 85 q 678 88 679 87 q 675 90 677 89 q 671 91 673 91 q 667 90 669 91 q 664 88 665 89 q 663 87 663 87 q 663 86 663 86 q 663 85 663 85 q 662 81 662 83 q 663 76 662 77 l 664 73 q 667 71 665 73 q 671 70 670 70 q 675 71 672 70 q 678 73 677 73 q 680 76 680 75 z "},"\u0000":{"ha":0,"x_min":0,"x_max":0,"o":""},"\n":{"ha":0,"x_min":0,"x_max":0,"o":""},"\r":{"ha":0,"x_min":0,"x_max":0,"o":""}," ":{"ha":333,"x_min":0,"x_max":0,"o":""},"!":{"ha":814,"x_min":26,"x_max":789,"o":"m 108 520 q 114 516 111 519 q 118 509 117 513 q 119 500 119 504 q 118 490 119 496 q 114 484 117 487 q 108 479 111 480 q 100 478 105 478 l 88 478 l 88 522 l 100 522 q 108 520 102 522 m 553 516 q 557 509 555 514 q 558 500 558 504 q 557 490 558 496 q 553 484 555 486 q 547 479 550 480 q 538 478 544 478 q 530 479 533 478 q 524 484 528 480 q 520 490 521 487 q 519 500 519 496 q 520 509 519 504 q 524 516 521 513 q 530 520 528 519 q 538 522 536 522 q 547 520 541 522 q 553 516 550 519 m 359 520 q 365 516 361 519 q 369 509 368 513 q 370 500 370 504 q 369 490 370 496 q 365 484 368 487 q 359 479 361 480 q 351 478 356 478 q 342 479 345 478 q 336 484 339 480 q 332 490 332 487 q 330 500 330 496 q 332 509 330 504 q 336 516 332 513 q 342 520 339 519 q 351 522 347 522 q 359 520 353 522 m 780 562 l 780 439 l 35 439 l 35 562 l 780 562 m 129 487 q 131 500 131 493 q 129 513 131 507 q 122 522 127 517 q 113 529 117 528 q 100 531 106 531 l 70 531 l 70 526 q 73 524 70 524 l 73 523 l 74 523 l 75 522 q 77 522 76 522 l 77 477 q 75 477 76 477 l 74 477 l 73 477 l 73 476 q 70 474 70 476 l 70 469 l 100 469 q 113 471 106 469 q 122 477 117 472 q 129 487 127 483 m 197 515 l 197 531 l 151 531 l 151 526 q 153 524 151 524 l 154 523 l 155 523 l 156 522 q 158 522 157 522 l 158 477 q 156 477 157 477 l 155 477 l 154 477 l 153 476 q 151 474 151 476 l 151 469 l 197 469 l 197 485 l 192 485 q 190 484 190 485 l 190 481 q 189 478 189 479 l 170 478 l 170 496 l 191 496 l 191 505 l 170 505 l 170 522 l 189 522 q 190 518 189 520 l 190 516 q 192 515 190 515 l 197 515 m 298 526 l 298 531 l 283 531 l 282 531 l 281 531 l 280 530 q 279 529 279 530 l 261 494 q 260 493 260 494 q 260 492 260 492 l 258 489 l 257 492 q 256 493 256 492 q 256 494 256 494 l 237 529 l 237 530 q 235 531 236 531 l 235 531 l 233 531 l 218 531 l 218 526 q 220 524 218 524 l 220 523 l 222 523 l 222 522 q 224 522 224 522 l 224 477 q 222 477 224 477 l 222 477 l 220 477 l 220 476 q 218 473 218 476 l 218 469 l 243 469 l 243 473 q 240 476 243 476 q 235 477 238 477 l 235 509 l 235 511 l 235 514 l 254 479 l 254 478 q 255 477 255 477 q 258 476 256 476 l 259 476 q 262 477 261 476 q 262 477 262 477 l 263 479 l 282 514 l 282 511 l 282 509 l 282 477 l 276 476 q 274 473 274 476 l 274 469 l 298 469 l 298 473 q 296 476 298 476 l 296 477 l 294 477 l 294 477 q 292 477 293 477 l 292 522 q 294 522 293 522 l 294 523 l 296 523 l 296 523 q 298 526 298 523 m 380 487 q 382 500 382 493 q 380 513 382 507 q 373 523 378 517 q 363 529 369 528 q 351 532 355 532 q 338 529 346 532 q 328 523 332 527 q 321 513 323 517 q 319 500 319 507 q 321 487 319 493 q 328 477 323 481 q 338 471 332 473 q 351 468 346 468 q 363 471 355 468 q 373 477 369 472 q 380 487 378 481 m 482 515 l 487 515 l 487 531 l 439 531 l 439 526 q 441 524 439 524 l 442 523 l 444 523 l 444 522 q 446 522 445 522 l 446 477 q 444 477 445 477 l 444 477 l 442 477 l 441 476 q 439 474 439 476 l 439 469 l 464 469 l 464 474 q 462 476 464 476 l 461 477 l 460 477 l 458 477 q 457 477 458 477 l 457 494 l 479 494 l 479 503 l 457 503 l 457 522 l 479 522 q 480 518 479 520 l 480 516 q 482 515 480 515 m 568 487 q 570 500 570 495 q 568 513 570 505 q 562 523 566 519 q 551 529 557 527 q 538 532 543 532 q 526 529 534 532 q 516 523 521 528 q 509 513 511 517 q 507 500 507 507 q 509 487 507 493 q 516 477 511 481 q 526 471 521 472 q 538 468 534 468 q 551 471 543 468 q 562 477 557 473 q 568 487 566 481 m 656 526 l 656 531 l 631 531 l 631 526 q 633 523 631 523 q 640 522 636 523 l 640 493 l 640 490 l 640 488 l 607 529 l 606 530 l 606 530 q 604 531 605 531 l 603 531 l 591 531 l 591 526 q 593 524 591 524 l 593 523 l 595 523 l 595 522 q 597 522 596 522 l 597 477 q 595 477 596 477 l 595 477 l 593 477 l 593 476 q 591 474 591 476 l 591 469 l 615 469 l 615 474 q 613 476 615 476 q 607 477 610 477 l 607 507 l 607 509 l 607 512 l 640 471 q 640 470 640 471 l 642 469 l 642 469 q 644 469 643 469 l 650 469 l 650 522 q 651 522 650 522 l 652 523 l 653 523 l 654 523 q 656 526 656 523 m 723 516 l 728 516 l 728 531 l 676 531 l 676 516 l 681 516 q 683 518 683 516 l 684 519 q 684 522 684 520 l 696 522 l 696 477 q 694 477 695 477 l 694 477 l 692 477 l 692 476 q 690 474 690 476 l 690 469 l 714 469 l 714 474 q 712 476 714 476 l 711 477 l 710 477 l 709 477 q 707 477 708 477 l 707 522 l 720 522 q 720 519 720 520 l 721 518 q 723 516 721 516 m 618 288 q 626 309 618 302 q 648 319 633 315 q 654 318 651 319 q 655 312 656 317 q 652 304 654 306 q 638 295 648 300 q 625 286 629 290 q 621 283 623 283 q 618 288 618 285 m 786 217 q 785 212 788 217 q 779 197 779 202 q 774 187 777 190 q 766 178 770 182 q 754 167 759 170 q 694 142 725 144 q 682 146 690 142 q 669 153 673 149 q 658 163 661 160 q 653 174 653 168 q 652 187 652 179 q 646 180 651 185 q 628 162 638 171 q 609 145 621 156 q 595 135 601 138 q 588 134 593 134 q 577 136 581 134 q 566 140 570 138 q 559 147 560 144 q 557 159 557 152 q 561 174 558 163 q 566 193 564 189 q 571 202 568 196 q 574 210 574 209 l 564 203 l 564 202 l 560 197 q 537 166 549 180 q 514 139 521 146 q 495 125 502 127 q 487 125 492 123 q 477 127 481 126 q 467 133 471 130 q 461 140 463 136 q 460 149 460 144 q 463 159 462 155 q 465 172 464 168 q 468 187 467 178 l 468 193 q 460 183 465 190 q 452 174 455 177 q 448 168 451 172 q 444 162 446 164 q 431 151 440 157 q 418 142 425 145 q 404 142 412 140 q 392 146 396 144 q 383 159 387 149 q 380 176 380 165 q 380 184 380 180 q 380 193 380 188 q 380 201 380 199 q 361 176 378 198 q 343 153 357 170 q 328 136 335 143 q 316 127 323 131 q 309 126 313 125 l 298 130 q 290 135 293 132 q 286 140 286 138 q 285 165 283 152 q 276 157 279 160 q 242 133 261 145 q 207 113 228 123 q 174 98 191 104 q 152 92 172 98 q 130 89 144 90 q 108 90 120 88 q 87 100 98 92 q 64 133 66 114 q 71 174 62 154 l 64 169 q 31 167 42 161 l 28 169 l 28 169 q 34 179 26 172 q 52 191 43 186 l 62 197 q 96 217 73 205 q 101 225 98 220 q 108 234 105 230 q 114 241 111 238 q 122 251 116 243 q 131 262 127 259 q 119 267 123 265 q 111 275 113 271 q 107 286 107 279 q 111 299 107 291 q 127 317 115 308 q 153 336 137 326 q 183 353 165 343 q 212 367 203 363 q 236 375 229 373 q 269 382 255 380 q 307 387 287 385 q 340 385 326 388 q 363 373 355 381 q 369 350 371 365 q 362 335 367 338 q 354 334 357 332 q 347 336 350 336 l 339 336 q 337 336 338 336 q 338 340 336 338 q 340 341 339 340 q 341 343 340 342 q 342 346 342 345 q 344 353 344 349 q 343 361 344 359 q 338 366 342 364 q 330 370 334 370 l 320 370 q 294 368 307 370 q 267 362 285 366 q 257 359 264 361 q 248 355 251 357 q 228 347 239 353 q 213 340 223 345 q 199 333 203 336 q 172 317 184 326 q 149 301 155 307 q 136 286 139 292 q 133 280 133 283 q 134 277 133 278 q 139 276 137 276 l 146 276 q 152 274 148 276 q 155 272 153 273 q 159 270 157 271 q 164 264 162 268 q 163 259 165 262 l 151 242 l 153 243 q 174 252 163 247 q 197 260 183 256 q 220 267 214 267 q 243 268 231 269 q 254 265 250 267 q 258 260 256 264 q 260 256 258 259 q 269 251 263 254 q 271 248 272 249 q 267 248 271 248 q 249 248 258 250 q 231 245 238 247 q 222 243 228 245 q 214 241 216 241 q 201 237 207 239 q 174 228 180 230 q 161 222 170 227 q 149 217 153 218 q 142 214 146 216 q 134 210 137 212 q 128 207 132 209 q 121 203 123 204 l 115 195 q 112 191 113 194 q 109 187 110 189 q 99 168 103 178 q 91 147 92 149 l 89 133 q 94 116 89 122 q 107 109 99 111 q 130 108 119 106 q 153 114 140 110 q 177 124 158 115 q 187 129 180 125 q 197 134 194 132 q 221 148 207 138 q 237 160 227 152 q 253 171 248 168 q 287 195 276 187 q 298 204 291 199 q 308 211 306 209 l 309 212 q 338 238 322 229 q 372 250 356 248 q 380 247 376 250 l 382 250 l 387 255 q 407 313 395 288 q 439 366 421 340 q 445 371 441 369 q 451 374 449 374 q 457 374 454 376 q 462 370 460 374 q 461 352 465 366 q 451 324 458 341 q 433 288 445 310 q 410 249 429 281 l 410 248 q 405 220 406 228 q 404 192 404 211 q 404 177 404 182 q 407 161 406 168 q 420 172 415 167 q 428 179 422 174 q 435 186 433 184 q 450 201 440 191 q 465 216 460 211 q 465 218 465 217 q 465 221 465 220 q 464 237 464 227 q 467 254 464 247 q 479 267 472 264 q 494 264 487 270 q 500 254 498 261 q 498 241 500 249 q 492 227 496 235 q 484 215 488 220 q 489 203 487 207 q 492 189 491 198 q 492 167 494 180 q 488 147 488 150 q 503 160 495 152 q 518 176 509 165 q 532 192 528 187 q 542 203 540 201 l 549 210 q 551 214 549 212 q 553 217 553 216 q 562 228 556 221 q 568 236 568 235 q 576 245 571 239 q 582 252 581 251 q 591 262 589 260 q 598 264 595 264 q 615 260 610 266 q 618 250 621 255 q 615 242 618 250 q 610 229 612 235 q 604 215 608 224 q 598 201 600 205 q 589 174 596 196 q 587 156 585 161 q 605 168 593 159 q 625 183 615 175 q 635 192 628 186 q 646 201 642 198 q 650 205 647 203 q 655 210 653 208 l 656 211 q 669 243 659 227 q 690 267 675 255 q 717 281 701 276 q 728 281 721 283 q 740 275 736 278 q 749 267 742 274 q 753 258 753 262 q 751 248 753 254 q 734 221 745 237 q 717 209 722 205 q 718 226 715 210 q 724 247 721 241 q 725 249 724 248 q 726 252 725 250 q 727 254 726 253 l 729 262 q 708 248 718 258 q 690 222 696 235 q 680 193 683 208 q 680 162 677 176 q 709 168 694 162 q 735 180 722 172 q 760 197 749 189 q 781 215 768 203 q 786 217 784 217 m 336 189 q 363 222 354 210 q 347 210 352 215 q 330 195 335 201 q 317 178 321 184 q 310 159 312 168 q 336 189 325 174 m 330 81 q 331 81 330 81 q 332 81 331 81 q 332 79 332 80 q 333 78 332 78 q 334 75 334 77 q 333 71 334 73 q 331 68 332 70 q 328 66 330 68 q 323 66 326 66 l 323 66 q 314 67 317 66 l 314 75 l 317 75 q 317 74 317 75 l 317 73 q 318 71 318 72 q 323 70 319 70 q 327 71 326 70 q 328 75 328 73 q 328 76 328 75 l 326 77 q 324 78 326 78 l 323 79 l 321 79 q 319 80 319 79 l 318 81 q 317 81 317 81 q 316 83 316 81 q 315 84 316 84 q 315 87 315 85 q 315 90 315 90 q 317 93 316 91 q 320 95 319 94 q 324 96 321 96 q 333 94 330 96 l 333 87 l 330 87 q 330 87 330 87 l 330 88 q 329 91 329 90 q 324 92 328 92 l 323 91 q 322 91 323 91 q 321 91 321 91 q 321 90 321 90 q 320 89 320 90 l 320 87 l 320 86 q 322 85 321 85 q 324 84 323 85 l 326 83 l 327 83 q 329 82 328 83 q 330 81 330 81 m 378 96 l 404 96 l 404 89 l 401 89 q 400 90 400 89 l 400 91 l 394 91 l 394 70 l 395 70 l 395 70 l 396 69 q 397 68 397 69 l 397 66 l 385 66 l 385 68 q 386 69 385 69 l 387 70 l 387 70 l 388 70 l 388 91 l 382 91 l 382 90 q 381 89 382 89 l 378 89 l 378 96 m 471 96 l 479 96 l 479 93 q 478 92 479 92 l 477 92 l 476 92 l 476 78 q 475 73 476 74 q 473 69 475 71 q 469 66 471 67 q 464 66 468 66 q 458 66 460 66 q 455 69 457 67 q 452 73 453 71 q 452 78 452 74 l 452 92 l 450 92 l 450 92 q 448 93 448 92 l 448 96 l 460 96 l 460 93 q 459 92 460 92 l 458 92 l 457 92 l 457 78 q 457 76 457 77 l 458 75 q 459 73 458 74 l 461 71 l 464 71 l 467 71 l 469 73 q 470 75 470 74 l 471 76 q 471 78 471 77 l 471 92 l 469 92 l 469 92 q 467 93 467 92 l 467 96 l 471 96 m 549 92 q 553 87 552 89 q 554 81 554 83 q 553 75 554 79 q 549 70 552 73 q 545 67 548 68 q 538 66 541 66 l 525 66 l 525 68 q 526 69 525 69 l 526 70 l 528 70 l 528 92 l 526 92 l 526 92 q 525 93 525 92 l 525 96 l 538 96 q 545 94 541 96 q 549 92 548 94 m 545 73 q 546 74 545 73 q 547 76 547 75 q 548 81 548 77 q 547 85 548 83 q 545 88 546 87 q 543 90 544 90 q 538 91 541 91 l 533 91 l 533 71 l 538 71 q 543 71 541 71 q 545 73 544 72 m 599 96 l 611 96 l 611 93 q 610 92 611 92 l 609 92 l 608 92 l 608 70 l 609 70 l 610 70 l 610 69 q 611 68 611 69 l 611 66 l 599 66 l 599 68 q 600 69 599 69 l 600 70 l 601 70 l 602 70 l 602 92 l 601 92 l 600 92 q 599 93 599 92 l 599 96 m 682 92 q 685 87 684 90 q 686 81 686 83 q 685 75 686 79 q 682 70 684 72 q 677 66 680 67 q 671 66 675 66 q 665 66 667 66 q 661 70 663 67 q 657 75 658 73 q 656 81 656 79 q 657 87 656 83 q 661 92 658 89 q 665 95 663 94 q 671 96 667 96 q 677 95 675 96 q 682 92 680 94 m 680 76 l 680 81 l 680 85 q 678 88 679 87 q 675 90 677 89 q 671 91 673 91 q 667 90 669 91 q 664 88 665 89 q 663 87 663 87 q 663 86 663 86 q 663 85 663 85 q 662 81 662 83 q 663 76 662 77 l 664 73 q 667 71 665 73 q 671 70 670 70 q 675 71 672 70 q 678 73 677 73 q 680 76 680 75 z "},"\"":{"ha":814,"x_min":26,"x_max":789,"o":"m 359 520 q 365 516 361 519 q 369 509 368 513 q 370 500 370 504 q 369 490 370 496 q 365 484 368 487 q 359 479 361 480 q 351 478 356 478 q 342 479 345 478 q 336 484 339 480 q 332 490 332 487 q 330 500 330 496 q 332 509 330 504 q 336 516 332 513 q 342 520 339 519 q 351 522 347 522 q 359 520 353 522 m 553 516 q 557 509 555 514 q 558 500 558 504 q 557 490 558 496 q 553 484 555 486 q 547 479 550 480 q 538 478 544 478 q 530 479 533 478 q 524 484 528 480 q 520 490 521 487 q 519 500 519 496 q 520 509 519 504 q 524 516 521 513 q 530 520 528 519 q 538 522 536 522 q 547 520 541 522 q 553 516 550 519 m 108 520 q 114 516 111 519 q 118 509 117 513 q 119 500 119 504 q 118 490 119 496 q 114 484 117 487 q 108 479 111 480 q 100 478 105 478 l 88 478 l 88 522 l 100 522 q 108 520 102 522 m 780 562 l 780 439 l 35 439 l 35 562 l 780 562 m 129 487 q 131 500 131 493 q 129 513 131 507 q 122 522 127 517 q 113 529 117 528 q 100 531 106 531 l 70 531 l 70 526 q 73 524 70 524 l 73 523 l 74 523 l 75 522 q 77 522 76 522 l 77 477 q 75 477 76 477 l 74 477 l 73 477 l 73 476 q 70 474 70 476 l 70 469 l 100 469 q 113 471 106 469 q 122 477 117 472 q 129 487 127 483 m 197 515 l 197 531 l 151 531 l 151 526 q 153 524 151 524 l 154 523 l 155 523 l 156 522 q 158 522 157 522 l 158 477 q 156 477 157 477 l 155 477 l 154 477 l 153 476 q 151 474 151 476 l 151 469 l 197 469 l 197 485 l 192 485 q 190 484 190 485 l 190 481 q 189 478 189 479 l 170 478 l 170 496 l 191 496 l 191 505 l 170 505 l 170 522 l 189 522 q 190 518 189 520 l 190 516 q 192 515 190 515 l 197 515 m 298 526 l 298 531 l 283 531 l 282 531 l 281 531 l 280 530 q 279 529 279 530 l 261 494 q 260 493 260 494 q 260 492 260 492 l 258 489 l 257 492 q 256 493 256 492 q 256 494 256 494 l 237 529 l 237 530 q 235 531 236 531 l 235 531 l 233 531 l 218 531 l 218 526 q 220 524 218 524 l 220 523 l 222 523 l 222 522 q 224 522 224 522 l 224 477 q 222 477 224 477 l 222 477 l 220 477 l 220 476 q 218 473 218 476 l 218 469 l 243 469 l 243 473 q 240 476 243 476 q 235 477 238 477 l 235 509 l 235 511 l 235 514 l 254 479 l 254 478 q 255 477 255 477 q 258 476 256 476 l 259 476 q 262 477 261 476 q 262 477 262 477 l 263 479 l 282 514 l 282 511 l 282 509 l 282 477 l 276 476 q 274 473 274 476 l 274 469 l 298 469 l 298 473 q 296 476 298 476 l 296 477 l 294 477 l 294 477 q 292 477 293 477 l 292 522 q 294 522 293 522 l 294 523 l 296 523 l 296 523 q 298 526 298 523 m 380 487 q 382 500 382 493 q 380 513 382 507 q 373 523 378 517 q 363 529 369 528 q 351 532 355 532 q 338 529 346 532 q 328 523 332 527 q 321 513 323 517 q 319 500 319 507 q 321 487 319 493 q 328 477 323 481 q 338 471 332 473 q 351 468 346 468 q 363 471 355 468 q 373 477 369 472 q 380 487 378 481 m 482 515 l 487 515 l 487 531 l 439 531 l 439 526 q 441 524 439 524 l 442 523 l 444 523 l 444 522 q 446 522 445 522 l 446 477 q 444 477 445 477 l 444 477 l 442 477 l 441 476 q 439 474 439 476 l 439 469 l 464 469 l 464 474 q 462 476 464 476 l 461 477 l 460 477 l 458 477 q 457 477 458 477 l 457 494 l 479 494 l 479 503 l 457 503 l 457 522 l 479 522 q 480 518 479 520 l 480 516 q 482 515 480 515 m 568 487 q 570 500 570 495 q 568 513 570 505 q 562 523 566 519 q 551 529 557 527 q 538 532 543 532 q 526 529 534 532 q 516 523 521 528 q 509 513 511 517 q 507 500 507 507 q 509 487 507 493 q 516 477 511 481 q 526 471 521 472 q 538 468 534 468 q 551 471 543 468 q 562 477 557 473 q 568 487 566 481 m 656 526 l 656 531 l 631 531 l 631 526 q 633 523 631 523 q 640 522 636 523 l 640 493 l 640 490 l 640 488 l 607 529 l 606 530 l 606 530 q 604 531 605 531 l 603 531 l 591 531 l 591 526 q 593 524 591 524 l 593 523 l 595 523 l 595 522 q 597 522 596 522 l 597 477 q 595 477 596 477 l 595 477 l 593 477 l 593 476 q 591 474 591 476 l 591 469 l 615 469 l 615 474 q 613 476 615 476 q 607 477 610 477 l 607 507 l 607 509 l 607 512 l 640 471 q 640 470 640 471 l 642 469 l 642 469 q 644 469 643 469 l 650 469 l 650 522 q 651 522 650 522 l 652 523 l 653 523 l 654 523 q 656 526 656 523 m 723 516 l 728 516 l 728 531 l 676 531 l 676 516 l 681 516 q 683 518 683 516 l 684 519 q 684 522 684 520 l 696 522 l 696 477 q 694 477 695 477 l 694 477 l 692 477 l 692 476 q 690 474 690 476 l 690 469 l 714 469 l 714 474 q 712 476 714 476 l 711 477 l 710 477 l 709 477 q 707 477 708 477 l 707 522 l 720 522 q 720 519 720 520 l 721 518 q 723 516 721 516 m 786 217 q 785 212 788 217 q 779 197 779 202 q 774 187 777 190 q 766 178 770 182 q 754 167 759 170 q 694 142 725 144 q 682 146 690 142 q 669 153 673 149 q 658 163 661 160 q 653 174 653 168 q 652 187 652 179 q 646 180 651 185 q 628 162 638 171 q 609 145 621 156 q 595 135 601 138 q 588 134 593 134 q 577 136 581 134 q 566 140 570 138 q 559 147 560 144 q 557 159 557 152 q 561 174 558 163 q 566 193 564 189 q 571 202 568 196 q 574 210 574 209 l 564 203 l 564 202 l 560 197 q 537 166 549 180 q 514 139 521 146 q 495 125 502 127 q 487 125 492 123 q 477 127 481 126 q 467 133 471 130 q 461 140 463 136 q 460 149 460 144 q 463 159 462 155 q 465 172 464 168 q 468 187 467 178 l 468 193 q 460 183 465 190 q 452 174 455 177 q 448 168 451 172 q 444 162 446 164 q 431 151 440 157 q 418 142 425 145 q 404 142 412 140 q 392 146 396 144 q 383 159 387 149 q 380 176 380 165 q 380 184 380 180 q 380 193 380 188 q 380 201 380 199 q 361 176 378 198 q 343 153 357 170 q 328 136 335 143 q 316 127 323 131 q 309 126 313 125 l 298 130 q 290 135 293 132 q 286 140 286 138 q 285 165 283 152 q 276 157 279 160 q 242 133 261 145 q 207 113 228 123 q 174 98 191 104 q 152 92 172 98 q 130 89 144 90 q 108 90 120 88 q 87 100 98 92 q 64 133 66 114 q 71 174 62 154 l 64 169 q 31 167 42 161 l 28 169 l 28 169 q 34 179 26 172 q 52 191 43 186 l 62 197 q 96 217 73 205 q 101 225 98 220 q 108 234 105 230 q 114 241 111 238 q 122 251 116 243 q 131 262 127 259 q 119 267 123 265 q 111 275 113 271 q 107 286 107 279 q 111 299 107 291 q 127 317 115 308 q 153 336 137 326 q 183 353 165 343 q 212 367 203 363 q 236 375 229 373 q 269 382 255 380 q 307 387 287 385 q 340 385 326 388 q 363 373 355 381 q 369 350 371 365 q 362 335 367 338 q 354 334 357 332 q 347 336 350 336 l 339 336 q 337 336 338 336 q 338 340 336 338 q 340 341 339 340 q 341 343 340 342 q 342 346 342 345 q 344 353 344 349 q 343 361 344 359 q 338 366 342 364 q 330 370 334 370 l 320 370 q 294 368 307 370 q 267 362 285 366 q 257 359 264 361 q 248 355 251 357 q 228 347 239 353 q 213 340 223 345 q 199 333 203 336 q 172 317 184 326 q 149 301 155 307 q 136 286 139 292 q 133 280 133 283 q 134 277 133 278 q 139 276 137 276 l 146 276 q 152 274 148 276 q 155 272 153 273 q 159 270 157 271 q 164 264 162 268 q 163 259 165 262 l 151 242 l 153 243 q 174 252 163 247 q 197 260 183 256 q 220 267 214 267 q 243 268 231 269 q 254 265 250 267 q 258 260 256 264 q 260 256 258 259 q 269 251 263 254 q 271 248 272 249 q 267 248 271 248 q 249 248 258 250 q 231 245 238 247 q 222 243 228 245 q 214 241 216 241 q 201 237 207 239 q 174 228 180 230 q 161 222 170 227 q 149 217 153 218 q 142 214 146 216 q 134 210 137 212 q 128 207 132 209 q 121 203 123 204 l 115 195 q 112 191 113 194 q 109 187 110 189 q 99 168 103 178 q 91 147 92 149 l 89 133 q 94 116 89 122 q 107 109 99 111 q 130 108 119 106 q 153 114 140 110 q 177 124 158 115 q 187 129 180 125 q 197 134 194 132 q 221 148 207 138 q 237 160 227 152 q 253 171 248 168 q 287 195 276 187 q 298 204 291 199 q 308 211 306 209 l 309 212 q 338 238 322 229 q 372 250 356 248 q 380 247 376 250 l 382 250 l 387 255 q 407 313 395 288 q 439 366 421 340 q 445 371 441 369 q 451 374 449 374 q 457 374 454 376 q 462 370 460 374 q 461 352 465 366 q 451 324 458 341 q 433 288 445 310 q 410 249 429 281 l 410 248 q 405 220 406 228 q 404 192 404 211 q 404 177 404 182 q 407 161 406 168 q 420 172 415 167 q 428 179 422 174 q 435 186 433 184 q 450 201 440 191 q 465 216 460 211 q 465 218 465 217 q 465 221 465 220 q 464 237 464 227 q 467 254 464 247 q 479 267 472 264 q 494 264 487 270 q 500 254 498 261 q 498 241 500 249 q 492 227 496 235 q 484 215 488 220 q 489 203 487 207 q 492 189 491 198 q 492 167 494 180 q 488 147 488 150 q 503 160 495 152 q 518 176 509 165 q 532 192 528 187 q 542 203 540 201 l 549 210 q 551 214 549 212 q 553 217 553 216 q 562 228 556 221 q 568 236 568 235 q 576 245 571 239 q 582 252 581 251 q 591 262 589 260 q 598 264 595 264 q 615 260 610 266 q 618 250 621 255 q 615 242 618 250 q 610 229 612 235 q 604 215 608 224 q 598 201 600 205 q 589 174 596 196 q 587 156 585 161 q 605 168 593 159 q 625 183 615 175 q 635 192 628 186 q 646 201 642 198 q 650 205 647 203 q 655 210 653 208 l 656 211 q 669 243 659 227 q 690 267 675 255 q 717 281 701 276 q 728 281 721 283 q 740 275 736 278 q 749 267 742 274 q 753 258 753 262 q 751 248 753 254 q 734 221 745 237 q 717 209 722 205 q 718 226 715 210 q 724 247 721 241 q 725 249 724 248 q 726 252 725 250 q 727 254 726 253 l 729 262 q 708 248 718 258 q 690 222 696 235 q 680 193 683 208 q 680 162 677 176 q 709 168 694 162 q 735 180 722 172 q 760 197 749 189 q 781 215 768 203 q 786 217 784 217 m 336 189 q 363 222 354 210 q 347 210 352 215 q 330 195 335 201 q 317 178 321 184 q 310 159 312 168 q 336 189 325 174 m 618 288 q 626 309 618 302 q 648 319 633 315 q 654 318 651 319 q 655 312 656 317 q 652 304 654 306 q 638 295 648 300 q 625 286 629 290 q 621 283 623 283 q 618 288 618 285 m 330 81 q 331 81 330 81 q 332 81 331 81 q 332 79 332 80 q 333 78 332 78 q 334 75 334 77 q 333 71 334 73 q 331 68 332 70 q 328 66 330 68 q 323 66 326 66 l 323 66 q 314 67 317 66 l 314 75 l 317 75 q 317 74 317 75 l 317 73 q 318 71 318 72 q 323 70 319 70 q 327 71 326 70 q 328 75 328 73 q 328 76 328 75 l 326 77 q 324 78 326 78 l 323 79 l 321 79 q 319 80 319 79 l 318 81 q 317 81 317 81 q 316 83 316 81 q 315 84 316 84 q 315 87 315 85 q 315 90 315 90 q 317 93 316 91 q 320 95 319 94 q 324 96 321 96 q 333 94 330 96 l 333 87 l 330 87 q 330 87 330 87 l 330 88 q 329 91 329 90 q 324 92 328 92 l 323 91 q 322 91 323 91 q 321 91 321 91 q 321 90 321 90 q 320 89 320 90 l 320 87 l 320 86 q 322 85 321 85 q 324 84 323 85 l 326 83 l 327 83 q 329 82 328 83 q 330 81 330 81 m 378 96 l 404 96 l 404 89 l 401 89 q 400 90 400 89 l 400 91 l 394 91 l 394 70 l 395 70 l 395 70 l 396 69 q 397 68 397 69 l 397 66 l 385 66 l 385 68 q 386 69 385 69 l 387 70 l 387 70 l 388 70 l 388 91 l 382 91 l 382 90 q 381 89 382 89 l 378 89 l 378 96 m 471 96 l 479 96 l 479 93 q 478 92 479 92 l 477 92 l 476 92 l 476 78 q 475 73 476 74 q 473 69 475 71 q 469 66 471 67 q 464 66 468 66 q 458 66 460 66 q 455 69 457 67 q 452 73 453 71 q 452 78 452 74 l 452 92 l 450 92 l 450 92 q 448 93 448 92 l 448 96 l 460 96 l 460 93 q 459 92 460 92 l 458 92 l 457 92 l 457 78 q 457 76 457 77 l 458 75 q 459 73 458 74 l 461 71 l 464 71 l 467 71 l 469 73 q 470 75 470 74 l 471 76 q 471 78 471 77 l 471 92 l 469 92 l 469 92 q 467 93 467 92 l 467 96 l 471 96 m 549 92 q 553 87 552 89 q 554 81 554 83 q 553 75 554 79 q 549 70 552 73 q 545 67 548 68 q 538 66 541 66 l 525 66 l 525 68 q 526 69 525 69 l 526 70 l 528 70 l 528 92 l 526 92 l 526 92 q 525 93 525 92 l 525 96 l 538 96 q 545 94 541 96 q 549 92 548 94 m 545 73 q 546 74 545 73 q 547 76 547 75 q 548 81 548 77 q 547 85 548 83 q 545 88 546 87 q 543 90 544 90 q 538 91 541 91 l 533 91 l 533 71 l 538 71 q 543 71 541 71 q 545 73 544 72 m 599 96 l 611 96 l 611 93 q 610 92 611 92 l 609 92 l 608 92 l 608 70 l 609 70 l 610 70 l 610 69 q 611 68 611 69 l 611 66 l 599 66 l 599 68 q 600 69 599 69 l 600 70 l 601 70 l 602 70 l 602 92 l 601 92 l 600 92 q 599 93 599 92 l 599 96 m 682 92 q 685 87 684 90 q 686 81 686 83 q 685 75 686 79 q 682 70 684 72 q 677 66 680 67 q 671 66 675 66 q 665 66 667 66 q 661 70 663 67 q 657 75 658 73 q 656 81 656 79 q 657 87 656 83 q 661 92 658 89 q 665 95 663 94 q 671 96 667 96 q 677 95 675 96 q 682 92 680 94 m 680 76 l 680 81 l 680 85 q 678 88 679 87 q 675 90 677 89 q 671 91 673 91 q 667 90 669 91 q 664 88 665 89 q 663 87 663 87 q 663 86 663 86 q 663 85 663 85 q 662 81 662 83 q 663 76 662 77 l 664 73 q 667 71 665 73 q 671 70 670 70 q 675 71 672 70 q 678 73 677 73 q 680 76 680 75 z "},"#":{"ha":814,"x_min":26,"x_max":789,"o":"m 553 516 q 557 509 555 514 q 558 500 558 504 q 557 490 558 496 q 553 484 555 486 q 547 479 550 480 q 538 478 544 478 q 530 479 533 478 q 524 484 528 480 q 520 490 521 487 q 519 500 519 496 q 520 509 519 504 q 524 516 521 513 q 530 520 528 519 q 538 522 536 522 q 547 520 541 522 q 553 516 550 519 m 359 520 q 365 516 361 519 q 369 509 368 513 q 370 500 370 504 q 369 490 370 496 q 365 484 368 487 q 359 479 361 480 q 351 478 356 478 q 342 479 345 478 q 336 484 339 480 q 332 490 332 487 q 330 500 330 496 q 332 509 330 504 q 336 516 332 513 q 342 520 339 519 q 351 522 347 522 q 359 520 353 522 m 108 520 q 114 516 111 519 q 118 509 117 513 q 119 500 119 504 q 118 490 119 496 q 114 484 117 487 q 108 479 111 480 q 100 478 105 478 l 88 478 l 88 522 l 100 522 q 108 520 102 522 m 780 562 l 780 439 l 35 439 l 35 562 l 780 562 m 129 487 q 131 500 131 493 q 129 513 131 507 q 122 522 127 517 q 113 529 117 528 q 100 531 106 531 l 70 531 l 70 526 q 73 524 70 524 l 73 523 l 74 523 l 75 522 q 77 522 76 522 l 77 477 q 75 477 76 477 l 74 477 l 73 477 l 73 476 q 70 474 70 476 l 70 469 l 100 469 q 113 471 106 469 q 122 477 117 472 q 129 487 127 483 m 197 515 l 197 531 l 151 531 l 151 526 q 153 524 151 524 l 154 523 l 155 523 l 156 522 q 158 522 157 522 l 158 477 q 156 477 157 477 l 155 477 l 154 477 l 153 476 q 151 474 151 476 l 151 469 l 197 469 l 197 485 l 192 485 q 190 484 190 485 l 190 481 q 189 478 189 479 l 170 478 l 170 496 l 191 496 l 191 505 l 170 505 l 170 522 l 189 522 q 190 518 189 520 l 190 516 q 192 515 190 515 l 197 515 m 298 526 l 298 531 l 283 531 l 282 531 l 281 531 l 280 530 q 279 529 279 530 l 261 494 q 260 493 260 494 q 260 492 260 492 l 258 489 l 257 492 q 256 493 256 492 q 256 494 256 494 l 237 529 l 237 530 q 235 531 236 531 l 235 531 l 233 531 l 218 531 l 218 526 q 220 524 218 524 l 220 523 l 222 523 l 222 522 q 224 522 224 522 l 224 477 q 222 477 224 477 l 222 477 l 220 477 l 220 476 q 218 473 218 476 l 218 469 l 243 469 l 243 473 q 240 476 243 476 q 235 477 238 477 l 235 509 l 235 511 l 235 514 l 254 479 l 254 478 q 255 477 255 477 q 258 476 256 476 l 259 476 q 262 477 261 476 q 262 477 262 477 l 263 479 l 282 514 l 282 511 l 282 509 l 282 477 l 276 476 q 274 473 274 476 l 274 469 l 298 469 l 298 473 q 296 476 298 476 l 296 477 l 294 477 l 294 477 q 292 477 293 477 l 292 522 q 294 522 293 522 l 294 523 l 296 523 l 296 523 q 298 526 298 523 m 380 487 q 382 500 382 493 q 380 513 382 507 q 373 523 378 517 q 363 529 369 528 q 351 532 355 532 q 338 529 346 532 q 328 523 332 527 q 321 513 323 517 q 319 500 319 507 q 321 487 319 493 q 328 477 323 481 q 338 471 332 473 q 351 468 346 468 q 363 471 355 468 q 373 477 369 472 q 380 487 378 481 m 482 515 l 487 515 l 487 531 l 439 531 l 439 526 q 441 524 439 524 l 442 523 l 444 523 l 444 522 q 446 522 445 522 l 446 477 q 444 477 445 477 l 444 477 l 442 477 l 441 476 q 439 474 439 476 l 439 469 l 464 469 l 464 474 q 462 476 464 476 l 461 477 l 460 477 l 458 477 q 457 477 458 477 l 457 494 l 479 494 l 479 503 l 457 503 l 457 522 l 479 522 q 480 518 479 520 l 480 516 q 482 515 480 515 m 568 487 q 570 500 570 495 q 568 513 570 505 q 562 523 566 519 q 551 529 557 527 q 538 532 543 532 q 526 529 534 532 q 516 523 521 528 q 509 513 511 517 q 507 500 507 507 q 509 487 507 493 q 516 477 511 481 q 526 471 521 472 q 538 468 534 468 q 551 471 543 468 q 562 477 557 473 q 568 487 566 481 m 656 526 l 656 531 l 631 531 l 631 526 q 633 523 631 523 q 640 522 636 523 l 640 493 l 640 490 l 640 488 l 607 529 l 606 530 l 606 530 q 604 531 605 531 l 603 531 l 591 531 l 591 526 q 593 524 591 524 l 593 523 l 595 523 l 595 522 q 597 522 596 522 l 597 477 q 595 477 596 477 l 595 477 l 593 477 l 593 476 q 591 474 591 476 l 591 469 l 615 469 l 615 474 q 613 476 615 476 q 607 477 610 477 l 607 507 l 607 509 l 607 512 l 640 471 q 640 470 640 471 l 642 469 l 642 469 q 644 469 643 469 l 650 469 l 650 522 q 651 522 650 522 l 652 523 l 653 523 l 654 523 q 656 526 656 523 m 723 516 l 728 516 l 728 531 l 676 531 l 676 516 l 681 516 q 683 518 683 516 l 684 519 q 684 522 684 520 l 696 522 l 696 477 q 694 477 695 477 l 694 477 l 692 477 l 692 476 q 690 474 690 476 l 690 469 l 714 469 l 714 474 q 712 476 714 476 l 711 477 l 710 477 l 709 477 q 707 477 708 477 l 707 522 l 720 522 q 720 519 720 520 l 721 518 q 723 516 721 516 m 618 288 q 626 309 618 302 q 648 319 633 315 q 654 318 651 319 q 655 312 656 317 q 652 304 654 306 q 638 295 648 300 q 625 286 629 290 q 621 283 623 283 q 618 288 618 285 m 786 217 q 785 212 788 217 q 779 197 779 202 q 774 187 777 190 q 766 178 770 182 q 754 167 759 170 q 694 142 725 144 q 682 146 690 142 q 669 153 673 149 q 658 163 661 160 q 653 174 653 168 q 652 187 652 179 q 646 180 651 185 q 628 162 638 171 q 609 145 621 156 q 595 135 601 138 q 588 134 593 134 q 577 136 581 134 q 566 140 570 138 q 559 147 560 144 q 557 159 557 152 q 561 174 558 163 q 566 193 564 189 q 571 202 568 196 q 574 210 574 209 l 564 203 l 564 202 l 560 197 q 537 166 549 180 q 514 139 521 146 q 495 125 502 127 q 487 125 492 123 q 477 127 481 126 q 467 133 471 130 q 461 140 463 136 q 460 149 460 144 q 463 159 462 155 q 465 172 464 168 q 468 187 467 178 l 468 193 q 460 183 465 190 q 452 174 455 177 q 448 168 451 172 q 444 162 446 164 q 431 151 440 157 q 418 142 425 145 q 404 142 412 140 q 392 146 396 144 q 383 159 387 149 q 380 176 380 165 q 380 184 380 180 q 380 193 380 188 q 380 201 380 199 q 361 176 378 198 q 343 153 357 170 q 328 136 335 143 q 316 127 323 131 q 309 126 313 125 l 298 130 q 290 135 293 132 q 286 140 286 138 q 285 165 283 152 q 276 157 279 160 q 242 133 261 145 q 207 113 228 123 q 174 98 191 104 q 152 92 172 98 q 130 89 144 90 q 108 90 120 88 q 87 100 98 92 q 64 133 66 114 q 71 174 62 154 l 64 169 q 31 167 42 161 l 28 169 l 28 169 q 34 179 26 172 q 52 191 43 186 l 62 197 q 96 217 73 205 q 101 225 98 220 q 108 234 105 230 q 114 241 111 238 q 122 251 116 243 q 131 262 127 259 q 119 267 123 265 q 111 275 113 271 q 107 286 107 279 q 111 299 107 291 q 127 317 115 308 q 153 336 137 326 q 183 353 165 343 q 212 367 203 363 q 236 375 229 373 q 269 382 255 380 q 307 387 287 385 q 340 385 326 388 q 363 373 355 381 q 369 350 371 365 q 362 335 367 338 q 354 334 357 332 q 347 336 350 336 l 339 336 q 337 336 338 336 q 338 340 336 338 q 340 341 339 340 q 341 343 340 342 q 342 346 342 345 q 344 353 344 349 q 343 361 344 359 q 338 366 342 364 q 330 370 334 370 l 320 370 q 294 368 307 370 q 267 362 285 366 q 257 359 264 361 q 248 355 251 357 q 228 347 239 353 q 213 340 223 345 q 199 333 203 336 q 172 317 184 326 q 149 301 155 307 q 136 286 139 292 q 133 280 133 283 q 134 277 133 278 q 139 276 137 276 l 146 276 q 152 274 148 276 q 155 272 153 273 q 159 270 157 271 q 164 264 162 268 q 163 259 165 262 l 151 242 l 153 243 q 174 252 163 247 q 197 260 183 256 q 220 267 214 267 q 243 268 231 269 q 254 265 250 267 q 258 260 256 264 q 260 256 258 259 q 269 251 263 254 q 271 248 272 249 q 267 248 271 248 q 249 248 258 250 q 231 245 238 247 q 222 243 228 245 q 214 241 216 241 q 201 237 207 239 q 174 228 180 230 q 161 222 170 227 q 149 217 153 218 q 142 214 146 216 q 134 210 137 212 q 128 207 132 209 q 121 203 123 204 l 115 195 q 112 191 113 194 q 109 187 110 189 q 99 168 103 178 q 91 147 92 149 l 89 133 q 94 116 89 122 q 107 109 99 111 q 130 108 119 106 q 153 114 140 110 q 177 124 158 115 q 187 129 180 125 q 197 134 194 132 q 221 148 207 138 q 237 160 227 152 q 253 171 248 168 q 287 195 276 187 q 298 204 291 199 q 308 211 306 209 l 309 212 q 338 238 322 229 q 372 250 356 248 q 380 247 376 250 l 382 250 l 387 255 q 407 313 395 288 q 439 366 421 340 q 445 371 441 369 q 451 374 449 374 q 457 374 454 376 q 462 370 460 374 q 461 352 465 366 q 451 324 458 341 q 433 288 445 310 q 410 249 429 281 l 410 248 q 405 220 406 228 q 404 192 404 211 q 404 177 404 182 q 407 161 406 168 q 420 172 415 167 q 428 179 422 174 q 435 186 433 184 q 450 201 440 191 q 465 216 460 211 q 465 218 465 217 q 465 221 465 220 q 464 237 464 227 q 467 254 464 247 q 479 267 472 264 q 494 264 487 270 q 500 254 498 261 q 498 241 500 249 q 492 227 496 235 q 484 215 488 220 q 489 203 487 207 q 492 189 491 198 q 492 167 494 180 q 488 147 488 150 q 503 160 495 152 q 518 176 509 165 q 532 192 528 187 q 542 203 540 201 l 549 210 q 551 214 549 212 q 553 217 553 216 q 562 228 556 221 q 568 236 568 235 q 576 245 571 239 q 582 252 581 251 q 591 262 589 260 q 598 264 595 264 q 615 260 610 266 q 618 250 621 255 q 615 242 618 250 q 610 229 612 235 q 604 215 608 224 q 598 201 600 205 q 589 174 596 196 q 587 156 585 161 q 605 168 593 159 q 625 183 615 175 q 635 192 628 186 q 646 201 642 198 q 650 205 647 203 q 655 210 653 208 l 656 211 q 669 243 659 227 q 690 267 675 255 q 717 281 701 276 q 728 281 721 283 q 740 275 736 278 q 749 267 742 274 q 753 258 753 262 q 751 248 753 254 q 734 221 745 237 q 717 209 722 205 q 718 226 715 210 q 724 247 721 241 q 725 249 724 248 q 726 252 725 250 q 727 254 726 253 l 729 262 q 708 248 718 258 q 690 222 696 235 q 680 193 683 208 q 680 162 677 176 q 709 168 694 162 q 735 180 722 172 q 760 197 749 189 q 781 215 768 203 q 786 217 784 217 m 336 189 q 363 222 354 210 q 347 210 352 215 q 330 195 335 201 q 317 178 321 184 q 310 159 312 168 q 336 189 325 174 m 330 81 q 331 81 330 81 q 332 81 331 81 q 332 79 332 80 q 333 78 332 78 q 334 75 334 77 q 333 71 334 73 q 331 68 332 70 q 328 66 330 68 q 323 66 326 66 l 323 66 q 314 67 317 66 l 314 75 l 317 75 q 317 74 317 75 l 317 73 q 318 71 318 72 q 323 70 319 70 q 327 71 326 70 q 328 75 328 73 q 328 76 328 75 l 326 77 q 324 78 326 78 l 323 79 l 321 79 q 319 80 319 79 l 318 81 q 317 81 317 81 q 316 83 316 81 q 315 84 316 84 q 315 87 315 85 q 315 90 315 90 q 317 93 316 91 q 320 95 319 94 q 324 96 321 96 q 333 94 330 96 l 333 87 l 330 87 q 330 87 330 87 l 330 88 q 329 91 329 90 q 324 92 328 92 l 323 91 q 322 91 323 91 q 321 91 321 91 q 321 90 321 90 q 320 89 320 90 l 320 87 l 320 86 q 322 85 321 85 q 324 84 323 85 l 326 83 l 327 83 q 329 82 328 83 q 330 81 330 81 m 378 96 l 404 96 l 404 89 l 401 89 q 400 90 400 89 l 400 91 l 394 91 l 394 70 l 395 70 l 395 70 l 396 69 q 397 68 397 69 l 397 66 l 385 66 l 385 68 q 386 69 385 69 l 387 70 l 387 70 l 388 70 l 388 91 l 382 91 l 382 90 q 381 89 382 89 l 378 89 l 378 96 m 471 96 l 479 96 l 479 93 q 478 92 479 92 l 477 92 l 476 92 l 476 78 q 475 73 476 74 q 473 69 475 71 q 469 66 471 67 q 464 66 468 66 q 458 66 460 66 q 455 69 457 67 q 452 73 453 71 q 452 78 452 74 l 452 92 l 450 92 l 450 92 q 448 93 448 92 l 448 96 l 460 96 l 460 93 q 459 92 460 92 l 458 92 l 457 92 l 457 78 q 457 76 457 77 l 458 75 q 459 73 458 74 l 461 71 l 464 71 l 467 71 l 469 73 q 470 75 470 74 l 471 76 q 471 78 471 77 l 471 92 l 469 92 l 469 92 q 467 93 467 92 l 467 96 l 471 96 m 549 92 q 553 87 552 89 q 554 81 554 83 q 553 75 554 79 q 549 70 552 73 q 545 67 548 68 q 538 66 541 66 l 525 66 l 525 68 q 526 69 525 69 l 526 70 l 528 70 l 528 92 l 526 92 l 526 92 q 525 93 525 92 l 525 96 l 538 96 q 545 94 541 96 q 549 92 548 94 m 545 73 q 546 74 545 73 q 547 76 547 75 q 548 81 548 77 q 547 85 548 83 q 545 88 546 87 q 543 90 544 90 q 538 91 541 91 l 533 91 l 533 71 l 538 71 q 543 71 541 71 q 545 73 544 72 m 599 96 l 611 96 l 611 93 q 610 92 611 92 l 609 92 l 608 92 l 608 70 l 609 70 l 610 70 l 610 69 q 611 68 611 69 l 611 66 l 599 66 l 599 68 q 600 69 599 69 l 600 70 l 601 70 l 602 70 l 602 92 l 601 92 l 600 92 q 599 93 599 92 l 599 96 m 682 92 q 685 87 684 90 q 686 81 686 83 q 685 75 686 79 q 682 70 684 72 q 677 66 680 67 q 671 66 675 66 q 665 66 667 66 q 661 70 663 67 q 657 75 658 73 q 656 81 656 79 q 657 87 656 83 q 661 92 658 89 q 665 95 663 94 q 671 96 667 96 q 677 95 675 96 q 682 92 680 94 m 680 76 l 680 81 l 680 85 q 678 88 679 87 q 675 90 677 89 q 671 91 673 91 q 667 90 669 91 q 664 88 665 89 q 663 87 663 87 q 663 86 663 86 q 663 85 663 85 q 662 81 662 83 q 663 76 662 77 l 664 73 q 667 71 665 73 q 671 70 670 70 q 675 71 672 70 q 678 73 677 73 q 680 76 680 75 z "},"$":{"ha":814,"x_min":26,"x_max":789,"o":"m 108 520 q 114 516 111 519 q 118 509 117 513 q 119 500 119 504 q 118 490 119 496 q 114 484 117 487 q 108 479 111 480 q 100 478 105 478 l 88 478 l 88 522 l 100 522 q 108 520 102 522 m 359 520 q 365 516 361 519 q 369 509 368 513 q 370 500 370 504 q 369 490 370 496 q 365 484 368 487 q 359 479 361 480 q 351 478 356 478 q 342 479 345 478 q 336 484 339 480 q 332 490 332 487 q 330 500 330 496 q 332 509 330 504 q 336 516 332 513 q 342 520 339 519 q 351 522 347 522 q 359 520 353 522 m 553 516 q 557 509 555 514 q 558 500 558 504 q 557 490 558 496 q 553 484 555 486 q 547 479 550 480 q 538 478 544 478 q 530 479 533 478 q 524 484 528 480 q 520 490 521 487 q 519 500 519 496 q 520 509 519 504 q 524 516 521 513 q 530 520 528 519 q 538 522 536 522 q 547 520 541 522 q 553 516 550 519 m 780 562 l 780 439 l 35 439 l 35 562 l 780 562 m 129 487 q 131 500 131 493 q 129 513 131 507 q 122 522 127 517 q 113 529 117 528 q 100 531 106 531 l 70 531 l 70 526 q 73 524 70 524 l 73 523 l 74 523 l 75 522 q 77 522 76 522 l 77 477 q 75 477 76 477 l 74 477 l 73 477 l 73 476 q 70 474 70 476 l 70 469 l 100 469 q 113 471 106 469 q 122 477 117 472 q 129 487 127 483 m 197 515 l 197 531 l 151 531 l 151 526 q 153 524 151 524 l 154 523 l 155 523 l 156 522 q 158 522 157 522 l 158 477 q 156 477 157 477 l 155 477 l 154 477 l 153 476 q 151 474 151 476 l 151 469 l 197 469 l 197 485 l 192 485 q 190 484 190 485 l 190 481 q 189 478 189 479 l 170 478 l 170 496 l 191 496 l 191 505 l 170 505 l 170 522 l 189 522 q 190 518 189 520 l 190 516 q 192 515 190 515 l 197 515 m 298 526 l 298 531 l 283 531 l 282 531 l 281 531 l 280 530 q 279 529 279 530 l 261 494 q 260 493 260 494 q 260 492 260 492 l 258 489 l 257 492 q 256 493 256 492 q 256 494 256 494 l 237 529 l 237 530 q 235 531 236 531 l 235 531 l 233 531 l 218 531 l 218 526 q 220 524 218 524 l 220 523 l 222 523 l 222 522 q 224 522 224 522 l 224 477 q 222 477 224 477 l 222 477 l 220 477 l 220 476 q 218 473 218 476 l 218 469 l 243 469 l 243 473 q 240 476 243 476 q 235 477 238 477 l 235 509 l 235 511 l 235 514 l 254 479 l 254 478 q 255 477 255 477 q 258 476 256 476 l 259 476 q 262 477 261 476 q 262 477 262 477 l 263 479 l 282 514 l 282 511 l 282 509 l 282 477 l 276 476 q 274 473 274 476 l 274 469 l 298 469 l 298 473 q 296 476 298 476 l 296 477 l 294 477 l 294 477 q 292 477 293 477 l 292 522 q 294 522 293 522 l 294 523 l 296 523 l 296 523 q 298 526 298 523 m 380 487 q 382 500 382 493 q 380 513 382 507 q 373 523 378 517 q 363 529 369 528 q 351 532 355 532 q 338 529 346 532 q 328 523 332 527 q 321 513 323 517 q 319 500 319 507 q 321 487 319 493 q 328 477 323 481 q 338 471 332 473 q 351 468 346 468 q 363 471 355 468 q 373 477 369 472 q 380 487 378 481 m 482 515 l 487 515 l 487 531 l 439 531 l 439 526 q 441 524 439 524 l 442 523 l 444 523 l 444 522 q 446 522 445 522 l 446 477 q 444 477 445 477 l 444 477 l 442 477 l 441 476 q 439 474 439 476 l 439 469 l 464 469 l 464 474 q 462 476 464 476 l 461 477 l 460 477 l 458 477 q 457 477 458 477 l 457 494 l 479 494 l 479 503 l 457 503 l 457 522 l 479 522 q 480 518 479 520 l 480 516 q 482 515 480 515 m 568 487 q 570 500 570 495 q 568 513 570 505 q 562 523 566 519 q 551 529 557 527 q 538 532 543 532 q 526 529 534 532 q 516 523 521 528 q 509 513 511 517 q 507 500 507 507 q 509 487 507 493 q 516 477 511 481 q 526 471 521 472 q 538 468 534 468 q 551 471 543 468 q 562 477 557 473 q 568 487 566 481 m 656 526 l 656 531 l 631 531 l 631 526 q 633 523 631 523 q 640 522 636 523 l 640 493 l 640 490 l 640 488 l 607 529 l 606 530 l 606 530 q 604 531 605 531 l 603 531 l 591 531 l 591 526 q 593 524 591 524 l 593 523 l 595 523 l 595 522 q 597 522 596 522 l 597 477 q 595 477 596 477 l 595 477 l 593 477 l 593 476 q 591 474 591 476 l 591 469 l 615 469 l 615 474 q 613 476 615 476 q 607 477 610 477 l 607 507 l 607 509 l 607 512 l 640 471 q 640 470 640 471 l 642 469 l 642 469 q 644 469 643 469 l 650 469 l 650 522 q 651 522 650 522 l 652 523 l 653 523 l 654 523 q 656 526 656 523 m 723 516 l 728 516 l 728 531 l 676 531 l 676 516 l 681 516 q 683 518 683 516 l 684 519 q 684 522 684 520 l 696 522 l 696 477 q 694 477 695 477 l 694 477 l 692 477 l 692 476 q 690 474 690 476 l 690 469 l 714 469 l 714 474 q 712 476 714 476 l 711 477 l 710 477 l 709 477 q 707 477 708 477 l 707 522 l 720 522 q 720 519 720 520 l 721 518 q 723 516 721 516 m 786 217 q 785 212 788 217 q 779 197 779 202 q 774 187 777 190 q 766 178 770 182 q 754 167 759 170 q 694 142 725 144 q 682 146 690 142 q 669 153 673 149 q 658 163 661 160 q 653 174 653 168 q 652 187 652 179 q 646 180 651 185 q 628 162 638 171 q 609 145 621 156 q 595 135 601 138 q 588 134 593 134 q 577 136 581 134 q 566 140 570 138 q 559 147 560 144 q 557 159 557 152 q 561 174 558 163 q 566 193 564 189 q 571 202 568 196 q 574 210 574 209 l 564 203 l 564 202 l 560 197 q 537 166 549 180 q 514 139 521 146 q 495 125 502 127 q 487 125 492 123 q 477 127 481 126 q 467 133 471 130 q 461 140 463 136 q 460 149 460 144 q 463 159 462 155 q 465 172 464 168 q 468 187 467 178 l 468 193 q 460 183 465 190 q 452 174 455 177 q 448 168 451 172 q 444 162 446 164 q 431 151 440 157 q 418 142 425 145 q 404 142 412 140 q 392 146 396 144 q 383 159 387 149 q 380 176 380 165 q 380 184 380 180 q 380 193 380 188 q 380 201 380 199 q 361 176 378 198 q 343 153 357 170 q 328 136 335 143 q 316 127 323 131 q 309 126 313 125 l 298 130 q 290 135 293 132 q 286 140 286 138 q 285 165 283 152 q 276 157 279 160 q 242 133 261 145 q 207 113 228 123 q 174 98 191 104 q 152 92 172 98 q 130 89 144 90 q 108 90 120 88 q 87 100 98 92 q 64 133 66 114 q 71 174 62 154 l 64 169 q 31 167 42 161 l 28 169 l 28 169 q 34 179 26 172 q 52 191 43 186 l 62 197 q 96 217 73 205 q 101 225 98 220 q 108 234 105 230 q 114 241 111 238 q 122 251 116 243 q 131 262 127 259 q 119 267 123 265 q 111 275 113 271 q 107 286 107 279 q 111 299 107 291 q 127 317 115 308 q 153 336 137 326 q 183 353 165 343 q 212 367 203 363 q 236 375 229 373 q 269 382 255 380 q 307 387 287 385 q 340 385 326 388 q 363 373 355 381 q 369 350 371 365 q 362 335 367 338 q 354 334 357 332 q 347 336 350 336 l 339 336 q 337 336 338 336 q 338 340 336 338 q 340 341 339 340 q 341 343 340 342 q 342 346 342 345 q 344 353 344 349 q 343 361 344 359 q 338 366 342 364 q 330 370 334 370 l 320 370 q 294 368 307 370 q 267 362 285 366 q 257 359 264 361 q 248 355 251 357 q 228 347 239 353 q 213 340 223 345 q 199 333 203 336 q 172 317 184 326 q 149 301 155 307 q 136 286 139 292 q 133 280 133 283 q 134 277 133 278 q 139 276 137 276 l 146 276 q 152 274 148 276 q 155 272 153 273 q 159 270 157 271 q 164 264 162 268 q 163 259 165 262 l 151 242 l 153 243 q 174 252 163 247 q 197 260 183 256 q 220 267 214 267 q 243 268 231 269 q 254 265 250 267 q 258 260 256 264 q 260 256 258 259 q 269 251 263 254 q 271 248 272 249 q 267 248 271 248 q 249 248 258 250 q 231 245 238 247 q 222 243 228 245 q 214 241 216 241 q 201 237 207 239 q 174 228 180 230 q 161 222 170 227 q 149 217 153 218 q 142 214 146 216 q 134 210 137 212 q 128 207 132 209 q 121 203 123 204 l 115 195 q 112 191 113 194 q 109 187 110 189 q 99 168 103 178 q 91 147 92 149 l 89 133 q 94 116 89 122 q 107 109 99 111 q 130 108 119 106 q 153 114 140 110 q 177 124 158 115 q 187 129 180 125 q 197 134 194 132 q 221 148 207 138 q 237 160 227 152 q 253 171 248 168 q 287 195 276 187 q 298 204 291 199 q 308 211 306 209 l 309 212 q 338 238 322 229 q 372 250 356 248 q 380 247 376 250 l 382 250 l 387 255 q 407 313 395 288 q 439 366 421 340 q 445 371 441 369 q 451 374 449 374 q 457 374 454 376 q 462 370 460 374 q 461 352 465 366 q 451 324 458 341 q 433 288 445 310 q 410 249 429 281 l 410 248 q 405 220 406 228 q 404 192 404 211 q 404 177 404 182 q 407 161 406 168 q 420 172 415 167 q 428 179 422 174 q 435 186 433 184 q 450 201 440 191 q 465 216 460 211 q 465 218 465 217 q 465 221 465 220 q 464 237 464 227 q 467 254 464 247 q 479 267 472 264 q 494 264 487 270 q 500 254 498 261 q 498 241 500 249 q 492 227 496 235 q 484 215 488 220 q 489 203 487 207 q 492 189 491 198 q 492 167 494 180 q 488 147 488 150 q 503 160 495 152 q 518 176 509 165 q 532 192 528 187 q 542 203 540 201 l 549 210 q 551 214 549 212 q 553 217 553 216 q 562 228 556 221 q 568 236 568 235 q 576 245 571 239 q 582 252 581 251 q 591 262 589 260 q 598 264 595 264 q 615 260 610 266 q 618 250 621 255 q 615 242 618 250 q 610 229 612 235 q 604 215 608 224 q 598 201 600 205 q 589 174 596 196 q 587 156 585 161 q 605 168 593 159 q 625 183 615 175 q 635 192 628 186 q 646 201 642 198 q 650 205 647 203 q 655 210 653 208 l 656 211 q 669 243 659 227 q 690 267 675 255 q 717 281 701 276 q 728 281 721 283 q 740 275 736 278 q 749 267 742 274 q 753 258 753 262 q 751 248 753 254 q 734 221 745 237 q 717 209 722 205 q 718 226 715 210 q 724 247 721 241 q 725 249 724 248 q 726 252 725 250 q 727 254 726 253 l 729 262 q 708 248 718 258 q 690 222 696 235 q 680 193 683 208 q 680 162 677 176 q 709 168 694 162 q 735 180 722 172 q 760 197 749 189 q 781 215 768 203 q 786 217 784 217 m 336 189 q 363 222 354 210 q 347 210 352 215 q 330 195 335 201 q 317 178 321 184 q 310 159 312 168 q 336 189 325 174 m 618 288 q 626 309 618 302 q 648 319 633 315 q 654 318 651 319 q 655 312 656 317 q 652 304 654 306 q 638 295 648 300 q 625 286 629 290 q 621 283 623 283 q 618 288 618 285 m 330 81 q 331 81 330 81 q 332 81 331 81 q 332 79 332 80 q 333 78 332 78 q 334 75 334 77 q 333 71 334 73 q 331 68 332 70 q 328 66 330 68 q 323 66 326 66 l 323 66 q 314 67 317 66 l 314 75 l 317 75 q 317 74 317 75 l 317 73 q 318 71 318 72 q 323 70 319 70 q 327 71 326 70 q 328 75 328 73 q 328 76 328 75 l 326 77 q 324 78 326 78 l 323 79 l 321 79 q 319 80 319 79 l 318 81 q 317 81 317 81 q 316 83 316 81 q 315 84 316 84 q 315 87 315 85 q 315 90 315 90 q 317 93 316 91 q 320 95 319 94 q 324 96 321 96 q 333 94 330 96 l 333 87 l 330 87 q 330 87 330 87 l 330 88 q 329 91 329 90 q 324 92 328 92 l 323 91 q 322 91 323 91 q 321 91 321 91 q 321 90 321 90 q 320 89 320 90 l 320 87 l 320 86 q 322 85 321 85 q 324 84 323 85 l 326 83 l 327 83 q 329 82 328 83 q 330 81 330 81 m 378 96 l 404 96 l 404 89 l 401 89 q 400 90 400 89 l 400 91 l 394 91 l 394 70 l 395 70 l 395 70 l 396 69 q 397 68 397 69 l 397 66 l 385 66 l 385 68 q 386 69 385 69 l 387 70 l 387 70 l 388 70 l 388 91 l 382 91 l 382 90 q 381 89 382 89 l 378 89 l 378 96 m 471 96 l 479 96 l 479 93 q 478 92 479 92 l 477 92 l 476 92 l 476 78 q 475 73 476 74 q 473 69 475 71 q 469 66 471 67 q 464 66 468 66 q 458 66 460 66 q 455 69 457 67 q 452 73 453 71 q 452 78 452 74 l 452 92 l 450 92 l 450 92 q 448 93 448 92 l 448 96 l 460 96 l 460 93 q 459 92 460 92 l 458 92 l 457 92 l 457 78 q 457 76 457 77 l 458 75 q 459 73 458 74 l 461 71 l 464 71 l 467 71 l 469 73 q 470 75 470 74 l 471 76 q 471 78 471 77 l 471 92 l 469 92 l 469 92 q 467 93 467 92 l 467 96 l 471 96 m 549 92 q 553 87 552 89 q 554 81 554 83 q 553 75 554 79 q 549 70 552 73 q 545 67 548 68 q 538 66 541 66 l 525 66 l 525 68 q 526 69 525 69 l 526 70 l 528 70 l 528 92 l 526 92 l 526 92 q 525 93 525 92 l 525 96 l 538 96 q 545 94 541 96 q 549 92 548 94 m 545 73 q 546 74 545 73 q 547 76 547 75 q 548 81 548 77 q 547 85 548 83 q 545 88 546 87 q 543 90 544 90 q 538 91 541 91 l 533 91 l 533 71 l 538 71 q 543 71 541 71 q 545 73 544 72 m 599 96 l 611 96 l 611 93 q 610 92 611 92 l 609 92 l 608 92 l 608 70 l 609 70 l 610 70 l 610 69 q 611 68 611 69 l 611 66 l 599 66 l 599 68 q 600 69 599 69 l 600 70 l 601 70 l 602 70 l 602 92 l 601 92 l 600 92 q 599 93 599 92 l 599 96 m 682 92 q 685 87 684 90 q 686 81 686 83 q 685 75 686 79 q 682 70 684 72 q 677 66 680 67 q 671 66 675 66 q 665 66 667 66 q 661 70 663 67 q 657 75 658 73 q 656 81 656 79 q 657 87 656 83 q 661 92 658 89 q 665 95 663 94 q 671 96 667 96 q 677 95 675 96 q 682 92 680 94 m 680 76 l 680 81 l 680 85 q 678 88 679 87 q 675 90 677 89 q 671 91 673 91 q 667 90 669 91 q 664 88 665 89 q 663 87 663 87 q 663 86 663 86 q 663 85 663 85 q 662 81 662 83 q 663 76 662 77 l 664 73 q 667 71 665 73 q 671 70 670 70 q 675 71 672 70 q 678 73 677 73 q 680 76 680 75 z "},"%":{"ha":814,"x_min":26,"x_max":789,"o":"m 359 520 q 365 516 361 519 q 369 509 368 513 q 370 500 370 504 q 369 490 370 496 q 365 484 368 487 q 359 479 361 480 q 351 478 356 478 q 342 479 345 478 q 336 484 339 480 q 332 490 332 487 q 330 500 330 496 q 332 509 330 504 q 336 516 332 513 q 342 520 339 519 q 351 522 347 522 q 359 520 353 522 m 553 516 q 557 509 555 514 q 558 500 558 504 q 557 490 558 496 q 553 484 555 486 q 547 479 550 480 q 538 478 544 478 q 530 479 533 478 q 524 484 528 480 q 520 490 521 487 q 519 500 519 496 q 520 509 519 504 q 524 516 521 513 q 530 520 528 519 q 538 522 536 522 q 547 520 541 522 q 553 516 550 519 m 108 520 q 114 516 111 519 q 118 509 117 513 q 119 500 119 504 q 118 490 119 496 q 114 484 117 487 q 108 479 111 480 q 100 478 105 478 l 88 478 l 88 522 l 100 522 q 108 520 102 522 m 780 562 l 780 439 l 35 439 l 35 562 l 780 562 m 129 487 q 131 500 131 493 q 129 513 131 507 q 122 522 127 517 q 113 529 117 528 q 100 531 106 531 l 70 531 l 70 526 q 73 524 70 524 l 73 523 l 74 523 l 75 522 q 77 522 76 522 l 77 477 q 75 477 76 477 l 74 477 l 73 477 l 73 476 q 70 474 70 476 l 70 469 l 100 469 q 113 471 106 469 q 122 477 117 472 q 129 487 127 483 m 197 515 l 197 531 l 151 531 l 151 526 q 153 524 151 524 l 154 523 l 155 523 l 156 522 q 158 522 157 522 l 158 477 q 156 477 157 477 l 155 477 l 154 477 l 153 476 q 151 474 151 476 l 151 469 l 197 469 l 197 485 l 192 485 q 190 484 190 485 l 190 481 q 189 478 189 479 l 170 478 l 170 496 l 191 496 l 191 505 l 170 505 l 170 522 l 189 522 q 190 518 189 520 l 190 516 q 192 515 190 515 l 197 515 m 298 526 l 298 531 l 283 531 l 282 531 l 281 531 l 280 530 q 279 529 279 530 l 261 494 q 260 493 260 494 q 260 492 260 492 l 258 489 l 257 492 q 256 493 256 492 q 256 494 256 494 l 237 529 l 237 530 q 235 531 236 531 l 235 531 l 233 531 l 218 531 l 218 526 q 220 524 218 524 l 220 523 l 222 523 l 222 522 q 224 522 224 522 l 224 477 q 222 477 224 477 l 222 477 l 220 477 l 220 476 q 218 473 218 476 l 218 469 l 243 469 l 243 473 q 240 476 243 476 q 235 477 238 477 l 235 509 l 235 511 l 235 514 l 254 479 l 254 478 q 255 477 255 477 q 258 476 256 476 l 259 476 q 262 477 261 476 q 262 477 262 477 l 263 479 l 282 514 l 282 511 l 282 509 l 282 477 l 276 476 q 274 473 274 476 l 274 469 l 298 469 l 298 473 q 296 476 298 476 l 296 477 l 294 477 l 294 477 q 292 477 293 477 l 292 522 q 294 522 293 522 l 294 523 l 296 523 l 296 523 q 298 526 298 523 m 380 487 q 382 500 382 493 q 380 513 382 507 q 373 523 378 517 q 363 529 369 528 q 351 532 355 532 q 338 529 346 532 q 328 523 332 527 q 321 513 323 517 q 319 500 319 507 q 321 487 319 493 q 328 477 323 481 q 338 471 332 473 q 351 468 346 468 q 363 471 355 468 q 373 477 369 472 q 380 487 378 481 m 482 515 l 487 515 l 487 531 l 439 531 l 439 526 q 441 524 439 524 l 442 523 l 444 523 l 444 522 q 446 522 445 522 l 446 477 q 444 477 445 477 l 444 477 l 442 477 l 441 476 q 439 474 439 476 l 439 469 l 464 469 l 464 474 q 462 476 464 476 l 461 477 l 460 477 l 458 477 q 457 477 458 477 l 457 494 l 479 494 l 479 503 l 457 503 l 457 522 l 479 522 q 480 518 479 520 l 480 516 q 482 515 480 515 m 568 487 q 570 500 570 495 q 568 513 570 505 q 562 523 566 519 q 551 529 557 527 q 538 532 543 532 q 526 529 534 532 q 516 523 521 528 q 509 513 511 517 q 507 500 507 507 q 509 487 507 493 q 516 477 511 481 q 526 471 521 472 q 538 468 534 468 q 551 471 543 468 q 562 477 557 473 q 568 487 566 481 m 656 526 l 656 531 l 631 531 l 631 526 q 633 523 631 523 q 640 522 636 523 l 640 493 l 640 490 l 640 488 l 607 529 l 606 530 l 606 530 q 604 531 605 531 l 603 531 l 591 531 l 591 526 q 593 524 591 524 l 593 523 l 595 523 l 595 522 q 597 522 596 522 l 597 477 q 595 477 596 477 l 595 477 l 593 477 l 593 476 q 591 474 591 476 l 591 469 l 615 469 l 615 474 q 613 476 615 476 q 607 477 610 477 l 607 507 l 607 509 l 607 512 l 640 471 q 640 470 640 471 l 642 469 l 642 469 q 644 469 643 469 l 650 469 l 650 522 q 651 522 650 522 l 652 523 l 653 523 l 654 523 q 656 526 656 523 m 723 516 l 728 516 l 728 531 l 676 531 l 676 516 l 681 516 q 683 518 683 516 l 684 519 q 684 522 684 520 l 696 522 l 696 477 q 694 477 695 477 l 694 477 l 692 477 l 692 476 q 690 474 690 476 l 690 469 l 714 469 l 714 474 q 712 476 714 476 l 711 477 l 710 477 l 709 477 q 707 477 708 477 l 707 522 l 720 522 q 720 519 720 520 l 721 518 q 723 516 721 516 m 786 217 q 785 212 788 217 q 779 197 779 202 q 774 187 777 190 q 766 178 770 182 q 754 167 759 170 q 694 142 725 144 q 682 146 690 142 q 669 153 673 149 q 658 163 661 160 q 653 174 653 168 q 652 187 652 179 q 646 180 651 185 q 628 162 638 171 q 609 145 621 156 q 595 135 601 138 q 588 134 593 134 q 577 136 581 134 q 566 140 570 138 q 559 147 560 144 q 557 159 557 152 q 561 174 558 163 q 566 193 564 189 q 571 202 568 196 q 574 210 574 209 l 564 203 l 564 202 l 560 197 q 537 166 549 180 q 514 139 521 146 q 495 125 502 127 q 487 125 492 123 q 477 127 481 126 q 467 133 471 130 q 461 140 463 136 q 460 149 460 144 q 463 159 462 155 q 465 172 464 168 q 468 187 467 178 l 468 193 q 460 183 465 190 q 452 174 455 177 q 448 168 451 172 q 444 162 446 164 q 431 151 440 157 q 418 142 425 145 q 404 142 412 140 q 392 146 396 144 q 383 159 387 149 q 380 176 380 165 q 380 184 380 180 q 380 193 380 188 q 380 201 380 199 q 361 176 378 198 q 343 153 357 170 q 328 136 335 143 q 316 127 323 131 q 309 126 313 125 l 298 130 q 290 135 293 132 q 286 140 286 138 q 285 165 283 152 q 276 157 279 160 q 242 133 261 145 q 207 113 228 123 q 174 98 191 104 q 152 92 172 98 q 130 89 144 90 q 108 90 120 88 q 87 100 98 92 q 64 133 66 114 q 71 174 62 154 l 64 169 q 31 167 42 161 l 28 169 l 28 169 q 34 179 26 172 q 52 191 43 186 l 62 197 q 96 217 73 205 q 101 225 98 220 q 108 234 105 230 q 114 241 111 238 q 122 251 116 243 q 131 262 127 259 q 119 267 123 265 q 111 275 113 271 q 107 286 107 279 q 111 299 107 291 q 127 317 115 308 q 153 336 137 326 q 183 353 165 343 q 212 367 203 363 q 236 375 229 373 q 269 382 255 380 q 307 387 287 385 q 340 385 326 388 q 363 373 355 381 q 369 350 371 365 q 362 335 367 338 q 354 334 357 332 q 347 336 350 336 l 339 336 q 337 336 338 336 q 338 340 336 338 q 340 341 339 340 q 341 343 340 342 q 342 346 342 345 q 344 353 344 349 q 343 361 344 359 q 338 366 342 364 q 330 370 334 370 l 320 370 q 294 368 307 370 q 267 362 285 366 q 257 359 264 361 q 248 355 251 357 q 228 347 239 353 q 213 340 223 345 q 199 333 203 336 q 172 317 184 326 q 149 301 155 307 q 136 286 139 292 q 133 280 133 283 q 134 277 133 278 q 139 276 137 276 l 146 276 q 152 274 148 276 q 155 272 153 273 q 159 270 157 271 q 164 264 162 268 q 163 259 165 262 l 151 242 l 153 243 q 174 252 163 247 q 197 260 183 256 q 220 267 214 267 q 243 268 231 269 q 254 265 250 267 q 258 260 256 264 q 260 256 258 259 q 269 251 263 254 q 271 248 272 249 q 267 248 271 248 q 249 248 258 250 q 231 245 238 247 q 222 243 228 245 q 214 241 216 241 q 201 237 207 239 q 174 228 180 230 q 161 222 170 227 q 149 217 153 218 q 142 214 146 216 q 134 210 137 212 q 128 207 132 209 q 121 203 123 204 l 115 195 q 112 191 113 194 q 109 187 110 189 q 99 168 103 178 q 91 147 92 149 l 89 133 q 94 116 89 122 q 107 109 99 111 q 130 108 119 106 q 153 114 140 110 q 177 124 158 115 q 187 129 180 125 q 197 134 194 132 q 221 148 207 138 q 237 160 227 152 q 253 171 248 168 q 287 195 276 187 q 298 204 291 199 q 308 211 306 209 l 309 212 q 338 238 322 229 q 372 250 356 248 q 380 247 376 250 l 382 250 l 387 255 q 407 313 395 288 q 439 366 421 340 q 445 371 441 369 q 451 374 449 374 q 457 374 454 376 q 462 370 460 374 q 461 352 465 366 q 451 324 458 341 q 433 288 445 310 q 410 249 429 281 l 410 248 q 405 220 406 228 q 404 192 404 211 q 404 177 404 182 q 407 161 406 168 q 420 172 415 167 q 428 179 422 174 q 435 186 433 184 q 450 201 440 191 q 465 216 460 211 q 465 218 465 217 q 465 221 465 220 q 464 237 464 227 q 467 254 464 247 q 479 267 472 264 q 494 264 487 270 q 500 254 498 261 q 498 241 500 249 q 492 227 496 235 q 484 215 488 220 q 489 203 487 207 q 492 189 491 198 q 492 167 494 180 q 488 147 488 150 q 503 160 495 152 q 518 176 509 165 q 532 192 528 187 q 542 203 540 201 l 549 210 q 551 214 549 212 q 553 217 553 216 q 562 228 556 221 q 568 236 568 235 q 576 245 571 239 q 582 252 581 251 q 591 262 589 260 q 598 264 595 264 q 615 260 610 266 q 618 250 621 255 q 615 242 618 250 q 610 229 612 235 q 604 215 608 224 q 598 201 600 205 q 589 174 596 196 q 587 156 585 161 q 605 168 593 159 q 625 183 615 175 q 635 192 628 186 q 646 201 642 198 q 650 205 647 203 q 655 210 653 208 l 656 211 q 669 243 659 227 q 690 267 675 255 q 717 281 701 276 q 728 281 721 283 q 740 275 736 278 q 749 267 742 274 q 753 258 753 262 q 751 248 753 254 q 734 221 745 237 q 717 209 722 205 q 718 226 715 210 q 724 247 721 241 q 725 249 724 248 q 726 252 725 250 q 727 254 726 253 l 729 262 q 708 248 718 258 q 690 222 696 235 q 680 193 683 208 q 680 162 677 176 q 709 168 694 162 q 735 180 722 172 q 760 197 749 189 q 781 215 768 203 q 786 217 784 217 m 336 189 q 363 222 354 210 q 347 210 352 215 q 330 195 335 201 q 317 178 321 184 q 310 159 312 168 q 336 189 325 174 m 618 288 q 626 309 618 302 q 648 319 633 315 q 654 318 651 319 q 655 312 656 317 q 652 304 654 306 q 638 295 648 300 q 625 286 629 290 q 621 283 623 283 q 618 288 618 285 m 330 81 q 331 81 330 81 q 332 81 331 81 q 332 79 332 80 q 333 78 332 78 q 334 75 334 77 q 333 71 334 73 q 331 68 332 70 q 328 66 330 68 q 323 66 326 66 l 323 66 q 314 67 317 66 l 314 75 l 317 75 q 317 74 317 75 l 317 73 q 318 71 318 72 q 323 70 319 70 q 327 71 326 70 q 328 75 328 73 q 328 76 328 75 l 326 77 q 324 78 326 78 l 323 79 l 321 79 q 319 80 319 79 l 318 81 q 317 81 317 81 q 316 83 316 81 q 315 84 316 84 q 315 87 315 85 q 315 90 315 90 q 317 93 316 91 q 320 95 319 94 q 324 96 321 96 q 333 94 330 96 l 333 87 l 330 87 q 330 87 330 87 l 330 88 q 329 91 329 90 q 324 92 328 92 l 323 91 q 322 91 323 91 q 321 91 321 91 q 321 90 321 90 q 320 89 320 90 l 320 87 l 320 86 q 322 85 321 85 q 324 84 323 85 l 326 83 l 327 83 q 329 82 328 83 q 330 81 330 81 m 378 96 l 404 96 l 404 89 l 401 89 q 400 90 400 89 l 400 91 l 394 91 l 394 70 l 395 70 l 395 70 l 396 69 q 397 68 397 69 l 397 66 l 385 66 l 385 68 q 386 69 385 69 l 387 70 l 387 70 l 388 70 l 388 91 l 382 91 l 382 90 q 381 89 382 89 l 378 89 l 378 96 m 471 96 l 479 96 l 479 93 q 478 92 479 92 l 477 92 l 476 92 l 476 78 q 475 73 476 74 q 473 69 475 71 q 469 66 471 67 q 464 66 468 66 q 458 66 460 66 q 455 69 457 67 q 452 73 453 71 q 452 78 452 74 l 452 92 l 450 92 l 450 92 q 448 93 448 92 l 448 96 l 460 96 l 460 93 q 459 92 460 92 l 458 92 l 457 92 l 457 78 q 457 76 457 77 l 458 75 q 459 73 458 74 l 461 71 l 464 71 l 467 71 l 469 73 q 470 75 470 74 l 471 76 q 471 78 471 77 l 471 92 l 469 92 l 469 92 q 467 93 467 92 l 467 96 l 471 96 m 549 92 q 553 87 552 89 q 554 81 554 83 q 553 75 554 79 q 549 70 552 73 q 545 67 548 68 q 538 66 541 66 l 525 66 l 525 68 q 526 69 525 69 l 526 70 l 528 70 l 528 92 l 526 92 l 526 92 q 525 93 525 92 l 525 96 l 538 96 q 545 94 541 96 q 549 92 548 94 m 545 73 q 546 74 545 73 q 547 76 547 75 q 548 81 548 77 q 547 85 548 83 q 545 88 546 87 q 543 90 544 90 q 538 91 541 91 l 533 91 l 533 71 l 538 71 q 543 71 541 71 q 545 73 544 72 m 599 96 l 611 96 l 611 93 q 610 92 611 92 l 609 92 l 608 92 l 608 70 l 609 70 l 610 70 l 610 69 q 611 68 611 69 l 611 66 l 599 66 l 599 68 q 600 69 599 69 l 600 70 l 601 70 l 602 70 l 602 92 l 601 92 l 600 92 q 599 93 599 92 l 599 96 m 682 92 q 685 87 684 90 q 686 81 686 83 q 685 75 686 79 q 682 70 684 72 q 677 66 680 67 q 671 66 675 66 q 665 66 667 66 q 661 70 663 67 q 657 75 658 73 q 656 81 656 79 q 657 87 656 83 q 661 92 658 89 q 665 95 663 94 q 671 96 667 96 q 677 95 675 96 q 682 92 680 94 m 680 76 l 680 81 l 680 85 q 678 88 679 87 q 675 90 677 89 q 671 91 673 91 q 667 90 669 91 q 664 88 665 89 q 663 87 663 87 q 663 86 663 86 q 663 85 663 85 q 662 81 662 83 q 663 76 662 77 l 664 73 q 667 71 665 73 q 671 70 670 70 q 675 71 672 70 q 678 73 677 73 q 680 76 680 75 z "},"&":{"ha":814,"x_min":26,"x_max":789,"o":"m 359 520 q 365 516 361 519 q 369 509 368 513 q 370 500 370 504 q 369 490 370 496 q 365 484 368 487 q 359 479 361 480 q 351 478 356 478 q 342 479 345 478 q 336 484 339 480 q 332 490 332 487 q 330 500 330 496 q 332 509 330 504 q 336 516 332 513 q 342 520 339 519 q 351 522 347 522 q 359 520 353 522 m 553 516 q 557 509 555 514 q 558 500 558 504 q 557 490 558 496 q 553 484 555 486 q 547 479 550 480 q 538 478 544 478 q 530 479 533 478 q 524 484 528 480 q 520 490 521 487 q 519 500 519 496 q 520 509 519 504 q 524 516 521 513 q 530 520 528 519 q 538 522 536 522 q 547 520 541 522 q 553 516 550 519 m 108 520 q 114 516 111 519 q 118 509 117 513 q 119 500 119 504 q 118 490 119 496 q 114 484 117 487 q 108 479 111 480 q 100 478 105 478 l 88 478 l 88 522 l 100 522 q 108 520 102 522 m 780 562 l 780 439 l 35 439 l 35 562 l 780 562 m 129 487 q 131 500 131 493 q 129 513 131 507 q 122 522 127 517 q 113 529 117 528 q 100 531 106 531 l 70 531 l 70 526 q 73 524 70 524 l 73 523 l 74 523 l 75 522 q 77 522 76 522 l 77 477 q 75 477 76 477 l 74 477 l 73 477 l 73 476 q 70 474 70 476 l 70 469 l 100 469 q 113 471 106 469 q 122 477 117 472 q 129 487 127 483 m 197 515 l 197 531 l 151 531 l 151 526 q 153 524 151 524 l 154 523 l 155 523 l 156 522 q 158 522 157 522 l 158 477 q 156 477 157 477 l 155 477 l 154 477 l 153 476 q 151 474 151 476 l 151 469 l 197 469 l 197 485 l 192 485 q 190 484 190 485 l 190 481 q 189 478 189 479 l 170 478 l 170 496 l 191 496 l 191 505 l 170 505 l 170 522 l 189 522 q 190 518 189 520 l 190 516 q 192 515 190 515 l 197 515 m 298 526 l 298 531 l 283 531 l 282 531 l 281 531 l 280 530 q 279 529 279 530 l 261 494 q 260 493 260 494 q 260 492 260 492 l 258 489 l 257 492 q 256 493 256 492 q 256 494 256 494 l 237 529 l 237 530 q 235 531 236 531 l 235 531 l 233 531 l 218 531 l 218 526 q 220 524 218 524 l 220 523 l 222 523 l 222 522 q 224 522 224 522 l 224 477 q 222 477 224 477 l 222 477 l 220 477 l 220 476 q 218 473 218 476 l 218 469 l 243 469 l 243 473 q 240 476 243 476 q 235 477 238 477 l 235 509 l 235 511 l 235 514 l 254 479 l 254 478 q 255 477 255 477 q 258 476 256 476 l 259 476 q 262 477 261 476 q 262 477 262 477 l 263 479 l 282 514 l 282 511 l 282 509 l 282 477 l 276 476 q 274 473 274 476 l 274 469 l 298 469 l 298 473 q 296 476 298 476 l 296 477 l 294 477 l 294 477 q 292 477 293 477 l 292 522 q 294 522 293 522 l 294 523 l 296 523 l 296 523 q 298 526 298 523 m 380 487 q 382 500 382 493 q 380 513 382 507 q 373 523 378 517 q 363 529 369 528 q 351 532 355 532 q 338 529 346 532 q 328 523 332 527 q 321 513 323 517 q 319 500 319 507 q 321 487 319 493 q 328 477 323 481 q 338 471 332 473 q 351 468 346 468 q 363 471 355 468 q 373 477 369 472 q 380 487 378 481 m 482 515 l 487 515 l 487 531 l 439 531 l 439 526 q 441 524 439 524 l 442 523 l 444 523 l 444 522 q 446 522 445 522 l 446 477 q 444 477 445 477 l 444 477 l 442 477 l 441 476 q 439 474 439 476 l 439 469 l 464 469 l 464 474 q 462 476 464 476 l 461 477 l 460 477 l 458 477 q 457 477 458 477 l 457 494 l 479 494 l 479 503 l 457 503 l 457 522 l 479 522 q 480 518 479 520 l 480 516 q 482 515 480 515 m 568 487 q 570 500 570 495 q 568 513 570 505 q 562 523 566 519 q 551 529 557 527 q 538 532 543 532 q 526 529 534 532 q 516 523 521 528 q 509 513 511 517 q 507 500 507 507 q 509 487 507 493 q 516 477 511 481 q 526 471 521 472 q 538 468 534 468 q 551 471 543 468 q 562 477 557 473 q 568 487 566 481 m 656 526 l 656 531 l 631 531 l 631 526 q 633 523 631 523 q 640 522 636 523 l 640 493 l 640 490 l 640 488 l 607 529 l 606 530 l 606 530 q 604 531 605 531 l 603 531 l 591 531 l 591 526 q 593 524 591 524 l 593 523 l 595 523 l 595 522 q 597 522 596 522 l 597 477 q 595 477 596 477 l 595 477 l 593 477 l 593 476 q 591 474 591 476 l 591 469 l 615 469 l 615 474 q 613 476 615 476 q 607 477 610 477 l 607 507 l 607 509 l 607 512 l 640 471 q 640 470 640 471 l 642 469 l 642 469 q 644 469 643 469 l 650 469 l 650 522 q 651 522 650 522 l 652 523 l 653 523 l 654 523 q 656 526 656 523 m 723 516 l 728 516 l 728 531 l 676 531 l 676 516 l 681 516 q 683 518 683 516 l 684 519 q 684 522 684 520 l 696 522 l 696 477 q 694 477 695 477 l 694 477 l 692 477 l 692 476 q 690 474 690 476 l 690 469 l 714 469 l 714 474 q 712 476 714 476 l 711 477 l 710 477 l 709 477 q 707 477 708 477 l 707 522 l 720 522 q 720 519 720 520 l 721 518 q 723 516 721 516 m 618 288 q 626 309 618 302 q 648 319 633 315 q 654 318 651 319 q 655 312 656 317 q 652 304 654 306 q 638 295 648 300 q 625 286 629 290 q 621 283 623 283 q 618 288 618 285 m 786 217 q 785 212 788 217 q 779 197 779 202 q 774 187 777 190 q 766 178 770 182 q 754 167 759 170 q 694 142 725 144 q 682 146 690 142 q 669 153 673 149 q 658 163 661 160 q 653 174 653 168 q 652 187 652 179 q 646 180 651 185 q 628 162 638 171 q 609 145 621 156 q 595 135 601 138 q 588 134 593 134 q 577 136 581 134 q 566 140 570 138 q 559 147 560 144 q 557 159 557 152 q 561 174 558 163 q 566 193 564 189 q 571 202 568 196 q 574 210 574 209 l 564 203 l 564 202 l 560 197 q 537 166 549 180 q 514 139 521 146 q 495 125 502 127 q 487 125 492 123 q 477 127 481 126 q 467 133 471 130 q 461 140 463 136 q 460 149 460 144 q 463 159 462 155 q 465 172 464 168 q 468 187 467 178 l 468 193 q 460 183 465 190 q 452 174 455 177 q 448 168 451 172 q 444 162 446 164 q 431 151 440 157 q 418 142 425 145 q 404 142 412 140 q 392 146 396 144 q 383 159 387 149 q 380 176 380 165 q 380 184 380 180 q 380 193 380 188 q 380 201 380 199 q 361 176 378 198 q 343 153 357 170 q 328 136 335 143 q 316 127 323 131 q 309 126 313 125 l 298 130 q 290 135 293 132 q 286 140 286 138 q 285 165 283 152 q 276 157 279 160 q 242 133 261 145 q 207 113 228 123 q 174 98 191 104 q 152 92 172 98 q 130 89 144 90 q 108 90 120 88 q 87 100 98 92 q 64 133 66 114 q 71 174 62 154 l 64 169 q 31 167 42 161 l 28 169 l 28 169 q 34 179 26 172 q 52 191 43 186 l 62 197 q 96 217 73 205 q 101 225 98 220 q 108 234 105 230 q 114 241 111 238 q 122 251 116 243 q 131 262 127 259 q 119 267 123 265 q 111 275 113 271 q 107 286 107 279 q 111 299 107 291 q 127 317 115 308 q 153 336 137 326 q 183 353 165 343 q 212 367 203 363 q 236 375 229 373 q 269 382 255 380 q 307 387 287 385 q 340 385 326 388 q 363 373 355 381 q 369 350 371 365 q 362 335 367 338 q 354 334 357 332 q 347 336 350 336 l 339 336 q 337 336 338 336 q 338 340 336 338 q 340 341 339 340 q 341 343 340 342 q 342 346 342 345 q 344 353 344 349 q 343 361 344 359 q 338 366 342 364 q 330 370 334 370 l 320 370 q 294 368 307 370 q 267 362 285 366 q 257 359 264 361 q 248 355 251 357 q 228 347 239 353 q 213 340 223 345 q 199 333 203 336 q 172 317 184 326 q 149 301 155 307 q 136 286 139 292 q 133 280 133 283 q 134 277 133 278 q 139 276 137 276 l 146 276 q 152 274 148 276 q 155 272 153 273 q 159 270 157 271 q 164 264 162 268 q 163 259 165 262 l 151 242 l 153 243 q 174 252 163 247 q 197 260 183 256 q 220 267 214 267 q 243 268 231 269 q 254 265 250 267 q 258 260 256 264 q 260 256 258 259 q 269 251 263 254 q 271 248 272 249 q 267 248 271 248 q 249 248 258 250 q 231 245 238 247 q 222 243 228 245 q 214 241 216 241 q 201 237 207 239 q 174 228 180 230 q 161 222 170 227 q 149 217 153 218 q 142 214 146 216 q 134 210 137 212 q 128 207 132 209 q 121 203 123 204 l 115 195 q 112 191 113 194 q 109 187 110 189 q 99 168 103 178 q 91 147 92 149 l 89 133 q 94 116 89 122 q 107 109 99 111 q 130 108 119 106 q 153 114 140 110 q 177 124 158 115 q 187 129 180 125 q 197 134 194 132 q 221 148 207 138 q 237 160 227 152 q 253 171 248 168 q 287 195 276 187 q 298 204 291 199 q 308 211 306 209 l 309 212 q 338 238 322 229 q 372 250 356 248 q 380 247 376 250 l 382 250 l 387 255 q 407 313 395 288 q 439 366 421 340 q 445 371 441 369 q 451 374 449 374 q 457 374 454 376 q 462 370 460 374 q 461 352 465 366 q 451 324 458 341 q 433 288 445 310 q 410 249 429 281 l 410 248 q 405 220 406 228 q 404 192 404 211 q 404 177 404 182 q 407 161 406 168 q 420 172 415 167 q 428 179 422 174 q 435 186 433 184 q 450 201 440 191 q 465 216 460 211 q 465 218 465 217 q 465 221 465 220 q 464 237 464 227 q 467 254 464 247 q 479 267 472 264 q 494 264 487 270 q 500 254 498 261 q 498 241 500 249 q 492 227 496 235 q 484 215 488 220 q 489 203 487 207 q 492 189 491 198 q 492 167 494 180 q 488 147 488 150 q 503 160 495 152 q 518 176 509 165 q 532 192 528 187 q 542 203 540 201 l 549 210 q 551 214 549 212 q 553 217 553 216 q 562 228 556 221 q 568 236 568 235 q 576 245 571 239 q 582 252 581 251 q 591 262 589 260 q 598 264 595 264 q 615 260 610 266 q 618 250 621 255 q 615 242 618 250 q 610 229 612 235 q 604 215 608 224 q 598 201 600 205 q 589 174 596 196 q 587 156 585 161 q 605 168 593 159 q 625 183 615 175 q 635 192 628 186 q 646 201 642 198 q 650 205 647 203 q 655 210 653 208 l 656 211 q 669 243 659 227 q 690 267 675 255 q 717 281 701 276 q 728 281 721 283 q 740 275 736 278 q 749 267 742 274 q 753 258 753 262 q 751 248 753 254 q 734 221 745 237 q 717 209 722 205 q 718 226 715 210 q 724 247 721 241 q 725 249 724 248 q 726 252 725 250 q 727 254 726 253 l 729 262 q 708 248 718 258 q 690 222 696 235 q 680 193 683 208 q 680 162 677 176 q 709 168 694 162 q 735 180 722 172 q 760 197 749 189 q 781 215 768 203 q 786 217 784 217 m 336 189 q 363 222 354 210 q 347 210 352 215 q 330 195 335 201 q 317 178 321 184 q 310 159 312 168 q 336 189 325 174 m 330 81 q 331 81 330 81 q 332 81 331 81 q 332 79 332 80 q 333 78 332 78 q 334 75 334 77 q 333 71 334 73 q 331 68 332 70 q 328 66 330 68 q 323 66 326 66 l 323 66 q 314 67 317 66 l 314 75 l 317 75 q 317 74 317 75 l 317 73 q 318 71 318 72 q 323 70 319 70 q 327 71 326 70 q 328 75 328 73 q 328 76 328 75 l 326 77 q 324 78 326 78 l 323 79 l 321 79 q 319 80 319 79 l 318 81 q 317 81 317 81 q 316 83 316 81 q 315 84 316 84 q 315 87 315 85 q 315 90 315 90 q 317 93 316 91 q 320 95 319 94 q 324 96 321 96 q 333 94 330 96 l 333 87 l 330 87 q 330 87 330 87 l 330 88 q 329 91 329 90 q 324 92 328 92 l 323 91 q 322 91 323 91 q 321 91 321 91 q 321 90 321 90 q 320 89 320 90 l 320 87 l 320 86 q 322 85 321 85 q 324 84 323 85 l 326 83 l 327 83 q 329 82 328 83 q 330 81 330 81 m 378 96 l 404 96 l 404 89 l 401 89 q 400 90 400 89 l 400 91 l 394 91 l 394 70 l 395 70 l 395 70 l 396 69 q 397 68 397 69 l 397 66 l 385 66 l 385 68 q 386 69 385 69 l 387 70 l 387 70 l 388 70 l 388 91 l 382 91 l 382 90 q 381 89 382 89 l 378 89 l 378 96 m 471 96 l 479 96 l 479 93 q 478 92 479 92 l 477 92 l 476 92 l 476 78 q 475 73 476 74 q 473 69 475 71 q 469 66 471 67 q 464 66 468 66 q 458 66 460 66 q 455 69 457 67 q 452 73 453 71 q 452 78 452 74 l 452 92 l 450 92 l 450 92 q 448 93 448 92 l 448 96 l 460 96 l 460 93 q 459 92 460 92 l 458 92 l 457 92 l 457 78 q 457 76 457 77 l 458 75 q 459 73 458 74 l 461 71 l 464 71 l 467 71 l 469 73 q 470 75 470 74 l 471 76 q 471 78 471 77 l 471 92 l 469 92 l 469 92 q 467 93 467 92 l 467 96 l 471 96 m 549 92 q 553 87 552 89 q 554 81 554 83 q 553 75 554 79 q 549 70 552 73 q 545 67 548 68 q 538 66 541 66 l 525 66 l 525 68 q 526 69 525 69 l 526 70 l 528 70 l 528 92 l 526 92 l 526 92 q 525 93 525 92 l 525 96 l 538 96 q 545 94 541 96 q 549 92 548 94 m 545 73 q 546 74 545 73 q 547 76 547 75 q 548 81 548 77 q 547 85 548 83 q 545 88 546 87 q 543 90 544 90 q 538 91 541 91 l 533 91 l 533 71 l 538 71 q 543 71 541 71 q 545 73 544 72 m 599 96 l 611 96 l 611 93 q 610 92 611 92 l 609 92 l 608 92 l 608 70 l 609 70 l 610 70 l 610 69 q 611 68 611 69 l 611 66 l 599 66 l 599 68 q 600 69 599 69 l 600 70 l 601 70 l 602 70 l 602 92 l 601 92 l 600 92 q 599 93 599 92 l 599 96 m 682 92 q 685 87 684 90 q 686 81 686 83 q 685 75 686 79 q 682 70 684 72 q 677 66 680 67 q 671 66 675 66 q 665 66 667 66 q 661 70 663 67 q 657 75 658 73 q 656 81 656 79 q 657 87 656 83 q 661 92 658 89 q 665 95 663 94 q 671 96 667 96 q 677 95 675 96 q 682 92 680 94 m 680 76 l 680 81 l 680 85 q 678 88 679 87 q 675 90 677 89 q 671 91 673 91 q 667 90 669 91 q 664 88 665 89 q 663 87 663 87 q 663 86 663 86 q 663 85 663 85 q 662 81 662 83 q 663 76 662 77 l 664 73 q 667 71 665 73 q 671 70 670 70 q 675 71 672 70 q 678 73 677 73 q 680 76 680 75 z "}}}
